<?xml version="1.0" standalone="no"?>
 <!DOCTYPE svg PUBLIC "-//W3C//DTD SVG 1.1//EN" 
 "http://www.w3.org/Graphics/SVG/1.1/DTD/svg11.dtd"> 
<svg xmlns="http://www.w3.org/2000/svg" version="1.1" 
    width="29.7002cm" height="21.0007cm" viewBox="0 0 116930 82680 ">
<title>SVG Picture created as ONE_TRAN_AMP-F.SilkS.svg date 2018/05/06 08:26:51 </title>
  <desc>Picture generated by PCBNEW </desc>
<g style="fill:#000000; fill-opacity:1;stroke:#000000; stroke-opacity:1;
stroke-linecap:round; stroke-linejoin:round; "
 transform="translate(0 0) scale(1 1)">
</g>
<g style="fill:#000000; fill-opacity:0.0; 
stroke:#000000; stroke-width:-0.000393701; stroke-opacity:1; 
stroke-linecap:round; stroke-linejoin:round;">
</g>
<g style="fill:#000000; fill-opacity:0.0; 
stroke:#000000; stroke-width:39.3701; stroke-opacity:1; 
stroke-linecap:round; stroke-linejoin:round;">
</g>
<g style="fill:#000000; fill-opacity:0.0; 
stroke:#000000; stroke-width:59.0551; stroke-opacity:1; 
stroke-linecap:round; stroke-linejoin:round;">
<rect x="69685.9" y="65357.2" width="42519.7" height="12598.4" rx="0" />
</g>
<g style="fill:#000000; fill-opacity:0.0; 
stroke:#000000; stroke-width:39.3701; stroke-opacity:1; 
stroke-linecap:round; stroke-linejoin:round;">
</g>
<g style="fill:#000000; fill-opacity:0.0; 
stroke:#000000; stroke-width:59.0551; stroke-opacity:1; 
stroke-linecap:round; stroke-linejoin:round;">
<rect x="3937.01" y="3937.01" width="109056" height="74806" rx="0" />
</g>
<g style="fill:#000000; fill-opacity:0.0; 
stroke:#000000; stroke-width:39.3701; stroke-opacity:1; 
stroke-linecap:round; stroke-linejoin:round;">
</g>
<g style="fill:#000000; fill-opacity:0.0; 
stroke:#000000; stroke-width:59.0551; stroke-opacity:1; 
stroke-linecap:round; stroke-linejoin:round;">
<rect x="4724.41" y="4724.41" width="107481" height="73231.2" rx="0" />
</g>
<g style="fill:#000000; fill-opacity:0.0; 
stroke:#000000; stroke-width:39.3701; stroke-opacity:1; 
stroke-linecap:round; stroke-linejoin:round;">
</g>
<g style="fill:#000000; fill-opacity:0.0; 
stroke:#000000; stroke-width:59.0551; stroke-opacity:1; 
stroke-linecap:round; stroke-linejoin:round;">
<path d="M23622 4724
L23622 3937
" />
</g>
<g style="fill:#000000; fill-opacity:0.0; 
stroke:#000000; stroke-width:39.3701; stroke-opacity:1; 
stroke-linecap:round; stroke-linejoin:round;">
</g>
<g style="fill:#000000; fill-opacity:0.0; 
stroke:#000000; stroke-width:59.0551; stroke-opacity:1; 
stroke-linecap:round; stroke-linejoin:round;">
<path d="M43307 4724
L43307 3937
" />
</g>
<g style="fill:#000000; fill-opacity:0.0; 
stroke:#000000; stroke-width:39.3701; stroke-opacity:1; 
stroke-linecap:round; stroke-linejoin:round;">
</g>
<g style="fill:#000000; fill-opacity:0.0; 
stroke:#000000; stroke-width:59.0551; stroke-opacity:1; 
stroke-linecap:round; stroke-linejoin:round;">
<path d="M62992 4724
L62992 3937
" />
</g>
<g style="fill:#000000; fill-opacity:0.0; 
stroke:#000000; stroke-width:39.3701; stroke-opacity:1; 
stroke-linecap:round; stroke-linejoin:round;">
</g>
<g style="fill:#000000; fill-opacity:0.0; 
stroke:#000000; stroke-width:59.0551; stroke-opacity:1; 
stroke-linecap:round; stroke-linejoin:round;">
<path d="M82677 4724
L82677 3937
" />
</g>
<g style="fill:#000000; fill-opacity:0.0; 
stroke:#000000; stroke-width:39.3701; stroke-opacity:1; 
stroke-linecap:round; stroke-linejoin:round;">
</g>
<g style="fill:#000000; fill-opacity:0.0; 
stroke:#000000; stroke-width:59.0551; stroke-opacity:1; 
stroke-linecap:round; stroke-linejoin:round;">
<path d="M102362 4724
L102362 3937
" />
</g>
<g style="fill:#000000; fill-opacity:0.0; 
stroke:#000000; stroke-width:39.3701; stroke-opacity:1; 
stroke-linecap:round; stroke-linejoin:round;">
</g>
<g style="fill:#000000; fill-opacity:0.0; 
stroke:#000000; stroke-width:59.0551; stroke-opacity:1; 
stroke-linecap:round; stroke-linejoin:round;">
<path d="M14169 4562
L13877 4562
" />
<path d="M14023 4562
L14023 4050
L13974 4123
L13925 4172
L13877 4196
" />
</g>
<g style="fill:#000000; fill-opacity:0.0; 
stroke:#000000; stroke-width:39.3701; stroke-opacity:1; 
stroke-linecap:round; stroke-linejoin:round;">
</g>
<g style="fill:#000000; fill-opacity:0.0; 
stroke:#000000; stroke-width:59.0551; stroke-opacity:1; 
stroke-linecap:round; stroke-linejoin:round;">
<path d="M33562 4099
L33586 4074
L33635 4050
L33757 4050
L33805 4074
L33830 4099
L33854 4147
L33854 4196
L33830 4269
L33537 4562
L33854 4562
" />
</g>
<g style="fill:#000000; fill-opacity:0.0; 
stroke:#000000; stroke-width:39.3701; stroke-opacity:1; 
stroke-linecap:round; stroke-linejoin:round;">
</g>
<g style="fill:#000000; fill-opacity:0.0; 
stroke:#000000; stroke-width:59.0551; stroke-opacity:1; 
stroke-linecap:round; stroke-linejoin:round;">
<path d="M53222 4050
L53539 4050
L53368 4245
L53442 4245
L53490 4269
L53515 4294
L53539 4342
L53539 4464
L53515 4513
L53490 4537
L53442 4562
L53295 4562
L53247 4537
L53222 4513
" />
</g>
<g style="fill:#000000; fill-opacity:0.0; 
stroke:#000000; stroke-width:39.3701; stroke-opacity:1; 
stroke-linecap:round; stroke-linejoin:round;">
</g>
<g style="fill:#000000; fill-opacity:0.0; 
stroke:#000000; stroke-width:59.0551; stroke-opacity:1; 
stroke-linecap:round; stroke-linejoin:round;">
<path d="M73175 4221
L73175 4562
" />
<path d="M73053 4026
L72932 4391
L73248 4391
" />
</g>
<g style="fill:#000000; fill-opacity:0.0; 
stroke:#000000; stroke-width:39.3701; stroke-opacity:1; 
stroke-linecap:round; stroke-linejoin:round;">
</g>
<g style="fill:#000000; fill-opacity:0.0; 
stroke:#000000; stroke-width:59.0551; stroke-opacity:1; 
stroke-linecap:round; stroke-linejoin:round;">
<path d="M92885 4050
L92641 4050
L92617 4294
L92641 4269
L92690 4245
L92812 4245
L92860 4269
L92885 4294
L92909 4342
L92909 4464
L92885 4513
L92860 4537
L92812 4562
L92690 4562
L92641 4537
L92617 4513
" />
</g>
<g style="fill:#000000; fill-opacity:0.0; 
stroke:#000000; stroke-width:39.3701; stroke-opacity:1; 
stroke-linecap:round; stroke-linejoin:round;">
</g>
<g style="fill:#000000; fill-opacity:0.0; 
stroke:#000000; stroke-width:59.0551; stroke-opacity:1; 
stroke-linecap:round; stroke-linejoin:round;">
<path d="M112545 4050
L112448 4050
L112399 4074
L112375 4099
L112326 4172
L112302 4269
L112302 4464
L112326 4513
L112350 4537
L112399 4562
L112497 4562
L112545 4537
L112570 4513
L112594 4464
L112594 4342
L112570 4294
L112545 4269
L112497 4245
L112399 4245
L112350 4269
L112326 4294
L112302 4342
" />
</g>
<g style="fill:#000000; fill-opacity:0.0; 
stroke:#000000; stroke-width:39.3701; stroke-opacity:1; 
stroke-linecap:round; stroke-linejoin:round;">
</g>
<g style="fill:#000000; fill-opacity:0.0; 
stroke:#000000; stroke-width:59.0551; stroke-opacity:1; 
stroke-linecap:round; stroke-linejoin:round;">
<path d="M23622 77955
L23622 78742
" />
</g>
<g style="fill:#000000; fill-opacity:0.0; 
stroke:#000000; stroke-width:39.3701; stroke-opacity:1; 
stroke-linecap:round; stroke-linejoin:round;">
</g>
<g style="fill:#000000; fill-opacity:0.0; 
stroke:#000000; stroke-width:59.0551; stroke-opacity:1; 
stroke-linecap:round; stroke-linejoin:round;">
<path d="M43307 77955
L43307 78742
" />
</g>
<g style="fill:#000000; fill-opacity:0.0; 
stroke:#000000; stroke-width:39.3701; stroke-opacity:1; 
stroke-linecap:round; stroke-linejoin:round;">
</g>
<g style="fill:#000000; fill-opacity:0.0; 
stroke:#000000; stroke-width:59.0551; stroke-opacity:1; 
stroke-linecap:round; stroke-linejoin:round;">
<path d="M62992 77955
L62992 78742
" />
</g>
<g style="fill:#000000; fill-opacity:0.0; 
stroke:#000000; stroke-width:39.3701; stroke-opacity:1; 
stroke-linecap:round; stroke-linejoin:round;">
</g>
<g style="fill:#000000; fill-opacity:0.0; 
stroke:#000000; stroke-width:59.0551; stroke-opacity:1; 
stroke-linecap:round; stroke-linejoin:round;">
<path d="M82677 77955
L82677 78742
" />
</g>
<g style="fill:#000000; fill-opacity:0.0; 
stroke:#000000; stroke-width:39.3701; stroke-opacity:1; 
stroke-linecap:round; stroke-linejoin:round;">
</g>
<g style="fill:#000000; fill-opacity:0.0; 
stroke:#000000; stroke-width:59.0551; stroke-opacity:1; 
stroke-linecap:round; stroke-linejoin:round;">
<path d="M102362 77955
L102362 78742
" />
</g>
<g style="fill:#000000; fill-opacity:0.0; 
stroke:#000000; stroke-width:39.3701; stroke-opacity:1; 
stroke-linecap:round; stroke-linejoin:round;">
</g>
<g style="fill:#000000; fill-opacity:0.0; 
stroke:#000000; stroke-width:59.0551; stroke-opacity:1; 
stroke-linecap:round; stroke-linejoin:round;">
<path d="M14169 78580
L13877 78580
" />
<path d="M14023 78580
L14023 78069
L13974 78142
L13925 78190
L13877 78215
" />
</g>
<g style="fill:#000000; fill-opacity:0.0; 
stroke:#000000; stroke-width:39.3701; stroke-opacity:1; 
stroke-linecap:round; stroke-linejoin:round;">
</g>
<g style="fill:#000000; fill-opacity:0.0; 
stroke:#000000; stroke-width:59.0551; stroke-opacity:1; 
stroke-linecap:round; stroke-linejoin:round;">
<path d="M33562 78117
L33586 78093
L33635 78069
L33757 78069
L33805 78093
L33830 78117
L33854 78166
L33854 78215
L33830 78288
L33537 78580
L33854 78580
" />
</g>
<g style="fill:#000000; fill-opacity:0.0; 
stroke:#000000; stroke-width:39.3701; stroke-opacity:1; 
stroke-linecap:round; stroke-linejoin:round;">
</g>
<g style="fill:#000000; fill-opacity:0.0; 
stroke:#000000; stroke-width:59.0551; stroke-opacity:1; 
stroke-linecap:round; stroke-linejoin:round;">
<path d="M53222 78069
L53539 78069
L53368 78263
L53442 78263
L53490 78288
L53515 78312
L53539 78361
L53539 78483
L53515 78532
L53490 78556
L53442 78580
L53295 78580
L53247 78556
L53222 78532
" />
</g>
<g style="fill:#000000; fill-opacity:0.0; 
stroke:#000000; stroke-width:39.3701; stroke-opacity:1; 
stroke-linecap:round; stroke-linejoin:round;">
</g>
<g style="fill:#000000; fill-opacity:0.0; 
stroke:#000000; stroke-width:59.0551; stroke-opacity:1; 
stroke-linecap:round; stroke-linejoin:round;">
<path d="M73175 78239
L73175 78580
" />
<path d="M73053 78044
L72932 78410
L73248 78410
" />
</g>
<g style="fill:#000000; fill-opacity:0.0; 
stroke:#000000; stroke-width:39.3701; stroke-opacity:1; 
stroke-linecap:round; stroke-linejoin:round;">
</g>
<g style="fill:#000000; fill-opacity:0.0; 
stroke:#000000; stroke-width:59.0551; stroke-opacity:1; 
stroke-linecap:round; stroke-linejoin:round;">
<path d="M92885 78069
L92641 78069
L92617 78312
L92641 78288
L92690 78263
L92812 78263
L92860 78288
L92885 78312
L92909 78361
L92909 78483
L92885 78532
L92860 78556
L92812 78580
L92690 78580
L92641 78556
L92617 78532
" />
</g>
<g style="fill:#000000; fill-opacity:0.0; 
stroke:#000000; stroke-width:39.3701; stroke-opacity:1; 
stroke-linecap:round; stroke-linejoin:round;">
</g>
<g style="fill:#000000; fill-opacity:0.0; 
stroke:#000000; stroke-width:59.0551; stroke-opacity:1; 
stroke-linecap:round; stroke-linejoin:round;">
<path d="M112545 78069
L112448 78069
L112399 78093
L112375 78117
L112326 78190
L112302 78288
L112302 78483
L112326 78532
L112350 78556
L112399 78580
L112497 78580
L112545 78556
L112570 78532
L112594 78483
L112594 78361
L112570 78312
L112545 78288
L112497 78263
L112399 78263
L112350 78288
L112326 78312
L112302 78361
" />
</g>
<g style="fill:#000000; fill-opacity:0.0; 
stroke:#000000; stroke-width:39.3701; stroke-opacity:1; 
stroke-linecap:round; stroke-linejoin:round;">
</g>
<g style="fill:#000000; fill-opacity:0.0; 
stroke:#000000; stroke-width:59.0551; stroke-opacity:1; 
stroke-linecap:round; stroke-linejoin:round;">
<path d="M3937 23622
L4724 23622
" />
</g>
<g style="fill:#000000; fill-opacity:0.0; 
stroke:#000000; stroke-width:39.3701; stroke-opacity:1; 
stroke-linecap:round; stroke-linejoin:round;">
</g>
<g style="fill:#000000; fill-opacity:0.0; 
stroke:#000000; stroke-width:59.0551; stroke-opacity:1; 
stroke-linecap:round; stroke-linejoin:round;">
<path d="M3937 43307
L4724 43307
" />
</g>
<g style="fill:#000000; fill-opacity:0.0; 
stroke:#000000; stroke-width:39.3701; stroke-opacity:1; 
stroke-linecap:round; stroke-linejoin:round;">
</g>
<g style="fill:#000000; fill-opacity:0.0; 
stroke:#000000; stroke-width:59.0551; stroke-opacity:1; 
stroke-linecap:round; stroke-linejoin:round;">
<path d="M3937 62992
L4724 62992
" />
</g>
<g style="fill:#000000; fill-opacity:0.0; 
stroke:#000000; stroke-width:39.3701; stroke-opacity:1; 
stroke-linecap:round; stroke-linejoin:round;">
</g>
<g style="fill:#000000; fill-opacity:0.0; 
stroke:#000000; stroke-width:59.0551; stroke-opacity:1; 
stroke-linecap:round; stroke-linejoin:round;">
<path d="M4208 13864
L4452 13864
" />
<path d="M4160 14011
L4330 13499
L4501 14011
" />
</g>
<g style="fill:#000000; fill-opacity:0.0; 
stroke:#000000; stroke-width:39.3701; stroke-opacity:1; 
stroke-linecap:round; stroke-linejoin:round;">
</g>
<g style="fill:#000000; fill-opacity:0.0; 
stroke:#000000; stroke-width:59.0551; stroke-opacity:1; 
stroke-linecap:round; stroke-linejoin:round;">
<path d="M4367 33428
L4440 33452
L4464 33476
L4489 33525
L4489 33598
L4464 33647
L4440 33671
L4391 33696
L4196 33696
L4196 33184
L4367 33184
L4416 33208
L4440 33233
L4464 33281
L4464 33330
L4440 33379
L4416 33403
L4367 33428
L4196 33428
" />
</g>
<g style="fill:#000000; fill-opacity:0.0; 
stroke:#000000; stroke-width:39.3701; stroke-opacity:1; 
stroke-linecap:round; stroke-linejoin:round;">
</g>
<g style="fill:#000000; fill-opacity:0.0; 
stroke:#000000; stroke-width:59.0551; stroke-opacity:1; 
stroke-linecap:round; stroke-linejoin:round;">
<path d="M4489 53332
L4464 53356
L4391 53381
L4342 53381
L4269 53356
L4221 53308
L4196 53259
L4172 53161
L4172 53088
L4196 52991
L4221 52942
L4269 52893
L4342 52869
L4391 52869
L4464 52893
L4489 52918
" />
</g>
<g style="fill:#000000; fill-opacity:0.0; 
stroke:#000000; stroke-width:39.3701; stroke-opacity:1; 
stroke-linecap:round; stroke-linejoin:round;">
</g>
<g style="fill:#000000; fill-opacity:0.0; 
stroke:#000000; stroke-width:59.0551; stroke-opacity:1; 
stroke-linecap:round; stroke-linejoin:round;">
<path d="M4196 73066
L4196 72554
L4318 72554
L4391 72578
L4440 72627
L4464 72676
L4489 72773
L4489 72846
L4464 72944
L4440 72993
L4391 73041
L4318 73066
L4196 73066
" />
</g>
<g style="fill:#000000; fill-opacity:0.0; 
stroke:#000000; stroke-width:39.3701; stroke-opacity:1; 
stroke-linecap:round; stroke-linejoin:round;">
</g>
<g style="fill:#000000; fill-opacity:0.0; 
stroke:#000000; stroke-width:59.0551; stroke-opacity:1; 
stroke-linecap:round; stroke-linejoin:round;">
<path d="M112992 23622
L112205 23622
" />
</g>
<g style="fill:#000000; fill-opacity:0.0; 
stroke:#000000; stroke-width:39.3701; stroke-opacity:1; 
stroke-linecap:round; stroke-linejoin:round;">
</g>
<g style="fill:#000000; fill-opacity:0.0; 
stroke:#000000; stroke-width:59.0551; stroke-opacity:1; 
stroke-linecap:round; stroke-linejoin:round;">
<path d="M112992 43307
L112205 43307
" />
</g>
<g style="fill:#000000; fill-opacity:0.0; 
stroke:#000000; stroke-width:39.3701; stroke-opacity:1; 
stroke-linecap:round; stroke-linejoin:round;">
</g>
<g style="fill:#000000; fill-opacity:0.0; 
stroke:#000000; stroke-width:59.0551; stroke-opacity:1; 
stroke-linecap:round; stroke-linejoin:round;">
<path d="M112992 62992
L112205 62992
" />
</g>
<g style="fill:#000000; fill-opacity:0.0; 
stroke:#000000; stroke-width:39.3701; stroke-opacity:1; 
stroke-linecap:round; stroke-linejoin:round;">
</g>
<g style="fill:#000000; fill-opacity:0.0; 
stroke:#000000; stroke-width:59.0551; stroke-opacity:1; 
stroke-linecap:round; stroke-linejoin:round;">
<path d="M112477 13864
L112721 13864
" />
<path d="M112428 14011
L112599 13499
L112769 14011
" />
</g>
<g style="fill:#000000; fill-opacity:0.0; 
stroke:#000000; stroke-width:39.3701; stroke-opacity:1; 
stroke-linecap:round; stroke-linejoin:round;">
</g>
<g style="fill:#000000; fill-opacity:0.0; 
stroke:#000000; stroke-width:59.0551; stroke-opacity:1; 
stroke-linecap:round; stroke-linejoin:round;">
<path d="M112635 33428
L112708 33452
L112733 33476
L112757 33525
L112757 33598
L112733 33647
L112708 33671
L112660 33696
L112465 33696
L112465 33184
L112635 33184
L112684 33208
L112708 33233
L112733 33281
L112733 33330
L112708 33379
L112684 33403
L112635 33428
L112465 33428
" />
</g>
<g style="fill:#000000; fill-opacity:0.0; 
stroke:#000000; stroke-width:39.3701; stroke-opacity:1; 
stroke-linecap:round; stroke-linejoin:round;">
</g>
<g style="fill:#000000; fill-opacity:0.0; 
stroke:#000000; stroke-width:59.0551; stroke-opacity:1; 
stroke-linecap:round; stroke-linejoin:round;">
<path d="M112757 53332
L112733 53356
L112660 53381
L112611 53381
L112538 53356
L112489 53308
L112465 53259
L112440 53161
L112440 53088
L112465 52991
L112489 52942
L112538 52893
L112611 52869
L112660 52869
L112733 52893
L112757 52918
" />
</g>
<g style="fill:#000000; fill-opacity:0.0; 
stroke:#000000; stroke-width:39.3701; stroke-opacity:1; 
stroke-linecap:round; stroke-linejoin:round;">
</g>
<g style="fill:#000000; fill-opacity:0.0; 
stroke:#000000; stroke-width:59.0551; stroke-opacity:1; 
stroke-linecap:round; stroke-linejoin:round;">
<path d="M112465 73066
L112465 72554
L112587 72554
L112660 72578
L112708 72627
L112733 72676
L112757 72773
L112757 72846
L112733 72944
L112708 72993
L112660 73041
L112587 73066
L112465 73066
" />
</g>
<g style="fill:#000000; fill-opacity:0.0; 
stroke:#000000; stroke-width:39.3701; stroke-opacity:1; 
stroke-linecap:round; stroke-linejoin:round;">
</g>
<g style="fill:#000000; fill-opacity:0.0; 
stroke:#000000; stroke-width:59.0551; stroke-opacity:1; 
stroke-linecap:round; stroke-linejoin:round;">
<path d="M78881 76293
L78881 75703
L79022 75703
L79106 75731
L79162 75787
L79190 75843
L79219 75956
L79219 76040
L79190 76153
L79162 76209
L79106 76265
L79022 76293
L78881 76293
" />
<path d="M79725 76293
L79725 75984
L79697 75928
L79640 75899
L79528 75899
L79472 75928
" />
<path d="M79725 76265
L79669 76293
L79528 76293
L79472 76265
L79444 76209
L79444 76153
L79472 76096
L79528 76068
L79669 76068
L79725 76040
" />
<path d="M79922 75899
L80147 75899
" />
<path d="M80006 75703
L80006 76209
L80034 76265
L80090 76293
L80147 76293
" />
<path d="M80568 76265
L80512 76293
L80400 76293
L80343 76265
L80315 76209
L80315 75984
L80343 75928
L80400 75899
L80512 75899
L80568 75928
L80597 75984
L80597 76040
L80315 76096
" />
<path d="M80850 76237
L80878 76265
L80850 76293
L80822 76265
L80850 76237
L80850 76293
" />
<path d="M80850 75928
L80878 75956
L80850 75984
L80822 75956
L80850 75928
L80850 75984
" />
</g>
<g style="fill:#000000; fill-opacity:0.0; 
stroke:#000000; stroke-width:39.3701; stroke-opacity:1; 
stroke-linecap:round; stroke-linejoin:round;">
</g>
<g style="fill:#000000; fill-opacity:0.0; 
stroke:#000000; stroke-width:59.0551; stroke-opacity:1; 
stroke-linecap:round; stroke-linejoin:round;">
<path d="M69685 76577
L112205 76577
" />
</g>
<g style="fill:#000000; fill-opacity:0.0; 
stroke:#000000; stroke-width:39.3701; stroke-opacity:1; 
stroke-linecap:round; stroke-linejoin:round;">
</g>
<g style="fill:#000000; fill-opacity:0.0; 
stroke:#000000; stroke-width:59.0551; stroke-opacity:1; 
stroke-linecap:round; stroke-linejoin:round;">
<path d="M70220 77395
L70220 76805
" />
<path d="M70557 77395
L70304 77058
" />
<path d="M70557 76805
L70220 77142
" />
<path d="M70810 77395
L70810 77002
" />
<path d="M70810 76805
L70782 76833
L70810 76861
L70838 76833
L70810 76805
L70810 76861
" />
<path d="M71429 77339
L71401 77367
L71316 77395
L71260 77395
L71176 77367
L71120 77311
L71091 77255
L71063 77142
L71063 77058
L71091 76946
L71120 76889
L71176 76833
L71260 76805
L71316 76805
L71401 76833
L71429 76861
" />
<path d="M71935 77395
L71935 77086
L71907 77030
L71851 77002
L71738 77002
L71682 77030
" />
<path d="M71935 77367
L71879 77395
L71738 77395
L71682 77367
L71654 77311
L71654 77255
L71682 77199
L71738 77171
L71879 77171
L71935 77142
" />
<path d="M72469 77395
L72469 76805
" />
<path d="M72469 77367
L72413 77395
L72301 77395
L72244 77367
L72216 77339
L72188 77283
L72188 77114
L72216 77058
L72244 77030
L72301 77002
L72413 77002
L72469 77030
" />
<path d="M73201 77086
L73397 77086
" />
<path d="M73482 77395
L73201 77395
L73201 76805
L73482 76805
" />
<path d="M73735 77339
L73763 77367
L73735 77395
L73707 77367
L73735 77339
L73735 77395
" />
<path d="M74016 77395
L74016 76805
L74157 76805
L74241 76833
L74297 76889
L74325 76946
L74354 77058
L74354 77142
L74325 77255
L74297 77311
L74241 77367
L74157 77395
L74016 77395
" />
<path d="M74607 77339
L74635 77367
L74607 77395
L74579 77367
L74607 77339
L74607 77395
" />
<path d="M74860 77227
L75141 77227
" />
<path d="M74804 77395
L75000 76805
L75197 77395
" />
<path d="M75394 77339
L75422 77367
L75394 77395
L75366 77367
L75394 77339
L75394 77395
" />
<path d="M76575 77395
L76575 76805
" />
<path d="M76631 77171
L76800 77395
" />
<path d="M76800 77002
L76575 77227
" />
<path d="M77053 77395
L77053 77002
" />
<path d="M77053 76805
L77025 76833
L77053 76861
L77081 76833
L77053 76805
L77053 76861
" />
<path d="M77588 77367
L77531 77395
L77419 77395
L77363 77367
L77334 77339
L77306 77283
L77306 77114
L77334 77058
L77363 77030
L77419 77002
L77531 77002
L77588 77030
" />
<path d="M78094 77395
L78094 77086
L78066 77030
L78009 77002
L77897 77002
L77841 77030
" />
<path d="M78094 77367
L78037 77395
L77897 77395
L77841 77367
L77813 77311
L77813 77255
L77841 77199
L77897 77171
L78037 77171
L78094 77142
" />
<path d="M78628 77395
L78628 76805
" />
<path d="M78628 77367
L78572 77395
L78459 77395
L78403 77367
L78375 77339
L78347 77283
L78347 77114
L78375 77058
L78403 77030
L78459 77002
L78572 77002
L78628 77030
" />
<path d="M79612 77002
L79612 77395
" />
<path d="M79472 76777
L79331 77199
L79697 77199
" />
<path d="M79922 77339
L79950 77367
L79922 77395
L79894 77367
L79922 77339
L79922 77395
" />
<path d="M80315 76805
L80372 76805
L80428 76833
L80456 76861
L80484 76917
L80512 77030
L80512 77171
L80484 77283
L80456 77339
L80428 77367
L80372 77395
L80315 77395
L80259 77367
L80231 77339
L80203 77283
L80175 77171
L80175 77030
L80203 76917
L80231 76861
L80259 76833
L80315 76805
" />
<path d="M80765 77339
L80793 77367
L80765 77395
L80737 77367
L80765 77339
L80765 77395
" />
<path d="M80990 76805
L81384 76805
L81131 77395
" />
</g>
<g style="fill:#000000; fill-opacity:0.0; 
stroke:#000000; stroke-width:39.3701; stroke-opacity:1; 
stroke-linecap:round; stroke-linejoin:round;">
</g>
<g style="fill:#000000; fill-opacity:0.0; 
stroke:#000000; stroke-width:59.0551; stroke-opacity:1; 
stroke-linecap:round; stroke-linejoin:round;">
<path d="M69685 75396
L112205 75396
" />
</g>
<g style="fill:#000000; fill-opacity:0.0; 
stroke:#000000; stroke-width:39.3701; stroke-opacity:1; 
stroke-linecap:round; stroke-linejoin:round;">
</g>
<g style="fill:#000000; fill-opacity:0.0; 
stroke:#000000; stroke-width:118.11; stroke-opacity:1; 
stroke-linecap:round; stroke-linejoin:round;">
<path d="M104022 76293
L103825 76012
" />
<path d="M103684 76293
L103684 75703
L103909 75703
L103965 75731
L103994 75759
L104022 75815
L104022 75899
L103994 75956
L103965 75984
L103909 76012
L103684 76012
" />
<path d="M104500 76265
L104444 76293
L104331 76293
L104275 76265
L104247 76209
L104247 75984
L104275 75928
L104331 75899
L104444 75899
L104500 75928
L104528 75984
L104528 76040
L104247 76096
" />
<path d="M104725 75899
L104865 76293
L105006 75899
" />
<path d="M105231 76237
L105259 76265
L105231 76293
L105203 76265
L105231 76237
L105231 76293
" />
<path d="M105231 75928
L105259 75956
L105231 75984
L105203 75956
L105231 75928
L105231 75984
" />
</g>
<g style="fill:#000000; fill-opacity:0.0; 
stroke:#000000; stroke-width:39.3701; stroke-opacity:1; 
stroke-linecap:round; stroke-linejoin:round;">
</g>
<g style="fill:#000000; fill-opacity:0.0; 
stroke:#000000; stroke-width:59.0551; stroke-opacity:1; 
stroke-linecap:round; stroke-linejoin:round;">
<path d="M70192 76265
L70276 76293
L70417 76293
L70473 76265
L70501 76237
L70529 76181
L70529 76124
L70501 76068
L70473 76040
L70417 76012
L70304 75984
L70248 75956
L70220 75928
L70192 75871
L70192 75815
L70220 75759
L70248 75731
L70304 75703
L70445 75703
L70529 75731
" />
<path d="M70782 76293
L70782 75899
" />
<path d="M70782 75703
L70754 75731
L70782 75759
L70810 75731
L70782 75703
L70782 75759
" />
<path d="M71007 75899
L71316 75899
L71007 76293
L71316 76293
" />
<path d="M71766 76265
L71710 76293
L71598 76293
L71541 76265
L71513 76209
L71513 75984
L71541 75928
L71598 75899
L71710 75899
L71766 75928
L71795 75984
L71795 76040
L71513 76096
" />
<path d="M72048 76237
L72076 76265
L72048 76293
L72019 76265
L72048 76237
L72048 76293
" />
<path d="M72048 75928
L72076 75956
L72048 75984
L72019 75956
L72048 75928
L72048 75984
" />
<path d="M72751 76124
L73032 76124
" />
<path d="M72694 76293
L72891 75703
L73088 76293
" />
<path d="M73538 75899
L73538 76293
" />
<path d="M73397 75674
L73257 76096
L73622 76096
" />
</g>
<g style="fill:#000000; fill-opacity:0.0; 
stroke:#000000; stroke-width:39.3701; stroke-opacity:1; 
stroke-linecap:round; stroke-linejoin:round;">
</g>
<g style="fill:#000000; fill-opacity:0.0; 
stroke:#000000; stroke-width:59.0551; stroke-opacity:1; 
stroke-linecap:round; stroke-linejoin:round;">
<path d="M103684 77395
L103684 76805
" />
<path d="M104219 77395
L104219 76805
" />
<path d="M104219 77367
L104162 77395
L104050 77395
L103994 77367
L103965 77339
L103937 77283
L103937 77114
L103965 77058
L103994 77030
L104050 77002
L104162 77002
L104219 77030
" />
<path d="M104500 77339
L104528 77367
L104500 77395
L104472 77367
L104500 77339
L104500 77395
" />
<path d="M104500 77030
L104528 77058
L104500 77086
L104472 77058
L104500 77030
L104500 77086
" />
<path d="M105540 77395
L105203 77395
" />
<path d="M105372 77395
L105372 76805
L105315 76889
L105259 76946
L105203 76974
" />
<path d="M106215 76777
L105709 77536
" />
<path d="M106721 77395
L106384 77395
" />
<path d="M106553 77395
L106553 76805
L106496 76889
L106440 76946
L106384 76974
" />
</g>
<g style="fill:#000000; fill-opacity:0.0; 
stroke:#000000; stroke-width:39.3701; stroke-opacity:1; 
stroke-linecap:round; stroke-linejoin:round;">
</g>
<g style="fill:#000000; fill-opacity:0.0; 
stroke:#000000; stroke-width:59.0551; stroke-opacity:1; 
stroke-linecap:round; stroke-linejoin:round;">
<path d="M69685 73821
L112205 73821
" />
</g>
<g style="fill:#000000; fill-opacity:0.0; 
stroke:#000000; stroke-width:39.3701; stroke-opacity:1; 
stroke-linecap:round; stroke-linejoin:round;">
</g>
<g style="fill:#000000; fill-opacity:0.0; 
stroke:#000000; stroke-width:157.48; stroke-opacity:1; 
stroke-linecap:round; stroke-linejoin:round;">
<path d="M70257 74099
L70707 74099
" />
<path d="M70384 74886
L70482 74099
" />
<path d="M70871 74886
L70937 74361
" />
<path d="M70970 74099
L70927 74136
L70960 74174
L71002 74136
L70970 74099
L70960 74174
" />
<path d="M71199 74361
L71499 74361
" />
<path d="M71345 74099
L71260 74774
L71288 74849
L71359 74886
L71434 74886
" />
<path d="M71809 74886
L71738 74849
L71710 74774
L71795 74099
" />
<path d="M72413 74849
L72334 74886
L72184 74886
L72113 74849
L72085 74774
L72123 74474
L72169 74399
L72249 74361
L72399 74361
L72469 74399
L72498 74474
L72488 74549
L72104 74624
" />
<path d="M72793 74811
L72826 74849
L72783 74886
L72751 74849
L72793 74811
L72783 74886
" />
<path d="M72844 74399
L72877 74436
L72835 74474
L72802 74436
L72844 74399
L72835 74474
" />
</g>
<g style="fill:#000000; fill-opacity:0.0; 
stroke:#000000; stroke-width:39.3701; stroke-opacity:1; 
stroke-linecap:round; stroke-linejoin:round;">
</g>
<g style="fill:#000000; fill-opacity:0.0; 
stroke:#000000; stroke-width:59.0551; stroke-opacity:1; 
stroke-linecap:round; stroke-linejoin:round;">
<path d="M70417 73070
L70220 73070
" />
<path d="M70220 73380
L70220 72789
L70501 72789
" />
<path d="M70726 73380
L70726 72986
" />
<path d="M70726 72789
L70698 72817
L70726 72845
L70754 72817
L70726 72789
L70726 72845
" />
<path d="M71091 73380
L71035 73352
L71007 73295
L71007 72789
" />
<path d="M71541 73352
L71485 73380
L71373 73380
L71316 73352
L71288 73295
L71288 73070
L71316 73014
L71373 72986
L71485 72986
L71541 73014
L71570 73070
L71570 73127
L71288 73183
" />
<path d="M71823 73323
L71851 73352
L71823 73380
L71795 73352
L71823 73323
L71823 73380
" />
<path d="M71823 73014
L71851 73042
L71823 73070
L71795 73042
L71823 73014
L71823 73070
" />
<path d="M72666 72789
L72779 72789
L72835 72817
L72891 72874
L72919 72986
L72919 73183
L72891 73295
L72835 73352
L72779 73380
L72666 73380
L72610 73352
L72554 73295
L72526 73183
L72526 72986
L72554 72874
L72610 72817
L72666 72789
" />
<path d="M73172 73380
L73172 72789
L73510 73380
L73510 72789
" />
<path d="M73791 73070
L73988 73070
" />
<path d="M74072 73380
L73791 73380
L73791 72789
L74072 72789
" />
<path d="M74185 73436
L74635 73436
" />
<path d="M74691 72789
L75028 72789
" />
<path d="M74860 73380
L74860 72789
" />
<path d="M75563 73380
L75366 73099
" />
<path d="M75225 73380
L75225 72789
L75450 72789
L75507 72817
L75535 72845
L75563 72902
L75563 72986
L75535 73042
L75507 73070
L75450 73099
L75225 73099
" />
<path d="M75788 73211
L76069 73211
" />
<path d="M75732 73380
L75928 72789
L76125 73380
" />
<path d="M76322 73380
L76322 72789
L76660 73380
L76660 72789
" />
<path d="M76800 73436
L77250 73436
" />
<path d="M77363 73211
L77644 73211
" />
<path d="M77306 73380
L77503 72789
L77700 73380
" />
<path d="M77897 73380
L77897 72789
L78094 73211
L78291 72789
L78291 73380
" />
<path d="M78572 73380
L78572 72789
L78797 72789
L78853 72817
L78881 72845
L78909 72902
L78909 72986
L78881 73042
L78853 73070
L78797 73099
L78572 73099
" />
<path d="M79162 73323
L79190 73352
L79162 73380
L79134 73352
L79162 73323
L79162 73380
" />
<path d="M79444 73380
L79444 72789
" />
<path d="M79500 73155
L79669 73380
" />
<path d="M79669 72986
L79444 73211
" />
<path d="M79922 73380
L79922 72986
" />
<path d="M79922 72789
L79894 72817
L79922 72845
L79950 72817
L79922 72789
L79922 72845
" />
<path d="M80456 73352
L80400 73380
L80287 73380
L80231 73352
L80203 73323
L80175 73267
L80175 73099
L80203 73042
L80231 73014
L80287 72986
L80400 72986
L80456 73014
" />
<path d="M80962 73380
L80962 73070
L80934 73014
L80878 72986
L80765 72986
L80709 73014
" />
<path d="M80962 73352
L80906 73380
L80765 73380
L80709 73352
L80681 73295
L80681 73239
L80709 73183
L80765 73155
L80906 73155
L80962 73127
" />
<path d="M81496 73380
L81496 72789
" />
<path d="M81496 73352
L81440 73380
L81328 73380
L81271 73352
L81243 73323
L81215 73267
L81215 73099
L81243 73042
L81271 73014
L81328 72986
L81440 72986
L81496 73014
" />
<path d="M81637 73436
L82087 73436
" />
<path d="M82228 72986
L82228 73577
" />
<path d="M82228 73014
L82284 72986
L82396 72986
L82453 73014
L82481 73042
L82509 73099
L82509 73267
L82481 73323
L82453 73352
L82396 73380
L82284 73380
L82228 73352
" />
<path d="M83015 73352
L82959 73380
L82846 73380
L82790 73352
L82762 73323
L82734 73267
L82734 73099
L82762 73042
L82790 73014
L82846 72986
L82959 72986
L83015 73014
" />
<path d="M83268 73380
L83268 72789
" />
<path d="M83268 73014
L83324 72986
L83437 72986
L83493 73014
L83521 73042
L83549 73099
L83549 73267
L83521 73323
L83493 73352
L83437 73380
L83324 73380
L83268 73352
" />
</g>
<g style="fill:#000000; fill-opacity:0.0; 
stroke:#000000; stroke-width:39.3701; stroke-opacity:1; 
stroke-linecap:round; stroke-linejoin:round;">
</g>
<g style="fill:#000000; fill-opacity:0.0; 
stroke:#000000; stroke-width:59.0551; stroke-opacity:1; 
stroke-linecap:round; stroke-linejoin:round;">
<path d="M69685 71459
L112205 71459
" />
</g>
<g style="fill:#000000; fill-opacity:0.0; 
stroke:#000000; stroke-width:39.3701; stroke-opacity:1; 
stroke-linecap:round; stroke-linejoin:round;">
</g>
<g style="fill:#000000; fill-opacity:0.0; 
stroke:#000000; stroke-width:59.0551; stroke-opacity:1; 
stroke-linecap:round; stroke-linejoin:round;">
<path d="M70192 72289
L70276 72317
L70417 72317
L70473 72289
L70501 72260
L70529 72204
L70529 72148
L70501 72092
L70473 72064
L70417 72036
L70304 72007
L70248 71979
L70220 71951
L70192 71895
L70192 71839
L70220 71782
L70248 71754
L70304 71726
L70445 71726
L70529 71754
" />
<path d="M70782 72317
L70782 71726
" />
<path d="M71035 72317
L71035 72007
L71007 71951
L70951 71923
L70867 71923
L70810 71951
L70782 71979
" />
<path d="M71541 72289
L71485 72317
L71373 72317
L71316 72289
L71288 72232
L71288 72007
L71316 71951
L71373 71923
L71485 71923
L71541 71951
L71570 72007
L71570 72064
L71288 72120
" />
<path d="M72048 72289
L71991 72317
L71879 72317
L71823 72289
L71795 72232
L71795 72007
L71823 71951
L71879 71923
L71991 71923
L72048 71951
L72076 72007
L72076 72064
L71795 72120
" />
<path d="M72244 71923
L72469 71923
" />
<path d="M72329 71726
L72329 72232
L72357 72289
L72413 72317
L72469 72317
" />
<path d="M72666 72260
L72694 72289
L72666 72317
L72638 72289
L72666 72260
L72666 72317
" />
<path d="M72666 71951
L72694 71979
L72666 72007
L72638 71979
L72666 71951
L72666 72007
" />
</g>
<g style="fill:#000000; fill-opacity:0.0; 
stroke:#000000; stroke-width:39.3701; stroke-opacity:1; 
stroke-linecap:round; stroke-linejoin:round;">
</g>
<g style="fill:#000000; fill-opacity:0.0; 
stroke:#000000; stroke-width:59.0551; stroke-opacity:1; 
stroke-linecap:round; stroke-linejoin:round;">
<path d="M77559 75396
L77559 76577
" />
</g>
<g style="fill:#000000; fill-opacity:0.0; 
stroke:#000000; stroke-width:39.3701; stroke-opacity:1; 
stroke-linecap:round; stroke-linejoin:round;">
</g>
<g style="fill:#000000; fill-opacity:0.0; 
stroke:#000000; stroke-width:59.0551; stroke-opacity:1; 
stroke-linecap:round; stroke-linejoin:round;">
<path d="M102756 75396
L102756 77955
" />
</g>
<g style="fill:#008484; fill-opacity:0.0; 
stroke:#008484; stroke-width:59.0551; stroke-opacity:1; 
stroke-linecap:round; stroke-linejoin:round;">
<path d="M47647 43305
L47647 43174
" />
<path d="M47853 43118
L47853 43305
L47459 43305
L47459 43118
" />
<path d="M47853 42949
L47590 42949
" />
<path d="M47665 42949
L47628 42931
L47609 42912
L47590 42874
L47590 42837
" />
<path d="M47590 42706
L47853 42706
" />
<path d="M47628 42706
L47609 42687
L47590 42649
L47590 42593
L47609 42556
L47647 42537
L47853 42537
" />
<path d="M47834 42199
L47853 42237
L47853 42312
L47834 42349
L47797 42368
L47647 42368
L47609 42349
L47590 42312
L47590 42237
L47609 42199
L47647 42181
L47684 42181
L47722 42368
" />
<path d="M47834 42031
L47853 41993
L47853 41918
L47834 41881
L47797 41862
L47778 41862
L47740 41881
L47722 41918
L47722 41974
L47703 42012
L47665 42031
L47647 42031
L47609 42012
L47590 41974
L47590 41918
L47609 41881
" />
<path d="M47590 41749
L47590 41599
" />
<path d="M47459 41693
L47797 41693
L47834 41674
L47853 41637
L47853 41599
" />
<path d="M47834 41487
L47853 41449
L47853 41374
L47834 41337
L47797 41318
L47778 41318
L47740 41337
L47722 41374
L47722 41431
L47703 41468
L47665 41487
L47647 41487
L47609 41468
L47590 41431
L47590 41374
L47609 41337
" />
<path d="M47647 40718
L47665 40662
L47684 40643
L47722 40625
L47778 40625
L47815 40643
L47834 40662
L47853 40700
L47853 40850
L47459 40850
L47459 40718
L47478 40681
L47497 40662
L47534 40643
L47572 40643
L47609 40662
L47628 40681
L47647 40718
L47647 40850
" />
<path d="M47853 40456
L47590 40456
" />
<path d="M47665 40456
L47628 40437
L47609 40418
L47590 40381
L47590 40343
" />
<path d="M47834 40062
L47853 40100
L47853 40175
L47834 40212
L47797 40231
L47647 40231
L47609 40212
L47590 40175
L47590 40100
L47609 40062
L47647 40043
L47684 40043
L47722 40231
" />
<path d="M47853 39706
L47459 39706
" />
<path d="M47834 39706
L47853 39743
L47853 39818
L47834 39856
L47815 39875
L47778 39893
L47665 39893
L47628 39875
L47609 39856
L47590 39818
L47590 39743
L47609 39706
" />
<path d="M47853 39518
L47590 39518
" />
<path d="M47459 39518
L47478 39537
L47497 39518
L47478 39500
L47459 39518
L47497 39518
" />
<path d="M47853 39331
L47459 39331
" />
<path d="M47703 39293
L47853 39181
" />
<path d="M47590 39181
L47740 39331
" />
<path d="M47853 39012
L47590 39012
" />
<path d="M47459 39012
L47478 39031
L47497 39012
L47478 38994
L47459 39012
L47497 39012
" />
<path d="M47834 38844
L47853 38806
L47853 38731
L47834 38694
L47797 38675
L47778 38675
L47740 38694
L47722 38731
L47722 38787
L47703 38825
L47665 38844
L47647 38844
L47609 38825
L47590 38787
L47590 38731
L47609 38694
" />
<path d="M48146 41674
L48127 41656
L48109 41618
L48109 41524
L48127 41487
L48146 41468
L48184 41449
L48221 41449
L48277 41468
L48502 41693
L48502 41449
" />
<path d="M48109 41206
L48109 41168
L48127 41131
L48146 41112
L48184 41093
L48259 41074
L48352 41074
L48427 41093
L48465 41112
L48484 41131
L48502 41168
L48502 41206
L48484 41243
L48465 41262
L48427 41281
L48352 41299
L48259 41299
L48184 41281
L48146 41262
L48127 41243
L48109 41206
" />
<path d="M48502 40700
L48502 40925
" />
<path d="M48502 40812
L48109 40812
L48165 40850
L48202 40887
L48221 40925
" />
<path d="M48277 40475
L48259 40512
L48240 40531
L48202 40550
L48184 40550
L48146 40531
L48127 40512
L48109 40475
L48109 40400
L48127 40362
L48146 40343
L48184 40325
L48202 40325
L48240 40343
L48259 40362
L48277 40400
L48277 40475
L48296 40512
L48315 40531
L48352 40550
L48427 40550
L48465 40531
L48484 40512
L48502 40475
L48502 40400
L48484 40362
L48465 40343
L48427 40325
L48352 40325
L48315 40343
L48296 40362
L48277 40400
" />
</g>
<g style="fill:#C2C200; fill-opacity:0.0; 
stroke:#C2C200; stroke-width:59.0551; stroke-opacity:1; 
stroke-linecap:round; stroke-linejoin:round;">
<path d="M47000 46000 A1500 1500 0.0 0 0 48500 47500 " />
<path d="M66000 47500 A1500 1500 0.0 0 0 67500 46000 " />
<path d="M67500 37000 A1500 1500 0.0 0 0 66000 35500 " />
<path d="M48500 35500 A1500 1500 0.0 0 0 47000 37000 " />
<path d="M47000 46000
L47000 37000
" />
<path d="M66000 47500
L48500 47500
" />
<path d="M67500 37000
L67500 46000
" />
<path d="M48500 35500
L66000 35500
" />
<path d="M57945 38565
L57758 38696
" />
<path d="M57945 38790
L57552 38790
L57552 38640
L57570 38603
L57589 38584
L57627 38565
L57683 38565
L57720 38584
L57739 38603
L57758 38640
L57758 38790
" />
<path d="M57945 38190
L57945 38415
" />
<path d="M57945 38303
L57552 38303
L57608 38340
L57645 38378
L57664 38415
" />
<path d="M50450 36156
L50431 36175
L50375 36193
L50337 36193
L50281 36175
L50243 36137
L50225 36100
L50206 36025
L50206 35968
L50225 35893
L50243 35856
L50281 35818
L50337 35800
L50375 35800
L50431 35818
L50450 35837
" />
<path d="M50825 36193
L50600 36193
" />
<path d="M50712 36193
L50712 35800
L50675 35856
L50637 35893
L50600 35912
" />
<path d="M56962 40314
L56925 40295
L56887 40257
L56831 40201
L56793 40182
L56756 40182
" />
<path d="M56775 40276
L56737 40257
L56700 40220
L56681 40145
L56681 40014
L56700 39939
L56737 39901
L56775 39882
L56850 39882
L56887 39901
L56925 39939
L56943 40014
L56943 40145
L56925 40220
L56887 40257
L56850 40276
L56775 40276
" />
<path d="M57318 40276
L57093 40276
" />
<path d="M57206 40276
L57206 39882
L57168 39939
L57131 39976
L57093 39995
" />
<path d="M54950 36156
L54931 36175
L54875 36193
L54837 36193
L54781 36175
L54743 36137
L54725 36100
L54706 36025
L54706 35968
L54725 35893
L54743 35856
L54781 35818
L54837 35800
L54875 35800
L54931 35818
L54950 35837
" />
<path d="M55100 35837
L55118 35818
L55156 35800
L55250 35800
L55287 35818
L55306 35837
L55325 35875
L55325 35912
L55306 35968
L55081 36193
L55325 36193
" />
<path d="M66536 37375
L66817 37375
L66873 37394
L66911 37431
L66930 37487
L66930 37525
" />
<path d="M66536 37225
L66536 36981
L66686 37112
L66686 37056
L66705 37019
L66723 37000
L66761 36981
L66855 36981
L66892 37000
L66911 37019
L66930 37056
L66930 37169
L66911 37206
L66892 37225
" />
<path d="M55418 42156
L55399 42175
L55343 42193
L55306 42193
L55249 42175
L55212 42137
L55193 42100
L55174 42025
L55174 41968
L55193 41893
L55212 41856
L55249 41818
L55306 41800
L55343 41800
L55399 41818
L55418 41837
" />
<path d="M55549 41800
L55793 41800
L55662 41950
L55718 41950
L55756 41968
L55774 41987
L55793 42025
L55793 42118
L55774 42156
L55756 42175
L55718 42193
L55606 42193
L55568 42175
L55549 42156
" />
<path d="M47532 46387
L47813 46387
L47869 46405
L47907 46443
L47926 46499
L47926 46537
" />
<path d="M47926 45993
L47926 46218
" />
<path d="M47926 46105
L47532 46105
L47588 46143
L47626 46180
L47644 46218
" />
<path d="M66536 42375
L66817 42375
L66873 42394
L66911 42431
L66930 42487
L66930 42525
" />
<path d="M66573 42206
L66555 42187
L66536 42150
L66536 42056
L66555 42019
L66573 42000
L66611 41981
L66648 41981
L66705 42000
L66930 42225
L66930 41981
" />
<path d="M59445 38565
L59258 38696
" />
<path d="M59445 38790
L59052 38790
L59052 38640
L59070 38603
L59089 38584
L59127 38565
L59183 38565
L59220 38584
L59239 38603
L59258 38640
L59258 38790
" />
<path d="M59089 38415
L59070 38396
L59052 38359
L59052 38265
L59070 38228
L59089 38209
L59127 38190
L59164 38190
L59220 38209
L59445 38434
L59445 38190
" />
<path d="M59410 43065
L59222 43196
" />
<path d="M59410 43290
L59016 43290
L59016 43140
L59035 43103
L59054 43084
L59091 43065
L59147 43065
L59185 43084
L59204 43103
L59222 43140
L59222 43290
" />
<path d="M59016 42934
L59016 42690
L59166 42821
L59166 42765
L59185 42728
L59204 42709
L59241 42690
L59335 42690
L59372 42709
L59391 42728
L59410 42765
L59410 42878
L59391 42915
L59372 42934
" />
<path d="M60910 43065
L60722 43196
" />
<path d="M60910 43290
L60516 43290
L60516 43140
L60535 43103
L60554 43084
L60591 43065
L60647 43065
L60685 43084
L60704 43103
L60722 43140
L60722 43290
" />
<path d="M60647 42728
L60910 42728
" />
<path d="M60497 42821
L60779 42915
L60779 42671
" />
</g>
<g style="fill:#008484; fill-opacity:0.0; 
stroke:#008484; stroke-width:59.0551; stroke-opacity:1; 
stroke-linecap:round; stroke-linejoin:round;">
</g>
<g style="fill:#008484; fill-opacity:0.0; 
stroke:#008484; stroke-width:47.2441; stroke-opacity:1; 
stroke-linecap:round; stroke-linejoin:round;">
<path d="M58161 39232
L58838 39232
" />
<path d="M58838 39232
L58838 37767
" />
<path d="M58838 37767
L58161 37767
" />
<path d="M58161 37767
L58161 39232
" />
<path d="M58500 39653
L58500 39232
" />
<path d="M58500 37346
L58500 37767
" />
<path d="M52444.3 37955.4 A2003.94 2003.94 0.0 0 0 48586.9 37956.7 " />
<path d="M48586.9 39043.3 A2003.94 2003.94 0.0 0 0 52444.3 39044.6 " />
<path d="M52444.3 39044.6 A2003.94 2003.94 0.0 0 0 52444.6 37956.7 " />
<path d="M50515 36511
L50515 40488
" />
<path d="M50531 36511
L50531 40488
" />
<path d="M50547 36511
L50547 40488
" />
<path d="M50562 36512
L50562 40487
" />
<path d="M50578 36512
L50578 40487
" />
<path d="M50594 36512
L50594 40487
" />
<path d="M50610 36513
L50610 40486
" />
<path d="M50625 36514
L50625 40485
" />
<path d="M50641 36515
L50641 40484
" />
<path d="M50657 36516
L50657 40483
" />
<path d="M50673 36517
L50673 40482
" />
<path d="M50688 36519
L50688 40480
" />
<path d="M50704 36520
L50704 40479
" />
<path d="M50720 36522
L50720 40477
" />
<path d="M50736 36523
L50736 40476
" />
<path d="M50751 36525
L50751 40474
" />
<path d="M50767 36527
L50767 40472
" />
<path d="M50783 36529
L50783 40470
" />
<path d="M50799 36531
L50799 40468
" />
<path d="M50815 36534
L50815 40465
" />
<path d="M50831 36536
L50831 40463
" />
<path d="M50846 36538
L50846 40461
" />
<path d="M50862 36541
L50862 40458
" />
<path d="M50878 36544
L50878 40455
" />
<path d="M50894 36547
L50894 40452
" />
<path d="M50909 36550
L50909 40449
" />
<path d="M50925 36553
L50925 40446
" />
<path d="M50941 36557
L50941 40442
" />
<path d="M50957 36560
L50957 40439
" />
<path d="M50972 36564
L50972 40435
" />
<path d="M50988 36568
L50988 40431
" />
<path d="M51004 36572
L51004 40427
" />
<path d="M51020 36575
L51020 40424
" />
<path d="M51035 36580
L51035 38035
" />
<path d="M51035 38964
L51035 40419
" />
<path d="M51051 36584
L51051 38035
" />
<path d="M51051 38964
L51051 40415
" />
<path d="M51067 36588
L51067 38035
" />
<path d="M51067 38964
L51067 40411
" />
<path d="M51083 36593
L51083 38035
" />
<path d="M51083 38964
L51083 40406
" />
<path d="M51098 36598
L51098 38035
" />
<path d="M51098 38964
L51098 40401
" />
<path d="M51114 36603
L51114 38035
" />
<path d="M51114 38964
L51114 40396
" />
<path d="M51130 36607
L51130 38035
" />
<path d="M51130 38964
L51130 40392
" />
<path d="M51146 36613
L51146 38035
" />
<path d="M51146 38964
L51146 40386
" />
<path d="M51161 36618
L51161 38035
" />
<path d="M51161 38964
L51161 40381
" />
<path d="M51177 36624
L51177 38035
" />
<path d="M51177 38964
L51177 40375
" />
<path d="M51193 36629
L51193 38035
" />
<path d="M51193 38964
L51193 40370
" />
<path d="M51209 36635
L51209 38035
" />
<path d="M51209 38964
L51209 40364
" />
<path d="M51224 36640
L51224 38035
" />
<path d="M51224 38964
L51224 40359
" />
<path d="M51240 36647
L51240 38035
" />
<path d="M51240 38964
L51240 40352
" />
<path d="M51256 36653
L51256 38035
" />
<path d="M51256 38964
L51256 40346
" />
<path d="M51272 36659
L51272 38035
" />
<path d="M51272 38964
L51272 40340
" />
<path d="M51287 36666
L51287 38035
" />
<path d="M51287 38964
L51287 40333
" />
<path d="M51303 36672
L51303 38035
" />
<path d="M51303 38964
L51303 40327
" />
<path d="M51319 36679
L51319 38035
" />
<path d="M51319 38964
L51319 40320
" />
<path d="M51335 36686
L51335 38035
" />
<path d="M51335 38964
L51335 40313
" />
<path d="M51350 36693
L51350 38035
" />
<path d="M51350 38964
L51350 40306
" />
<path d="M51366 36701
L51366 38035
" />
<path d="M51366 38964
L51366 40298
" />
<path d="M51382 36708
L51382 38035
" />
<path d="M51382 38964
L51382 40291
" />
<path d="M51398 36716
L51398 38035
" />
<path d="M51398 38964
L51398 40283
" />
<path d="M51413 36724
L51413 38035
" />
<path d="M51413 38964
L51413 40275
" />
<path d="M51429 36731
L51429 38035
" />
<path d="M51429 38964
L51429 40268
" />
<path d="M51445 36740
L51445 38035
" />
<path d="M51445 38964
L51445 40259
" />
<path d="M51461 36748
L51461 38035
" />
<path d="M51461 38964
L51461 40251
" />
<path d="M51476 36756
L51476 38035
" />
<path d="M51476 38964
L51476 40243
" />
<path d="M51492 36765
L51492 38035
" />
<path d="M51492 38964
L51492 40234
" />
<path d="M51508 36774
L51508 38035
" />
<path d="M51508 38964
L51508 40225
" />
<path d="M51524 36783
L51524 38035
" />
<path d="M51524 38964
L51524 40216
" />
<path d="M51539 36792
L51539 38035
" />
<path d="M51539 38964
L51539 40207
" />
<path d="M51555 36802
L51555 38035
" />
<path d="M51555 38964
L51555 40197
" />
<path d="M51571 36811
L51571 38035
" />
<path d="M51571 38964
L51571 40188
" />
<path d="M51587 36821
L51587 38035
" />
<path d="M51587 38964
L51587 40178
" />
<path d="M51602 36831
L51602 38035
" />
<path d="M51602 38964
L51602 40168
" />
<path d="M51618 36842
L51618 38035
" />
<path d="M51618 38964
L51618 40157
" />
<path d="M51634 36852
L51634 38035
" />
<path d="M51634 38964
L51634 40147
" />
<path d="M51650 36863
L51650 38035
" />
<path d="M51650 38964
L51650 40136
" />
<path d="M51665 36874
L51665 38035
" />
<path d="M51665 38964
L51665 40125
" />
<path d="M51681 36885
L51681 38035
" />
<path d="M51681 38964
L51681 40114
" />
<path d="M51697 36896
L51697 38035
" />
<path d="M51697 38964
L51697 40103
" />
<path d="M51712 36908
L51712 38035
" />
<path d="M51712 38964
L51712 40091
" />
<path d="M51728 36920
L51728 38035
" />
<path d="M51728 38964
L51728 40079
" />
<path d="M51744 36932
L51744 38035
" />
<path d="M51744 38964
L51744 40067
" />
<path d="M51760 36944
L51760 38035
" />
<path d="M51760 38964
L51760 40055
" />
<path d="M51775 36957
L51775 38035
" />
<path d="M51775 38964
L51775 40042
" />
<path d="M51791 36970
L51791 38035
" />
<path d="M51791 38964
L51791 40029
" />
<path d="M51807 36983
L51807 38035
" />
<path d="M51807 38964
L51807 40016
" />
<path d="M51823 36996
L51823 38035
" />
<path d="M51823 38964
L51823 40003
" />
<path d="M51838 37010
L51838 38035
" />
<path d="M51838 38964
L51838 39989
" />
<path d="M51854 37024
L51854 38035
" />
<path d="M51854 38964
L51854 39975
" />
<path d="M51870 37038
L51870 38035
" />
<path d="M51870 38964
L51870 39961
" />
<path d="M51886 37053
L51886 38035
" />
<path d="M51886 38964
L51886 39946
" />
<path d="M51901 37068
L51901 38035
" />
<path d="M51901 38964
L51901 39931
" />
<path d="M51917 37083
L51917 38035
" />
<path d="M51917 38964
L51917 39916
" />
<path d="M51933 37098
L51933 38035
" />
<path d="M51933 38964
L51933 39901
" />
<path d="M51949 37114
L51949 38035
" />
<path d="M51949 38964
L51949 39885
" />
<path d="M51964 37131
L51964 39868
" />
<path d="M51980 37147
L51980 39852
" />
<path d="M51996 37164
L51996 39835
" />
<path d="M52012 37182
L52012 39817
" />
<path d="M52027 37200
L52027 39800
" />
<path d="M52043 37218
L52043 39781
" />
<path d="M52059 37237
L52059 39762
" />
<path d="M52075 37256
L52075 39743
" />
<path d="M52090 37276
L52090 39723
" />
<path d="M52106 37296
L52106 39703
" />
<path d="M52122 37317
L52122 39682
" />
<path d="M52138 37338
L52138 39661
" />
<path d="M52153 37360
L52153 39639
" />
<path d="M52169 37383
L52169 39616
" />
<path d="M52185 37406
L52185 39593
" />
<path d="M52201 37431
L52201 39568
" />
<path d="M52216 37455
L52216 39544
" />
<path d="M52232 37481
L52232 39518
" />
<path d="M52248 37508
L52248 39491
" />
<path d="M52264 37535
L52264 39464
" />
<path d="M52279 37564
L52279 39435
" />
<path d="M52295 37594
L52295 39405
" />
<path d="M52311 37625
L52311 39374
" />
<path d="M52327 37657
L52327 39342
" />
<path d="M52342 37691
L52342 39308
" />
<path d="M52358 37727
L52358 39272
" />
<path d="M52374 37765
L52374 39234
" />
<path d="M52390 37805
L52390 39194
" />
<path d="M52405 37848
L52405 39151
" />
<path d="M52421 37895
L52421 39104
" />
<path d="M52437 37946
L52437 39053
" />
<path d="M52453 38001
L52453 38998
" />
<path d="M52468 38065
L52468 38934
" />
<path d="M52484 38140
L52484 38859
" />
<path d="M52500 38235
L52500 38764
" />
<path d="M52516 38390
L52516 38609
" />
<path d="M48468 38500
L49059 38500
" />
<path d="M48763 38204
L48763 38795
" />
<path d="M56291 42228
L57708 42228
" />
<path d="M57000 40476.4 A1023.62 1023.62 0.0 0 0 56276.2 42223.8 " />
<path d="M57723.8 42223.8 A1023.62 1023.62 0.0 0 0 57000 40476.4 " />
<path d="M56944.3 37955.4 A2003.94 2003.94 0.0 0 0 53086.9 37956.7 " />
<path d="M53086.9 39043.3 A2003.94 2003.94 0.0 0 0 56944.3 39044.6 " />
<path d="M56944.3 39044.6 A2003.94 2003.94 0.0 0 0 56944.6 37956.7 " />
<path d="M55015 36511
L55015 40488
" />
<path d="M55031 36511
L55031 40488
" />
<path d="M55047 36511
L55047 40488
" />
<path d="M55062 36512
L55062 40487
" />
<path d="M55078 36512
L55078 40487
" />
<path d="M55094 36512
L55094 40487
" />
<path d="M55110 36513
L55110 40486
" />
<path d="M55125 36514
L55125 40485
" />
<path d="M55141 36515
L55141 40484
" />
<path d="M55157 36516
L55157 40483
" />
<path d="M55173 36517
L55173 40482
" />
<path d="M55188 36519
L55188 40480
" />
<path d="M55204 36520
L55204 40479
" />
<path d="M55220 36522
L55220 40477
" />
<path d="M55236 36523
L55236 40476
" />
<path d="M55251 36525
L55251 40474
" />
<path d="M55267 36527
L55267 40472
" />
<path d="M55283 36529
L55283 40470
" />
<path d="M55299 36531
L55299 40468
" />
<path d="M55315 36534
L55315 40465
" />
<path d="M55331 36536
L55331 40463
" />
<path d="M55346 36538
L55346 40461
" />
<path d="M55362 36541
L55362 40458
" />
<path d="M55378 36544
L55378 40455
" />
<path d="M55394 36547
L55394 40452
" />
<path d="M55409 36550
L55409 40449
" />
<path d="M55425 36553
L55425 40446
" />
<path d="M55441 36557
L55441 40442
" />
<path d="M55457 36560
L55457 40439
" />
<path d="M55472 36564
L55472 40435
" />
<path d="M55488 36568
L55488 40431
" />
<path d="M55504 36572
L55504 40427
" />
<path d="M55520 36575
L55520 40424
" />
<path d="M55535 36580
L55535 38035
" />
<path d="M55535 38964
L55535 40419
" />
<path d="M55551 36584
L55551 38035
" />
<path d="M55551 38964
L55551 40415
" />
<path d="M55567 36588
L55567 38035
" />
<path d="M55567 38964
L55567 40411
" />
<path d="M55583 36593
L55583 38035
" />
<path d="M55583 38964
L55583 40406
" />
<path d="M55598 36598
L55598 38035
" />
<path d="M55598 38964
L55598 40401
" />
<path d="M55614 36603
L55614 38035
" />
<path d="M55614 38964
L55614 40396
" />
<path d="M55630 36607
L55630 38035
" />
<path d="M55630 38964
L55630 40392
" />
<path d="M55646 36613
L55646 38035
" />
<path d="M55646 38964
L55646 40386
" />
<path d="M55661 36618
L55661 38035
" />
<path d="M55661 38964
L55661 40381
" />
<path d="M55677 36624
L55677 38035
" />
<path d="M55677 38964
L55677 40375
" />
<path d="M55693 36629
L55693 38035
" />
<path d="M55693 38964
L55693 40370
" />
<path d="M55709 36635
L55709 38035
" />
<path d="M55709 38964
L55709 40364
" />
<path d="M55724 36640
L55724 38035
" />
<path d="M55724 38964
L55724 40359
" />
<path d="M55740 36647
L55740 38035
" />
<path d="M55740 38964
L55740 40352
" />
<path d="M55756 36653
L55756 38035
" />
<path d="M55756 38964
L55756 40346
" />
<path d="M55772 36659
L55772 38035
" />
<path d="M55772 38964
L55772 40340
" />
<path d="M55787 36666
L55787 38035
" />
<path d="M55787 38964
L55787 40333
" />
<path d="M55803 36672
L55803 38035
" />
<path d="M55803 38964
L55803 40327
" />
<path d="M55819 36679
L55819 38035
" />
<path d="M55819 38964
L55819 40320
" />
<path d="M55835 36686
L55835 38035
" />
<path d="M55835 38964
L55835 40313
" />
<path d="M55850 36693
L55850 38035
" />
<path d="M55850 38964
L55850 40306
" />
<path d="M55866 36701
L55866 38035
" />
<path d="M55866 38964
L55866 40298
" />
<path d="M55882 36708
L55882 38035
" />
<path d="M55882 38964
L55882 40291
" />
<path d="M55898 36716
L55898 38035
" />
<path d="M55898 38964
L55898 40283
" />
<path d="M55913 36724
L55913 38035
" />
<path d="M55913 38964
L55913 40275
" />
<path d="M55929 36731
L55929 38035
" />
<path d="M55929 38964
L55929 40268
" />
<path d="M55945 36740
L55945 38035
" />
<path d="M55945 38964
L55945 40259
" />
<path d="M55961 36748
L55961 38035
" />
<path d="M55961 38964
L55961 40251
" />
<path d="M55976 36756
L55976 38035
" />
<path d="M55976 38964
L55976 40243
" />
<path d="M55992 36765
L55992 38035
" />
<path d="M55992 38964
L55992 40234
" />
<path d="M56008 36774
L56008 38035
" />
<path d="M56008 38964
L56008 40225
" />
<path d="M56024 36783
L56024 38035
" />
<path d="M56024 38964
L56024 40216
" />
<path d="M56039 36792
L56039 38035
" />
<path d="M56039 38964
L56039 40207
" />
<path d="M56055 36802
L56055 38035
" />
<path d="M56055 38964
L56055 40197
" />
<path d="M56071 36811
L56071 38035
" />
<path d="M56071 38964
L56071 40188
" />
<path d="M56087 36821
L56087 38035
" />
<path d="M56087 38964
L56087 40178
" />
<path d="M56102 36831
L56102 38035
" />
<path d="M56102 38964
L56102 40168
" />
<path d="M56118 36842
L56118 38035
" />
<path d="M56118 38964
L56118 40157
" />
<path d="M56134 36852
L56134 38035
" />
<path d="M56134 38964
L56134 40147
" />
<path d="M56150 36863
L56150 38035
" />
<path d="M56150 38964
L56150 40136
" />
<path d="M56165 36874
L56165 38035
" />
<path d="M56165 38964
L56165 40125
" />
<path d="M56181 36885
L56181 38035
" />
<path d="M56181 38964
L56181 40114
" />
<path d="M56197 36896
L56197 38035
" />
<path d="M56197 38964
L56197 40103
" />
<path d="M56212 36908
L56212 38035
" />
<path d="M56212 38964
L56212 40091
" />
<path d="M56228 36920
L56228 38035
" />
<path d="M56228 38964
L56228 40079
" />
<path d="M56244 36932
L56244 38035
" />
<path d="M56244 38964
L56244 40067
" />
<path d="M56260 36944
L56260 38035
" />
<path d="M56260 38964
L56260 40055
" />
<path d="M56275 36957
L56275 38035
" />
<path d="M56275 38964
L56275 40042
" />
<path d="M56291 36970
L56291 38035
" />
<path d="M56291 38964
L56291 40029
" />
<path d="M56307 36983
L56307 38035
" />
<path d="M56307 38964
L56307 40016
" />
<path d="M56323 36996
L56323 38035
" />
<path d="M56323 38964
L56323 40003
" />
<path d="M56338 37010
L56338 38035
" />
<path d="M56338 38964
L56338 39989
" />
<path d="M56354 37024
L56354 38035
" />
<path d="M56354 38964
L56354 39975
" />
<path d="M56370 37038
L56370 38035
" />
<path d="M56370 38964
L56370 39961
" />
<path d="M56386 37053
L56386 38035
" />
<path d="M56386 38964
L56386 39946
" />
<path d="M56401 37068
L56401 38035
" />
<path d="M56401 38964
L56401 39931
" />
<path d="M56417 37083
L56417 38035
" />
<path d="M56417 38964
L56417 39916
" />
<path d="M56433 37098
L56433 38035
" />
<path d="M56433 38964
L56433 39901
" />
<path d="M56449 37114
L56449 38035
" />
<path d="M56449 38964
L56449 39885
" />
<path d="M56464 37131
L56464 39868
" />
<path d="M56480 37147
L56480 39852
" />
<path d="M56496 37164
L56496 39835
" />
<path d="M56512 37182
L56512 39817
" />
<path d="M56527 37200
L56527 39800
" />
<path d="M56543 37218
L56543 39781
" />
<path d="M56559 37237
L56559 39762
" />
<path d="M56575 37256
L56575 39743
" />
<path d="M56590 37276
L56590 39723
" />
<path d="M56606 37296
L56606 39703
" />
<path d="M56622 37317
L56622 39682
" />
<path d="M56638 37338
L56638 39661
" />
<path d="M56653 37360
L56653 39639
" />
<path d="M56669 37383
L56669 39616
" />
<path d="M56685 37406
L56685 39593
" />
<path d="M56701 37431
L56701 39568
" />
<path d="M56716 37455
L56716 39544
" />
<path d="M56732 37481
L56732 39518
" />
<path d="M56748 37508
L56748 39491
" />
<path d="M56764 37535
L56764 39464
" />
<path d="M56779 37564
L56779 39435
" />
<path d="M56795 37594
L56795 39405
" />
<path d="M56811 37625
L56811 39374
" />
<path d="M56827 37657
L56827 39342
" />
<path d="M56842 37691
L56842 39308
" />
<path d="M56858 37727
L56858 39272
" />
<path d="M56874 37765
L56874 39234
" />
<path d="M56890 37805
L56890 39194
" />
<path d="M56905 37848
L56905 39151
" />
<path d="M56921 37895
L56921 39104
" />
<path d="M56937 37946
L56937 39053
" />
<path d="M56953 38001
L56953 38998
" />
<path d="M56968 38065
L56968 38934
" />
<path d="M56984 38140
L56984 38859
" />
<path d="M57000 38235
L57000 38764
" />
<path d="M57016 38390
L57016 38609
" />
<path d="M52968 38500
L53559 38500
" />
<path d="M53263 38204
L53263 38795
" />
<path d="M66480 36956
L61519 36956
" />
<path d="M61519 36956
L61519 41031
" />
<path d="M61519 41031
L61893 41031
" />
<path d="M61893 41031
L61795 41228
" />
<path d="M61795 41228
L62543 41228
" />
<path d="M62543 41228
L62562 41228
" />
<path d="M62562 41228
L62464 41031
" />
<path d="M62464 41031
L64590 41031
" />
<path d="M64590 41031
L64472 41228
" />
<path d="M64472 41228
L66480 41228
" />
<path d="M66480 41228
L66480 36956
" />
<path d="M57412.8 43955.4 A2003.94 2003.94 0.0 0 0 53555.4 43956.7 " />
<path d="M53555.4 45043.3 A2003.94 2003.94 0.0 0 0 57412.8 45044.6 " />
<path d="M57412.8 45044.6 A2003.94 2003.94 0.0 0 0 57413.1 43956.7 " />
<path d="M55484 42511
L55484 46488
" />
<path d="M55500 42511
L55500 46488
" />
<path d="M55515 42511
L55515 46488
" />
<path d="M55531 42512
L55531 46487
" />
<path d="M55547 42512
L55547 46487
" />
<path d="M55562 42512
L55562 46487
" />
<path d="M55578 42513
L55578 46486
" />
<path d="M55594 42514
L55594 46485
" />
<path d="M55610 42515
L55610 46484
" />
<path d="M55625 42516
L55625 46483
" />
<path d="M55641 42517
L55641 46482
" />
<path d="M55657 42519
L55657 46480
" />
<path d="M55673 42520
L55673 46479
" />
<path d="M55688 42522
L55688 46477
" />
<path d="M55704 42523
L55704 46476
" />
<path d="M55720 42525
L55720 46474
" />
<path d="M55736 42527
L55736 46472
" />
<path d="M55751 42529
L55751 46470
" />
<path d="M55768 42531
L55768 46468
" />
<path d="M55783 42534
L55783 46465
" />
<path d="M55799 42536
L55799 46463
" />
<path d="M55815 42538
L55815 46461
" />
<path d="M55831 42541
L55831 46458
" />
<path d="M55846 42544
L55846 46455
" />
<path d="M55862 42547
L55862 46452
" />
<path d="M55878 42550
L55878 46449
" />
<path d="M55894 42553
L55894 46446
" />
<path d="M55909 42557
L55909 46442
" />
<path d="M55925 42560
L55925 46439
" />
<path d="M55941 42564
L55941 46435
" />
<path d="M55957 42568
L55957 46431
" />
<path d="M55972 42572
L55972 46427
" />
<path d="M55988 42575
L55988 46424
" />
<path d="M56004 42580
L56004 44035
" />
<path d="M56004 44964
L56004 46419
" />
<path d="M56020 42584
L56020 44035
" />
<path d="M56020 44964
L56020 46415
" />
<path d="M56035 42588
L56035 44035
" />
<path d="M56035 44964
L56035 46411
" />
<path d="M56051 42593
L56051 44035
" />
<path d="M56051 44964
L56051 46406
" />
<path d="M56067 42598
L56067 44035
" />
<path d="M56067 44964
L56067 46401
" />
<path d="M56083 42603
L56083 44035
" />
<path d="M56083 44964
L56083 46396
" />
<path d="M56098 42607
L56098 44035
" />
<path d="M56098 44964
L56098 46392
" />
<path d="M56114 42613
L56114 44035
" />
<path d="M56114 44964
L56114 46386
" />
<path d="M56130 42618
L56130 44035
" />
<path d="M56130 44964
L56130 46381
" />
<path d="M56146 42624
L56146 44035
" />
<path d="M56146 44964
L56146 46375
" />
<path d="M56161 42629
L56161 44035
" />
<path d="M56161 44964
L56161 46370
" />
<path d="M56177 42635
L56177 44035
" />
<path d="M56177 44964
L56177 46364
" />
<path d="M56193 42640
L56193 44035
" />
<path d="M56193 44964
L56193 46359
" />
<path d="M56209 42647
L56209 44035
" />
<path d="M56209 44964
L56209 46352
" />
<path d="M56224 42653
L56224 44035
" />
<path d="M56224 44964
L56224 46346
" />
<path d="M56240 42659
L56240 44035
" />
<path d="M56240 44964
L56240 46340
" />
<path d="M56256 42666
L56256 44035
" />
<path d="M56256 44964
L56256 46333
" />
<path d="M56272 42672
L56272 44035
" />
<path d="M56272 44964
L56272 46327
" />
<path d="M56287 42679
L56287 44035
" />
<path d="M56287 44964
L56287 46320
" />
<path d="M56303 42686
L56303 44035
" />
<path d="M56303 44964
L56303 46313
" />
<path d="M56319 42693
L56319 44035
" />
<path d="M56319 44964
L56319 46306
" />
<path d="M56335 42701
L56335 44035
" />
<path d="M56335 44964
L56335 46298
" />
<path d="M56350 42708
L56350 44035
" />
<path d="M56350 44964
L56350 46291
" />
<path d="M56366 42716
L56366 44035
" />
<path d="M56366 44964
L56366 46283
" />
<path d="M56382 42724
L56382 44035
" />
<path d="M56382 44964
L56382 46275
" />
<path d="M56398 42731
L56398 44035
" />
<path d="M56398 44964
L56398 46268
" />
<path d="M56413 42740
L56413 44035
" />
<path d="M56413 44964
L56413 46259
" />
<path d="M56429 42748
L56429 44035
" />
<path d="M56429 44964
L56429 46251
" />
<path d="M56445 42756
L56445 44035
" />
<path d="M56445 44964
L56445 46243
" />
<path d="M56461 42765
L56461 44035
" />
<path d="M56461 44964
L56461 46234
" />
<path d="M56476 42774
L56476 44035
" />
<path d="M56476 44964
L56476 46225
" />
<path d="M56492 42783
L56492 44035
" />
<path d="M56492 44964
L56492 46216
" />
<path d="M56508 42792
L56508 44035
" />
<path d="M56508 44964
L56508 46207
" />
<path d="M56524 42802
L56524 44035
" />
<path d="M56524 44964
L56524 46197
" />
<path d="M56539 42811
L56539 44035
" />
<path d="M56539 44964
L56539 46188
" />
<path d="M56555 42821
L56555 44035
" />
<path d="M56555 44964
L56555 46178
" />
<path d="M56571 42831
L56571 44035
" />
<path d="M56571 44964
L56571 46168
" />
<path d="M56587 42842
L56587 44035
" />
<path d="M56587 44964
L56587 46157
" />
<path d="M56602 42852
L56602 44035
" />
<path d="M56602 44964
L56602 46147
" />
<path d="M56618 42863
L56618 44035
" />
<path d="M56618 44964
L56618 46136
" />
<path d="M56634 42874
L56634 44035
" />
<path d="M56634 44964
L56634 46125
" />
<path d="M56650 42885
L56650 44035
" />
<path d="M56650 44964
L56650 46114
" />
<path d="M56665 42896
L56665 44035
" />
<path d="M56665 44964
L56665 46103
" />
<path d="M56681 42908
L56681 44035
" />
<path d="M56681 44964
L56681 46091
" />
<path d="M56697 42920
L56697 44035
" />
<path d="M56697 44964
L56697 46079
" />
<path d="M56712 42932
L56712 44035
" />
<path d="M56712 44964
L56712 46067
" />
<path d="M56728 42944
L56728 44035
" />
<path d="M56728 44964
L56728 46055
" />
<path d="M56744 42957
L56744 44035
" />
<path d="M56744 44964
L56744 46042
" />
<path d="M56760 42970
L56760 44035
" />
<path d="M56760 44964
L56760 46029
" />
<path d="M56775 42983
L56775 44035
" />
<path d="M56775 44964
L56775 46016
" />
<path d="M56791 42996
L56791 44035
" />
<path d="M56791 44964
L56791 46003
" />
<path d="M56807 43010
L56807 44035
" />
<path d="M56807 44964
L56807 45989
" />
<path d="M56823 43024
L56823 44035
" />
<path d="M56823 44964
L56823 45975
" />
<path d="M56838 43038
L56838 44035
" />
<path d="M56838 44964
L56838 45961
" />
<path d="M56854 43053
L56854 44035
" />
<path d="M56854 44964
L56854 45946
" />
<path d="M56870 43068
L56870 44035
" />
<path d="M56870 44964
L56870 45931
" />
<path d="M56886 43083
L56886 44035
" />
<path d="M56886 44964
L56886 45916
" />
<path d="M56901 43098
L56901 44035
" />
<path d="M56901 44964
L56901 45901
" />
<path d="M56917 43114
L56917 44035
" />
<path d="M56917 44964
L56917 45885
" />
<path d="M56933 43131
L56933 45868
" />
<path d="M56949 43147
L56949 45852
" />
<path d="M56964 43164
L56964 45835
" />
<path d="M56980 43182
L56980 45817
" />
<path d="M56996 43200
L56996 45800
" />
<path d="M57012 43218
L57012 45781
" />
<path d="M57027 43237
L57027 45762
" />
<path d="M57043 43256
L57043 45743
" />
<path d="M57059 43276
L57059 45723
" />
<path d="M57075 43296
L57075 45703
" />
<path d="M57090 43317
L57090 45682
" />
<path d="M57106 43338
L57106 45661
" />
<path d="M57122 43360
L57122 45639
" />
<path d="M57138 43383
L57138 45616
" />
<path d="M57153 43406
L57153 45593
" />
<path d="M57169 43431
L57169 45568
" />
<path d="M57185 43455
L57185 45544
" />
<path d="M57201 43481
L57201 45518
" />
<path d="M57216 43508
L57216 45491
" />
<path d="M57232 43535
L57232 45464
" />
<path d="M57248 43564
L57248 45435
" />
<path d="M57264 43594
L57264 45405
" />
<path d="M57279 43625
L57279 45374
" />
<path d="M57295 43657
L57295 45342
" />
<path d="M57311 43691
L57311 45308
" />
<path d="M57327 43727
L57327 45272
" />
<path d="M57342 43765
L57342 45234
" />
<path d="M57358 43805
L57358 45194
" />
<path d="M57374 43848
L57374 45151
" />
<path d="M57390 43895
L57390 45104
" />
<path d="M57405 43946
L57405 45053
" />
<path d="M57421 44001
L57421 44998
" />
<path d="M57437 44065
L57437 44934
" />
<path d="M57453 44140
L57453 44859
" />
<path d="M57468 44235
L57468 44764
" />
<path d="M57484 44390
L57484 44609
" />
<path d="M53437 44500
L54027 44500
" />
<path d="M53732 44204
L53732 44795
" />
<path d="M48019 46543
L52980 46543
" />
<path d="M52980 46543
L52980 42468
" />
<path d="M52980 42468
L52606 42468
" />
<path d="M52606 42468
L52704 42271
" />
<path d="M52704 42271
L51956 42271
" />
<path d="M51956 42271
L51937 42271
" />
<path d="M51937 42271
L52035 42468
" />
<path d="M52035 42468
L49909 42468
" />
<path d="M49909 42468
L50027 42271
" />
<path d="M50027 42271
L48019 42271
" />
<path d="M48019 42271
L48019 46543
" />
<path d="M66480 41956
L61519 41956
" />
<path d="M61519 41956
L61519 46031
" />
<path d="M61519 46031
L61893 46031
" />
<path d="M61893 46031
L61795 46228
" />
<path d="M61795 46228
L62543 46228
" />
<path d="M62543 46228
L62562 46228
" />
<path d="M62562 46228
L62464 46031
" />
<path d="M62464 46031
L64590 46031
" />
<path d="M64590 46031
L64472 46228
" />
<path d="M64472 46228
L66480 46228
" />
<path d="M66480 46228
L66480 41956
" />
<path d="M59661 39232
L60338 39232
" />
<path d="M60338 39232
L60338 37767
" />
<path d="M60338 37767
L59661 37767
" />
<path d="M59661 37767
L59661 39232
" />
<path d="M60000 39653
L60000 39232
" />
<path d="M60000 37346
L60000 37767
" />
<path d="M58838 42267
L58161 42267
" />
<path d="M58161 42267
L58161 43732
" />
<path d="M58161 43732
L58838 43732
" />
<path d="M58838 43732
L58838 42267
" />
<path d="M58500 41846
L58500 42267
" />
<path d="M58500 44153
L58500 43732
" />
<path d="M60338 42267
L59661 42267
" />
<path d="M59661 42267
L59661 43732
" />
<path d="M59661 43732
L60338 43732
" />
<path d="M60338 43732
L60338 42267
" />
<path d="M60000 41846
L60000 42267
" />
<path d="M60000 44153
L60000 43732
" />
</g> 
</svg>
