M48
;DRILL file {KiCad 4.0.7} date 05/06/18 08:42:41
;FORMAT={-:-/ absolute / metric / decimal}
FMAT,2
METRIC,TZ
T1C0.600
T2C0.700
T3C1.000
T4C1.320
%
G90
G05
M71
T1
X143.51Y-105.41
X144.78Y-104.14
X146.05Y-105.41
T2
X148.59Y-93.98
X148.59Y-101.6
X148.59Y-105.41
X148.59Y-113.03
X152.4Y-93.98
X152.4Y-101.6
X152.4Y-105.41
X152.4Y-113.03
T3
X125.81Y-97.79
X130.81Y-97.79
X137.24Y-97.79
X138.43Y-113.03
X142.24Y-97.79
X143.43Y-113.03
T4
X128.27Y-110.57
X128.27Y-115.57
X162.56Y-96.52
X162.56Y-101.52
X162.56Y-109.22
X162.56Y-114.22
T0
M30
