G04 #@! TF.FileFunction,Legend,Top*
%FSLAX46Y46*%
G04 Gerber Fmt 4.6, Leading zero omitted, Abs format (unit mm)*
G04 Created by KiCad (PCBNEW 4.0.7) date 05/06/18 08:41:46*
%MOMM*%
%LPD*%
G01*
G04 APERTURE LIST*
%ADD10C,0.100000*%
%ADD11C,0.150000*%
%ADD12C,0.120000*%
%ADD13C,1.800000*%
%ADD14O,1.800000X1.800000*%
%ADD15R,2.400000X2.400000*%
%ADD16C,2.400000*%
%ADD17C,1.400000*%
%ADD18R,1.400000X1.400000*%
%ADD19R,4.360000X2.380000*%
%ADD20O,4.360000X2.380000*%
G04 APERTURE END LIST*
D10*
D11*
X121023571Y-109997144D02*
X121023571Y-109663810D01*
X121547381Y-109520953D02*
X121547381Y-109997144D01*
X120547381Y-109997144D01*
X120547381Y-109520953D01*
X121547381Y-109092382D02*
X120880714Y-109092382D01*
X121071190Y-109092382D02*
X120975952Y-109044763D01*
X120928333Y-108997144D01*
X120880714Y-108901906D01*
X120880714Y-108806667D01*
X120880714Y-108473334D02*
X121547381Y-108473334D01*
X120975952Y-108473334D02*
X120928333Y-108425715D01*
X120880714Y-108330477D01*
X120880714Y-108187619D01*
X120928333Y-108092381D01*
X121023571Y-108044762D01*
X121547381Y-108044762D01*
X121499762Y-107187619D02*
X121547381Y-107282857D01*
X121547381Y-107473334D01*
X121499762Y-107568572D01*
X121404524Y-107616191D01*
X121023571Y-107616191D01*
X120928333Y-107568572D01*
X120880714Y-107473334D01*
X120880714Y-107282857D01*
X120928333Y-107187619D01*
X121023571Y-107140000D01*
X121118810Y-107140000D01*
X121214048Y-107616191D01*
X121499762Y-106759048D02*
X121547381Y-106663810D01*
X121547381Y-106473334D01*
X121499762Y-106378095D01*
X121404524Y-106330476D01*
X121356905Y-106330476D01*
X121261667Y-106378095D01*
X121214048Y-106473334D01*
X121214048Y-106616191D01*
X121166429Y-106711429D01*
X121071190Y-106759048D01*
X121023571Y-106759048D01*
X120928333Y-106711429D01*
X120880714Y-106616191D01*
X120880714Y-106473334D01*
X120928333Y-106378095D01*
X120880714Y-106044762D02*
X120880714Y-105663810D01*
X120547381Y-105901905D02*
X121404524Y-105901905D01*
X121499762Y-105854286D01*
X121547381Y-105759048D01*
X121547381Y-105663810D01*
X121499762Y-105378095D02*
X121547381Y-105282857D01*
X121547381Y-105092381D01*
X121499762Y-104997142D01*
X121404524Y-104949523D01*
X121356905Y-104949523D01*
X121261667Y-104997142D01*
X121214048Y-105092381D01*
X121214048Y-105235238D01*
X121166429Y-105330476D01*
X121071190Y-105378095D01*
X121023571Y-105378095D01*
X120928333Y-105330476D01*
X120880714Y-105235238D01*
X120880714Y-105092381D01*
X120928333Y-104997142D01*
X121023571Y-103425713D02*
X121071190Y-103282856D01*
X121118810Y-103235237D01*
X121214048Y-103187618D01*
X121356905Y-103187618D01*
X121452143Y-103235237D01*
X121499762Y-103282856D01*
X121547381Y-103378094D01*
X121547381Y-103759047D01*
X120547381Y-103759047D01*
X120547381Y-103425713D01*
X120595000Y-103330475D01*
X120642619Y-103282856D01*
X120737857Y-103235237D01*
X120833095Y-103235237D01*
X120928333Y-103282856D01*
X120975952Y-103330475D01*
X121023571Y-103425713D01*
X121023571Y-103759047D01*
X121547381Y-102759047D02*
X120880714Y-102759047D01*
X121071190Y-102759047D02*
X120975952Y-102711428D01*
X120928333Y-102663809D01*
X120880714Y-102568571D01*
X120880714Y-102473332D01*
X121499762Y-101759046D02*
X121547381Y-101854284D01*
X121547381Y-102044761D01*
X121499762Y-102139999D01*
X121404524Y-102187618D01*
X121023571Y-102187618D01*
X120928333Y-102139999D01*
X120880714Y-102044761D01*
X120880714Y-101854284D01*
X120928333Y-101759046D01*
X121023571Y-101711427D01*
X121118810Y-101711427D01*
X121214048Y-102187618D01*
X121547381Y-100854284D02*
X120547381Y-100854284D01*
X121499762Y-100854284D02*
X121547381Y-100949522D01*
X121547381Y-101139999D01*
X121499762Y-101235237D01*
X121452143Y-101282856D01*
X121356905Y-101330475D01*
X121071190Y-101330475D01*
X120975952Y-101282856D01*
X120928333Y-101235237D01*
X120880714Y-101139999D01*
X120880714Y-100949522D01*
X120928333Y-100854284D01*
X121547381Y-100378094D02*
X120880714Y-100378094D01*
X120547381Y-100378094D02*
X120595000Y-100425713D01*
X120642619Y-100378094D01*
X120595000Y-100330475D01*
X120547381Y-100378094D01*
X120642619Y-100378094D01*
X121547381Y-99901904D02*
X120547381Y-99901904D01*
X121166429Y-99806666D02*
X121547381Y-99520951D01*
X120880714Y-99520951D02*
X121261667Y-99901904D01*
X121547381Y-99092380D02*
X120880714Y-99092380D01*
X120547381Y-99092380D02*
X120595000Y-99139999D01*
X120642619Y-99092380D01*
X120595000Y-99044761D01*
X120547381Y-99092380D01*
X120642619Y-99092380D01*
X121499762Y-98663809D02*
X121547381Y-98568571D01*
X121547381Y-98378095D01*
X121499762Y-98282856D01*
X121404524Y-98235237D01*
X121356905Y-98235237D01*
X121261667Y-98282856D01*
X121214048Y-98378095D01*
X121214048Y-98520952D01*
X121166429Y-98616190D01*
X121071190Y-98663809D01*
X121023571Y-98663809D01*
X120928333Y-98616190D01*
X120880714Y-98520952D01*
X120880714Y-98378095D01*
X120928333Y-98282856D01*
X122292619Y-105854286D02*
X122245000Y-105806667D01*
X122197381Y-105711429D01*
X122197381Y-105473333D01*
X122245000Y-105378095D01*
X122292619Y-105330476D01*
X122387857Y-105282857D01*
X122483095Y-105282857D01*
X122625952Y-105330476D01*
X123197381Y-105901905D01*
X123197381Y-105282857D01*
X122197381Y-104663810D02*
X122197381Y-104568571D01*
X122245000Y-104473333D01*
X122292619Y-104425714D01*
X122387857Y-104378095D01*
X122578333Y-104330476D01*
X122816429Y-104330476D01*
X123006905Y-104378095D01*
X123102143Y-104425714D01*
X123149762Y-104473333D01*
X123197381Y-104568571D01*
X123197381Y-104663810D01*
X123149762Y-104759048D01*
X123102143Y-104806667D01*
X123006905Y-104854286D01*
X122816429Y-104901905D01*
X122578333Y-104901905D01*
X122387857Y-104854286D01*
X122292619Y-104806667D01*
X122245000Y-104759048D01*
X122197381Y-104663810D01*
X123197381Y-103378095D02*
X123197381Y-103949524D01*
X123197381Y-103663810D02*
X122197381Y-103663810D01*
X122340238Y-103759048D01*
X122435476Y-103854286D01*
X122483095Y-103949524D01*
X122625952Y-102806667D02*
X122578333Y-102901905D01*
X122530714Y-102949524D01*
X122435476Y-102997143D01*
X122387857Y-102997143D01*
X122292619Y-102949524D01*
X122245000Y-102901905D01*
X122197381Y-102806667D01*
X122197381Y-102616190D01*
X122245000Y-102520952D01*
X122292619Y-102473333D01*
X122387857Y-102425714D01*
X122435476Y-102425714D01*
X122530714Y-102473333D01*
X122578333Y-102520952D01*
X122625952Y-102616190D01*
X122625952Y-102806667D01*
X122673571Y-102901905D01*
X122721190Y-102949524D01*
X122816429Y-102997143D01*
X123006905Y-102997143D01*
X123102143Y-102949524D01*
X123149762Y-102901905D01*
X123197381Y-102806667D01*
X123197381Y-102616190D01*
X123149762Y-102520952D01*
X123102143Y-102473333D01*
X123006905Y-102425714D01*
X122816429Y-102425714D01*
X122721190Y-102473333D01*
X122673571Y-102520952D01*
X122625952Y-102616190D01*
D12*
X147730000Y-99650000D02*
X149450000Y-99650000D01*
X149450000Y-99650000D02*
X149450000Y-95930000D01*
X149450000Y-95930000D02*
X147730000Y-95930000D01*
X147730000Y-95930000D02*
X147730000Y-99650000D01*
X148590000Y-100720000D02*
X148590000Y-99650000D01*
X148590000Y-94860000D02*
X148590000Y-95930000D01*
X133208437Y-96406736D02*
G75*
G03X123410643Y-96410000I-4898437J-1383264D01*
G01*
X133208437Y-99173264D02*
G75*
G02X123410643Y-99170000I-4898437J1383264D01*
G01*
X133208437Y-99173264D02*
G75*
G03X133209357Y-96410000I-4898437J1383264D01*
G01*
X128310000Y-92740000D02*
X128310000Y-102840000D01*
X128350000Y-92740000D02*
X128350000Y-102840000D01*
X128390000Y-92740000D02*
X128390000Y-102840000D01*
X128430000Y-92741000D02*
X128430000Y-102839000D01*
X128470000Y-92742000D02*
X128470000Y-102838000D01*
X128510000Y-92743000D02*
X128510000Y-102837000D01*
X128550000Y-92745000D02*
X128550000Y-102835000D01*
X128590000Y-92747000D02*
X128590000Y-102833000D01*
X128630000Y-92750000D02*
X128630000Y-102830000D01*
X128670000Y-92752000D02*
X128670000Y-102828000D01*
X128710000Y-92755000D02*
X128710000Y-102825000D01*
X128750000Y-92759000D02*
X128750000Y-102821000D01*
X128790000Y-92762000D02*
X128790000Y-102818000D01*
X128830000Y-92766000D02*
X128830000Y-102814000D01*
X128870000Y-92770000D02*
X128870000Y-102810000D01*
X128910000Y-92775000D02*
X128910000Y-102805000D01*
X128950000Y-92780000D02*
X128950000Y-102800000D01*
X128990000Y-92785000D02*
X128990000Y-102795000D01*
X129031000Y-92791000D02*
X129031000Y-102789000D01*
X129071000Y-92797000D02*
X129071000Y-102783000D01*
X129111000Y-92803000D02*
X129111000Y-102777000D01*
X129151000Y-92809000D02*
X129151000Y-102771000D01*
X129191000Y-92816000D02*
X129191000Y-102764000D01*
X129231000Y-92823000D02*
X129231000Y-102757000D01*
X129271000Y-92831000D02*
X129271000Y-102749000D01*
X129311000Y-92839000D02*
X129311000Y-102741000D01*
X129351000Y-92847000D02*
X129351000Y-102733000D01*
X129391000Y-92855000D02*
X129391000Y-102725000D01*
X129431000Y-92864000D02*
X129431000Y-102716000D01*
X129471000Y-92873000D02*
X129471000Y-102707000D01*
X129511000Y-92883000D02*
X129511000Y-102697000D01*
X129551000Y-92893000D02*
X129551000Y-102687000D01*
X129591000Y-92903000D02*
X129591000Y-102677000D01*
X129631000Y-92914000D02*
X129631000Y-96609000D01*
X129631000Y-98971000D02*
X129631000Y-102666000D01*
X129671000Y-92925000D02*
X129671000Y-96609000D01*
X129671000Y-98971000D02*
X129671000Y-102655000D01*
X129711000Y-92936000D02*
X129711000Y-96609000D01*
X129711000Y-98971000D02*
X129711000Y-102644000D01*
X129751000Y-92947000D02*
X129751000Y-96609000D01*
X129751000Y-98971000D02*
X129751000Y-102633000D01*
X129791000Y-92959000D02*
X129791000Y-96609000D01*
X129791000Y-98971000D02*
X129791000Y-102621000D01*
X129831000Y-92972000D02*
X129831000Y-96609000D01*
X129831000Y-98971000D02*
X129831000Y-102608000D01*
X129871000Y-92984000D02*
X129871000Y-96609000D01*
X129871000Y-98971000D02*
X129871000Y-102596000D01*
X129911000Y-92998000D02*
X129911000Y-96609000D01*
X129911000Y-98971000D02*
X129911000Y-102582000D01*
X129951000Y-93011000D02*
X129951000Y-96609000D01*
X129951000Y-98971000D02*
X129951000Y-102569000D01*
X129991000Y-93025000D02*
X129991000Y-96609000D01*
X129991000Y-98971000D02*
X129991000Y-102555000D01*
X130031000Y-93039000D02*
X130031000Y-96609000D01*
X130031000Y-98971000D02*
X130031000Y-102541000D01*
X130071000Y-93053000D02*
X130071000Y-96609000D01*
X130071000Y-98971000D02*
X130071000Y-102527000D01*
X130111000Y-93068000D02*
X130111000Y-96609000D01*
X130111000Y-98971000D02*
X130111000Y-102512000D01*
X130151000Y-93084000D02*
X130151000Y-96609000D01*
X130151000Y-98971000D02*
X130151000Y-102496000D01*
X130191000Y-93099000D02*
X130191000Y-96609000D01*
X130191000Y-98971000D02*
X130191000Y-102481000D01*
X130231000Y-93116000D02*
X130231000Y-96609000D01*
X130231000Y-98971000D02*
X130231000Y-102464000D01*
X130271000Y-93132000D02*
X130271000Y-96609000D01*
X130271000Y-98971000D02*
X130271000Y-102448000D01*
X130311000Y-93149000D02*
X130311000Y-96609000D01*
X130311000Y-98971000D02*
X130311000Y-102431000D01*
X130351000Y-93166000D02*
X130351000Y-96609000D01*
X130351000Y-98971000D02*
X130351000Y-102414000D01*
X130391000Y-93184000D02*
X130391000Y-96609000D01*
X130391000Y-98971000D02*
X130391000Y-102396000D01*
X130431000Y-93202000D02*
X130431000Y-96609000D01*
X130431000Y-98971000D02*
X130431000Y-102378000D01*
X130471000Y-93221000D02*
X130471000Y-96609000D01*
X130471000Y-98971000D02*
X130471000Y-102359000D01*
X130511000Y-93240000D02*
X130511000Y-96609000D01*
X130511000Y-98971000D02*
X130511000Y-102340000D01*
X130551000Y-93259000D02*
X130551000Y-96609000D01*
X130551000Y-98971000D02*
X130551000Y-102321000D01*
X130591000Y-93279000D02*
X130591000Y-96609000D01*
X130591000Y-98971000D02*
X130591000Y-102301000D01*
X130631000Y-93299000D02*
X130631000Y-96609000D01*
X130631000Y-98971000D02*
X130631000Y-102281000D01*
X130671000Y-93320000D02*
X130671000Y-96609000D01*
X130671000Y-98971000D02*
X130671000Y-102260000D01*
X130711000Y-93341000D02*
X130711000Y-96609000D01*
X130711000Y-98971000D02*
X130711000Y-102239000D01*
X130751000Y-93362000D02*
X130751000Y-96609000D01*
X130751000Y-98971000D02*
X130751000Y-102218000D01*
X130791000Y-93385000D02*
X130791000Y-96609000D01*
X130791000Y-98971000D02*
X130791000Y-102195000D01*
X130831000Y-93407000D02*
X130831000Y-96609000D01*
X130831000Y-98971000D02*
X130831000Y-102173000D01*
X130871000Y-93430000D02*
X130871000Y-96609000D01*
X130871000Y-98971000D02*
X130871000Y-102150000D01*
X130911000Y-93454000D02*
X130911000Y-96609000D01*
X130911000Y-98971000D02*
X130911000Y-102126000D01*
X130951000Y-93478000D02*
X130951000Y-96609000D01*
X130951000Y-98971000D02*
X130951000Y-102102000D01*
X130991000Y-93502000D02*
X130991000Y-96609000D01*
X130991000Y-98971000D02*
X130991000Y-102078000D01*
X131031000Y-93527000D02*
X131031000Y-96609000D01*
X131031000Y-98971000D02*
X131031000Y-102053000D01*
X131071000Y-93553000D02*
X131071000Y-96609000D01*
X131071000Y-98971000D02*
X131071000Y-102027000D01*
X131111000Y-93579000D02*
X131111000Y-96609000D01*
X131111000Y-98971000D02*
X131111000Y-102001000D01*
X131151000Y-93605000D02*
X131151000Y-96609000D01*
X131151000Y-98971000D02*
X131151000Y-101975000D01*
X131191000Y-93633000D02*
X131191000Y-96609000D01*
X131191000Y-98971000D02*
X131191000Y-101947000D01*
X131231000Y-93660000D02*
X131231000Y-96609000D01*
X131231000Y-98971000D02*
X131231000Y-101920000D01*
X131271000Y-93689000D02*
X131271000Y-96609000D01*
X131271000Y-98971000D02*
X131271000Y-101891000D01*
X131311000Y-93718000D02*
X131311000Y-96609000D01*
X131311000Y-98971000D02*
X131311000Y-101862000D01*
X131351000Y-93747000D02*
X131351000Y-96609000D01*
X131351000Y-98971000D02*
X131351000Y-101833000D01*
X131391000Y-93777000D02*
X131391000Y-96609000D01*
X131391000Y-98971000D02*
X131391000Y-101803000D01*
X131431000Y-93808000D02*
X131431000Y-96609000D01*
X131431000Y-98971000D02*
X131431000Y-101772000D01*
X131471000Y-93839000D02*
X131471000Y-96609000D01*
X131471000Y-98971000D02*
X131471000Y-101741000D01*
X131511000Y-93871000D02*
X131511000Y-96609000D01*
X131511000Y-98971000D02*
X131511000Y-101709000D01*
X131551000Y-93904000D02*
X131551000Y-96609000D01*
X131551000Y-98971000D02*
X131551000Y-101676000D01*
X131591000Y-93937000D02*
X131591000Y-96609000D01*
X131591000Y-98971000D02*
X131591000Y-101643000D01*
X131631000Y-93971000D02*
X131631000Y-96609000D01*
X131631000Y-98971000D02*
X131631000Y-101609000D01*
X131671000Y-94006000D02*
X131671000Y-96609000D01*
X131671000Y-98971000D02*
X131671000Y-101574000D01*
X131711000Y-94042000D02*
X131711000Y-96609000D01*
X131711000Y-98971000D02*
X131711000Y-101538000D01*
X131751000Y-94078000D02*
X131751000Y-96609000D01*
X131751000Y-98971000D02*
X131751000Y-101502000D01*
X131791000Y-94115000D02*
X131791000Y-96609000D01*
X131791000Y-98971000D02*
X131791000Y-101465000D01*
X131831000Y-94153000D02*
X131831000Y-96609000D01*
X131831000Y-98971000D02*
X131831000Y-101427000D01*
X131871000Y-94192000D02*
X131871000Y-96609000D01*
X131871000Y-98971000D02*
X131871000Y-101388000D01*
X131911000Y-94231000D02*
X131911000Y-96609000D01*
X131911000Y-98971000D02*
X131911000Y-101349000D01*
X131951000Y-94272000D02*
X131951000Y-96609000D01*
X131951000Y-98971000D02*
X131951000Y-101308000D01*
X131991000Y-94313000D02*
X131991000Y-101267000D01*
X132031000Y-94355000D02*
X132031000Y-101225000D01*
X132071000Y-94399000D02*
X132071000Y-101181000D01*
X132111000Y-94443000D02*
X132111000Y-101137000D01*
X132151000Y-94488000D02*
X132151000Y-101092000D01*
X132191000Y-94535000D02*
X132191000Y-101045000D01*
X132231000Y-94583000D02*
X132231000Y-100997000D01*
X132271000Y-94632000D02*
X132271000Y-100948000D01*
X132311000Y-94682000D02*
X132311000Y-100898000D01*
X132351000Y-94733000D02*
X132351000Y-100847000D01*
X132391000Y-94786000D02*
X132391000Y-100794000D01*
X132431000Y-94841000D02*
X132431000Y-100739000D01*
X132471000Y-94896000D02*
X132471000Y-100684000D01*
X132511000Y-94954000D02*
X132511000Y-100626000D01*
X132551000Y-95013000D02*
X132551000Y-100567000D01*
X132591000Y-95075000D02*
X132591000Y-100505000D01*
X132631000Y-95138000D02*
X132631000Y-100442000D01*
X132671000Y-95203000D02*
X132671000Y-100377000D01*
X132711000Y-95271000D02*
X132711000Y-100309000D01*
X132751000Y-95341000D02*
X132751000Y-100239000D01*
X132791000Y-95413000D02*
X132791000Y-100167000D01*
X132831000Y-95489000D02*
X132831000Y-100091000D01*
X132871000Y-95568000D02*
X132871000Y-100012000D01*
X132911000Y-95650000D02*
X132911000Y-99930000D01*
X132951000Y-95737000D02*
X132951000Y-99843000D01*
X132991000Y-95828000D02*
X132991000Y-99752000D01*
X133031000Y-95924000D02*
X133031000Y-99656000D01*
X133071000Y-96027000D02*
X133071000Y-99553000D01*
X133111000Y-96136000D02*
X133111000Y-99444000D01*
X133151000Y-96254000D02*
X133151000Y-99326000D01*
X133191000Y-96383000D02*
X133191000Y-99197000D01*
X133231000Y-96525000D02*
X133231000Y-99055000D01*
X133271000Y-96686000D02*
X133271000Y-98894000D01*
X133311000Y-96877000D02*
X133311000Y-98703000D01*
X133351000Y-97118000D02*
X133351000Y-98462000D01*
X133391000Y-97511000D02*
X133391000Y-98069000D01*
X123110000Y-97790000D02*
X124610000Y-97790000D01*
X123860000Y-97040000D02*
X123860000Y-98540000D01*
X142980000Y-107260000D02*
X146580000Y-107260000D01*
X142941522Y-107248478D02*
G75*
G02X144780000Y-102810000I1838478J1838478D01*
G01*
X146618478Y-107248478D02*
G75*
G03X144780000Y-102810000I-1838478J1838478D01*
G01*
X144638437Y-96406736D02*
G75*
G03X134840643Y-96410000I-4898437J-1383264D01*
G01*
X144638437Y-99173264D02*
G75*
G02X134840643Y-99170000I-4898437J1383264D01*
G01*
X144638437Y-99173264D02*
G75*
G03X144639357Y-96410000I-4898437J1383264D01*
G01*
X139740000Y-92740000D02*
X139740000Y-102840000D01*
X139780000Y-92740000D02*
X139780000Y-102840000D01*
X139820000Y-92740000D02*
X139820000Y-102840000D01*
X139860000Y-92741000D02*
X139860000Y-102839000D01*
X139900000Y-92742000D02*
X139900000Y-102838000D01*
X139940000Y-92743000D02*
X139940000Y-102837000D01*
X139980000Y-92745000D02*
X139980000Y-102835000D01*
X140020000Y-92747000D02*
X140020000Y-102833000D01*
X140060000Y-92750000D02*
X140060000Y-102830000D01*
X140100000Y-92752000D02*
X140100000Y-102828000D01*
X140140000Y-92755000D02*
X140140000Y-102825000D01*
X140180000Y-92759000D02*
X140180000Y-102821000D01*
X140220000Y-92762000D02*
X140220000Y-102818000D01*
X140260000Y-92766000D02*
X140260000Y-102814000D01*
X140300000Y-92770000D02*
X140300000Y-102810000D01*
X140340000Y-92775000D02*
X140340000Y-102805000D01*
X140380000Y-92780000D02*
X140380000Y-102800000D01*
X140420000Y-92785000D02*
X140420000Y-102795000D01*
X140461000Y-92791000D02*
X140461000Y-102789000D01*
X140501000Y-92797000D02*
X140501000Y-102783000D01*
X140541000Y-92803000D02*
X140541000Y-102777000D01*
X140581000Y-92809000D02*
X140581000Y-102771000D01*
X140621000Y-92816000D02*
X140621000Y-102764000D01*
X140661000Y-92823000D02*
X140661000Y-102757000D01*
X140701000Y-92831000D02*
X140701000Y-102749000D01*
X140741000Y-92839000D02*
X140741000Y-102741000D01*
X140781000Y-92847000D02*
X140781000Y-102733000D01*
X140821000Y-92855000D02*
X140821000Y-102725000D01*
X140861000Y-92864000D02*
X140861000Y-102716000D01*
X140901000Y-92873000D02*
X140901000Y-102707000D01*
X140941000Y-92883000D02*
X140941000Y-102697000D01*
X140981000Y-92893000D02*
X140981000Y-102687000D01*
X141021000Y-92903000D02*
X141021000Y-102677000D01*
X141061000Y-92914000D02*
X141061000Y-96609000D01*
X141061000Y-98971000D02*
X141061000Y-102666000D01*
X141101000Y-92925000D02*
X141101000Y-96609000D01*
X141101000Y-98971000D02*
X141101000Y-102655000D01*
X141141000Y-92936000D02*
X141141000Y-96609000D01*
X141141000Y-98971000D02*
X141141000Y-102644000D01*
X141181000Y-92947000D02*
X141181000Y-96609000D01*
X141181000Y-98971000D02*
X141181000Y-102633000D01*
X141221000Y-92959000D02*
X141221000Y-96609000D01*
X141221000Y-98971000D02*
X141221000Y-102621000D01*
X141261000Y-92972000D02*
X141261000Y-96609000D01*
X141261000Y-98971000D02*
X141261000Y-102608000D01*
X141301000Y-92984000D02*
X141301000Y-96609000D01*
X141301000Y-98971000D02*
X141301000Y-102596000D01*
X141341000Y-92998000D02*
X141341000Y-96609000D01*
X141341000Y-98971000D02*
X141341000Y-102582000D01*
X141381000Y-93011000D02*
X141381000Y-96609000D01*
X141381000Y-98971000D02*
X141381000Y-102569000D01*
X141421000Y-93025000D02*
X141421000Y-96609000D01*
X141421000Y-98971000D02*
X141421000Y-102555000D01*
X141461000Y-93039000D02*
X141461000Y-96609000D01*
X141461000Y-98971000D02*
X141461000Y-102541000D01*
X141501000Y-93053000D02*
X141501000Y-96609000D01*
X141501000Y-98971000D02*
X141501000Y-102527000D01*
X141541000Y-93068000D02*
X141541000Y-96609000D01*
X141541000Y-98971000D02*
X141541000Y-102512000D01*
X141581000Y-93084000D02*
X141581000Y-96609000D01*
X141581000Y-98971000D02*
X141581000Y-102496000D01*
X141621000Y-93099000D02*
X141621000Y-96609000D01*
X141621000Y-98971000D02*
X141621000Y-102481000D01*
X141661000Y-93116000D02*
X141661000Y-96609000D01*
X141661000Y-98971000D02*
X141661000Y-102464000D01*
X141701000Y-93132000D02*
X141701000Y-96609000D01*
X141701000Y-98971000D02*
X141701000Y-102448000D01*
X141741000Y-93149000D02*
X141741000Y-96609000D01*
X141741000Y-98971000D02*
X141741000Y-102431000D01*
X141781000Y-93166000D02*
X141781000Y-96609000D01*
X141781000Y-98971000D02*
X141781000Y-102414000D01*
X141821000Y-93184000D02*
X141821000Y-96609000D01*
X141821000Y-98971000D02*
X141821000Y-102396000D01*
X141861000Y-93202000D02*
X141861000Y-96609000D01*
X141861000Y-98971000D02*
X141861000Y-102378000D01*
X141901000Y-93221000D02*
X141901000Y-96609000D01*
X141901000Y-98971000D02*
X141901000Y-102359000D01*
X141941000Y-93240000D02*
X141941000Y-96609000D01*
X141941000Y-98971000D02*
X141941000Y-102340000D01*
X141981000Y-93259000D02*
X141981000Y-96609000D01*
X141981000Y-98971000D02*
X141981000Y-102321000D01*
X142021000Y-93279000D02*
X142021000Y-96609000D01*
X142021000Y-98971000D02*
X142021000Y-102301000D01*
X142061000Y-93299000D02*
X142061000Y-96609000D01*
X142061000Y-98971000D02*
X142061000Y-102281000D01*
X142101000Y-93320000D02*
X142101000Y-96609000D01*
X142101000Y-98971000D02*
X142101000Y-102260000D01*
X142141000Y-93341000D02*
X142141000Y-96609000D01*
X142141000Y-98971000D02*
X142141000Y-102239000D01*
X142181000Y-93362000D02*
X142181000Y-96609000D01*
X142181000Y-98971000D02*
X142181000Y-102218000D01*
X142221000Y-93385000D02*
X142221000Y-96609000D01*
X142221000Y-98971000D02*
X142221000Y-102195000D01*
X142261000Y-93407000D02*
X142261000Y-96609000D01*
X142261000Y-98971000D02*
X142261000Y-102173000D01*
X142301000Y-93430000D02*
X142301000Y-96609000D01*
X142301000Y-98971000D02*
X142301000Y-102150000D01*
X142341000Y-93454000D02*
X142341000Y-96609000D01*
X142341000Y-98971000D02*
X142341000Y-102126000D01*
X142381000Y-93478000D02*
X142381000Y-96609000D01*
X142381000Y-98971000D02*
X142381000Y-102102000D01*
X142421000Y-93502000D02*
X142421000Y-96609000D01*
X142421000Y-98971000D02*
X142421000Y-102078000D01*
X142461000Y-93527000D02*
X142461000Y-96609000D01*
X142461000Y-98971000D02*
X142461000Y-102053000D01*
X142501000Y-93553000D02*
X142501000Y-96609000D01*
X142501000Y-98971000D02*
X142501000Y-102027000D01*
X142541000Y-93579000D02*
X142541000Y-96609000D01*
X142541000Y-98971000D02*
X142541000Y-102001000D01*
X142581000Y-93605000D02*
X142581000Y-96609000D01*
X142581000Y-98971000D02*
X142581000Y-101975000D01*
X142621000Y-93633000D02*
X142621000Y-96609000D01*
X142621000Y-98971000D02*
X142621000Y-101947000D01*
X142661000Y-93660000D02*
X142661000Y-96609000D01*
X142661000Y-98971000D02*
X142661000Y-101920000D01*
X142701000Y-93689000D02*
X142701000Y-96609000D01*
X142701000Y-98971000D02*
X142701000Y-101891000D01*
X142741000Y-93718000D02*
X142741000Y-96609000D01*
X142741000Y-98971000D02*
X142741000Y-101862000D01*
X142781000Y-93747000D02*
X142781000Y-96609000D01*
X142781000Y-98971000D02*
X142781000Y-101833000D01*
X142821000Y-93777000D02*
X142821000Y-96609000D01*
X142821000Y-98971000D02*
X142821000Y-101803000D01*
X142861000Y-93808000D02*
X142861000Y-96609000D01*
X142861000Y-98971000D02*
X142861000Y-101772000D01*
X142901000Y-93839000D02*
X142901000Y-96609000D01*
X142901000Y-98971000D02*
X142901000Y-101741000D01*
X142941000Y-93871000D02*
X142941000Y-96609000D01*
X142941000Y-98971000D02*
X142941000Y-101709000D01*
X142981000Y-93904000D02*
X142981000Y-96609000D01*
X142981000Y-98971000D02*
X142981000Y-101676000D01*
X143021000Y-93937000D02*
X143021000Y-96609000D01*
X143021000Y-98971000D02*
X143021000Y-101643000D01*
X143061000Y-93971000D02*
X143061000Y-96609000D01*
X143061000Y-98971000D02*
X143061000Y-101609000D01*
X143101000Y-94006000D02*
X143101000Y-96609000D01*
X143101000Y-98971000D02*
X143101000Y-101574000D01*
X143141000Y-94042000D02*
X143141000Y-96609000D01*
X143141000Y-98971000D02*
X143141000Y-101538000D01*
X143181000Y-94078000D02*
X143181000Y-96609000D01*
X143181000Y-98971000D02*
X143181000Y-101502000D01*
X143221000Y-94115000D02*
X143221000Y-96609000D01*
X143221000Y-98971000D02*
X143221000Y-101465000D01*
X143261000Y-94153000D02*
X143261000Y-96609000D01*
X143261000Y-98971000D02*
X143261000Y-101427000D01*
X143301000Y-94192000D02*
X143301000Y-96609000D01*
X143301000Y-98971000D02*
X143301000Y-101388000D01*
X143341000Y-94231000D02*
X143341000Y-96609000D01*
X143341000Y-98971000D02*
X143341000Y-101349000D01*
X143381000Y-94272000D02*
X143381000Y-96609000D01*
X143381000Y-98971000D02*
X143381000Y-101308000D01*
X143421000Y-94313000D02*
X143421000Y-101267000D01*
X143461000Y-94355000D02*
X143461000Y-101225000D01*
X143501000Y-94399000D02*
X143501000Y-101181000D01*
X143541000Y-94443000D02*
X143541000Y-101137000D01*
X143581000Y-94488000D02*
X143581000Y-101092000D01*
X143621000Y-94535000D02*
X143621000Y-101045000D01*
X143661000Y-94583000D02*
X143661000Y-100997000D01*
X143701000Y-94632000D02*
X143701000Y-100948000D01*
X143741000Y-94682000D02*
X143741000Y-100898000D01*
X143781000Y-94733000D02*
X143781000Y-100847000D01*
X143821000Y-94786000D02*
X143821000Y-100794000D01*
X143861000Y-94841000D02*
X143861000Y-100739000D01*
X143901000Y-94896000D02*
X143901000Y-100684000D01*
X143941000Y-94954000D02*
X143941000Y-100626000D01*
X143981000Y-95013000D02*
X143981000Y-100567000D01*
X144021000Y-95075000D02*
X144021000Y-100505000D01*
X144061000Y-95138000D02*
X144061000Y-100442000D01*
X144101000Y-95203000D02*
X144101000Y-100377000D01*
X144141000Y-95271000D02*
X144141000Y-100309000D01*
X144181000Y-95341000D02*
X144181000Y-100239000D01*
X144221000Y-95413000D02*
X144221000Y-100167000D01*
X144261000Y-95489000D02*
X144261000Y-100091000D01*
X144301000Y-95568000D02*
X144301000Y-100012000D01*
X144341000Y-95650000D02*
X144341000Y-99930000D01*
X144381000Y-95737000D02*
X144381000Y-99843000D01*
X144421000Y-95828000D02*
X144421000Y-99752000D01*
X144461000Y-95924000D02*
X144461000Y-99656000D01*
X144501000Y-96027000D02*
X144501000Y-99553000D01*
X144541000Y-96136000D02*
X144541000Y-99444000D01*
X144581000Y-96254000D02*
X144581000Y-99326000D01*
X144621000Y-96383000D02*
X144621000Y-99197000D01*
X144661000Y-96525000D02*
X144661000Y-99055000D01*
X144701000Y-96686000D02*
X144701000Y-98894000D01*
X144741000Y-96877000D02*
X144741000Y-98703000D01*
X144781000Y-97118000D02*
X144781000Y-98462000D01*
X144821000Y-97511000D02*
X144821000Y-98069000D01*
X134540000Y-97790000D02*
X136040000Y-97790000D01*
X135290000Y-97040000D02*
X135290000Y-98540000D01*
X168860000Y-93870000D02*
X156260000Y-93870000D01*
X156260000Y-93870000D02*
X156260000Y-104220000D01*
X156260000Y-104220000D02*
X157210000Y-104220000D01*
X157210000Y-104220000D02*
X156960000Y-104720000D01*
X156960000Y-104720000D02*
X158860000Y-104720000D01*
X158860000Y-104720000D02*
X158910000Y-104720000D01*
X158910000Y-104720000D02*
X158660000Y-104220000D01*
X158660000Y-104220000D02*
X164060000Y-104220000D01*
X164060000Y-104220000D02*
X163760000Y-104720000D01*
X163760000Y-104720000D02*
X168860000Y-104720000D01*
X168860000Y-104720000D02*
X168860000Y-93870000D01*
X145828437Y-111646736D02*
G75*
G03X136030643Y-111650000I-4898437J-1383264D01*
G01*
X145828437Y-114413264D02*
G75*
G02X136030643Y-114410000I-4898437J1383264D01*
G01*
X145828437Y-114413264D02*
G75*
G03X145829357Y-111650000I-4898437J1383264D01*
G01*
X140930000Y-107980000D02*
X140930000Y-118080000D01*
X140970000Y-107980000D02*
X140970000Y-118080000D01*
X141010000Y-107980000D02*
X141010000Y-118080000D01*
X141050000Y-107981000D02*
X141050000Y-118079000D01*
X141090000Y-107982000D02*
X141090000Y-118078000D01*
X141130000Y-107983000D02*
X141130000Y-118077000D01*
X141170000Y-107985000D02*
X141170000Y-118075000D01*
X141210000Y-107987000D02*
X141210000Y-118073000D01*
X141250000Y-107990000D02*
X141250000Y-118070000D01*
X141290000Y-107992000D02*
X141290000Y-118068000D01*
X141330000Y-107995000D02*
X141330000Y-118065000D01*
X141370000Y-107999000D02*
X141370000Y-118061000D01*
X141410000Y-108002000D02*
X141410000Y-118058000D01*
X141450000Y-108006000D02*
X141450000Y-118054000D01*
X141490000Y-108010000D02*
X141490000Y-118050000D01*
X141530000Y-108015000D02*
X141530000Y-118045000D01*
X141570000Y-108020000D02*
X141570000Y-118040000D01*
X141610000Y-108025000D02*
X141610000Y-118035000D01*
X141651000Y-108031000D02*
X141651000Y-118029000D01*
X141691000Y-108037000D02*
X141691000Y-118023000D01*
X141731000Y-108043000D02*
X141731000Y-118017000D01*
X141771000Y-108049000D02*
X141771000Y-118011000D01*
X141811000Y-108056000D02*
X141811000Y-118004000D01*
X141851000Y-108063000D02*
X141851000Y-117997000D01*
X141891000Y-108071000D02*
X141891000Y-117989000D01*
X141931000Y-108079000D02*
X141931000Y-117981000D01*
X141971000Y-108087000D02*
X141971000Y-117973000D01*
X142011000Y-108095000D02*
X142011000Y-117965000D01*
X142051000Y-108104000D02*
X142051000Y-117956000D01*
X142091000Y-108113000D02*
X142091000Y-117947000D01*
X142131000Y-108123000D02*
X142131000Y-117937000D01*
X142171000Y-108133000D02*
X142171000Y-117927000D01*
X142211000Y-108143000D02*
X142211000Y-117917000D01*
X142251000Y-108154000D02*
X142251000Y-111849000D01*
X142251000Y-114211000D02*
X142251000Y-117906000D01*
X142291000Y-108165000D02*
X142291000Y-111849000D01*
X142291000Y-114211000D02*
X142291000Y-117895000D01*
X142331000Y-108176000D02*
X142331000Y-111849000D01*
X142331000Y-114211000D02*
X142331000Y-117884000D01*
X142371000Y-108187000D02*
X142371000Y-111849000D01*
X142371000Y-114211000D02*
X142371000Y-117873000D01*
X142411000Y-108199000D02*
X142411000Y-111849000D01*
X142411000Y-114211000D02*
X142411000Y-117861000D01*
X142451000Y-108212000D02*
X142451000Y-111849000D01*
X142451000Y-114211000D02*
X142451000Y-117848000D01*
X142491000Y-108224000D02*
X142491000Y-111849000D01*
X142491000Y-114211000D02*
X142491000Y-117836000D01*
X142531000Y-108238000D02*
X142531000Y-111849000D01*
X142531000Y-114211000D02*
X142531000Y-117822000D01*
X142571000Y-108251000D02*
X142571000Y-111849000D01*
X142571000Y-114211000D02*
X142571000Y-117809000D01*
X142611000Y-108265000D02*
X142611000Y-111849000D01*
X142611000Y-114211000D02*
X142611000Y-117795000D01*
X142651000Y-108279000D02*
X142651000Y-111849000D01*
X142651000Y-114211000D02*
X142651000Y-117781000D01*
X142691000Y-108293000D02*
X142691000Y-111849000D01*
X142691000Y-114211000D02*
X142691000Y-117767000D01*
X142731000Y-108308000D02*
X142731000Y-111849000D01*
X142731000Y-114211000D02*
X142731000Y-117752000D01*
X142771000Y-108324000D02*
X142771000Y-111849000D01*
X142771000Y-114211000D02*
X142771000Y-117736000D01*
X142811000Y-108339000D02*
X142811000Y-111849000D01*
X142811000Y-114211000D02*
X142811000Y-117721000D01*
X142851000Y-108356000D02*
X142851000Y-111849000D01*
X142851000Y-114211000D02*
X142851000Y-117704000D01*
X142891000Y-108372000D02*
X142891000Y-111849000D01*
X142891000Y-114211000D02*
X142891000Y-117688000D01*
X142931000Y-108389000D02*
X142931000Y-111849000D01*
X142931000Y-114211000D02*
X142931000Y-117671000D01*
X142971000Y-108406000D02*
X142971000Y-111849000D01*
X142971000Y-114211000D02*
X142971000Y-117654000D01*
X143011000Y-108424000D02*
X143011000Y-111849000D01*
X143011000Y-114211000D02*
X143011000Y-117636000D01*
X143051000Y-108442000D02*
X143051000Y-111849000D01*
X143051000Y-114211000D02*
X143051000Y-117618000D01*
X143091000Y-108461000D02*
X143091000Y-111849000D01*
X143091000Y-114211000D02*
X143091000Y-117599000D01*
X143131000Y-108480000D02*
X143131000Y-111849000D01*
X143131000Y-114211000D02*
X143131000Y-117580000D01*
X143171000Y-108499000D02*
X143171000Y-111849000D01*
X143171000Y-114211000D02*
X143171000Y-117561000D01*
X143211000Y-108519000D02*
X143211000Y-111849000D01*
X143211000Y-114211000D02*
X143211000Y-117541000D01*
X143251000Y-108539000D02*
X143251000Y-111849000D01*
X143251000Y-114211000D02*
X143251000Y-117521000D01*
X143291000Y-108560000D02*
X143291000Y-111849000D01*
X143291000Y-114211000D02*
X143291000Y-117500000D01*
X143331000Y-108581000D02*
X143331000Y-111849000D01*
X143331000Y-114211000D02*
X143331000Y-117479000D01*
X143371000Y-108602000D02*
X143371000Y-111849000D01*
X143371000Y-114211000D02*
X143371000Y-117458000D01*
X143411000Y-108625000D02*
X143411000Y-111849000D01*
X143411000Y-114211000D02*
X143411000Y-117435000D01*
X143451000Y-108647000D02*
X143451000Y-111849000D01*
X143451000Y-114211000D02*
X143451000Y-117413000D01*
X143491000Y-108670000D02*
X143491000Y-111849000D01*
X143491000Y-114211000D02*
X143491000Y-117390000D01*
X143531000Y-108694000D02*
X143531000Y-111849000D01*
X143531000Y-114211000D02*
X143531000Y-117366000D01*
X143571000Y-108718000D02*
X143571000Y-111849000D01*
X143571000Y-114211000D02*
X143571000Y-117342000D01*
X143611000Y-108742000D02*
X143611000Y-111849000D01*
X143611000Y-114211000D02*
X143611000Y-117318000D01*
X143651000Y-108767000D02*
X143651000Y-111849000D01*
X143651000Y-114211000D02*
X143651000Y-117293000D01*
X143691000Y-108793000D02*
X143691000Y-111849000D01*
X143691000Y-114211000D02*
X143691000Y-117267000D01*
X143731000Y-108819000D02*
X143731000Y-111849000D01*
X143731000Y-114211000D02*
X143731000Y-117241000D01*
X143771000Y-108845000D02*
X143771000Y-111849000D01*
X143771000Y-114211000D02*
X143771000Y-117215000D01*
X143811000Y-108873000D02*
X143811000Y-111849000D01*
X143811000Y-114211000D02*
X143811000Y-117187000D01*
X143851000Y-108900000D02*
X143851000Y-111849000D01*
X143851000Y-114211000D02*
X143851000Y-117160000D01*
X143891000Y-108929000D02*
X143891000Y-111849000D01*
X143891000Y-114211000D02*
X143891000Y-117131000D01*
X143931000Y-108958000D02*
X143931000Y-111849000D01*
X143931000Y-114211000D02*
X143931000Y-117102000D01*
X143971000Y-108987000D02*
X143971000Y-111849000D01*
X143971000Y-114211000D02*
X143971000Y-117073000D01*
X144011000Y-109017000D02*
X144011000Y-111849000D01*
X144011000Y-114211000D02*
X144011000Y-117043000D01*
X144051000Y-109048000D02*
X144051000Y-111849000D01*
X144051000Y-114211000D02*
X144051000Y-117012000D01*
X144091000Y-109079000D02*
X144091000Y-111849000D01*
X144091000Y-114211000D02*
X144091000Y-116981000D01*
X144131000Y-109111000D02*
X144131000Y-111849000D01*
X144131000Y-114211000D02*
X144131000Y-116949000D01*
X144171000Y-109144000D02*
X144171000Y-111849000D01*
X144171000Y-114211000D02*
X144171000Y-116916000D01*
X144211000Y-109177000D02*
X144211000Y-111849000D01*
X144211000Y-114211000D02*
X144211000Y-116883000D01*
X144251000Y-109211000D02*
X144251000Y-111849000D01*
X144251000Y-114211000D02*
X144251000Y-116849000D01*
X144291000Y-109246000D02*
X144291000Y-111849000D01*
X144291000Y-114211000D02*
X144291000Y-116814000D01*
X144331000Y-109282000D02*
X144331000Y-111849000D01*
X144331000Y-114211000D02*
X144331000Y-116778000D01*
X144371000Y-109318000D02*
X144371000Y-111849000D01*
X144371000Y-114211000D02*
X144371000Y-116742000D01*
X144411000Y-109355000D02*
X144411000Y-111849000D01*
X144411000Y-114211000D02*
X144411000Y-116705000D01*
X144451000Y-109393000D02*
X144451000Y-111849000D01*
X144451000Y-114211000D02*
X144451000Y-116667000D01*
X144491000Y-109432000D02*
X144491000Y-111849000D01*
X144491000Y-114211000D02*
X144491000Y-116628000D01*
X144531000Y-109471000D02*
X144531000Y-111849000D01*
X144531000Y-114211000D02*
X144531000Y-116589000D01*
X144571000Y-109512000D02*
X144571000Y-111849000D01*
X144571000Y-114211000D02*
X144571000Y-116548000D01*
X144611000Y-109553000D02*
X144611000Y-116507000D01*
X144651000Y-109595000D02*
X144651000Y-116465000D01*
X144691000Y-109639000D02*
X144691000Y-116421000D01*
X144731000Y-109683000D02*
X144731000Y-116377000D01*
X144771000Y-109728000D02*
X144771000Y-116332000D01*
X144811000Y-109775000D02*
X144811000Y-116285000D01*
X144851000Y-109823000D02*
X144851000Y-116237000D01*
X144891000Y-109872000D02*
X144891000Y-116188000D01*
X144931000Y-109922000D02*
X144931000Y-116138000D01*
X144971000Y-109973000D02*
X144971000Y-116087000D01*
X145011000Y-110026000D02*
X145011000Y-116034000D01*
X145051000Y-110081000D02*
X145051000Y-115979000D01*
X145091000Y-110136000D02*
X145091000Y-115924000D01*
X145131000Y-110194000D02*
X145131000Y-115866000D01*
X145171000Y-110253000D02*
X145171000Y-115807000D01*
X145211000Y-110315000D02*
X145211000Y-115745000D01*
X145251000Y-110378000D02*
X145251000Y-115682000D01*
X145291000Y-110443000D02*
X145291000Y-115617000D01*
X145331000Y-110511000D02*
X145331000Y-115549000D01*
X145371000Y-110581000D02*
X145371000Y-115479000D01*
X145411000Y-110653000D02*
X145411000Y-115407000D01*
X145451000Y-110729000D02*
X145451000Y-115331000D01*
X145491000Y-110808000D02*
X145491000Y-115252000D01*
X145531000Y-110890000D02*
X145531000Y-115170000D01*
X145571000Y-110977000D02*
X145571000Y-115083000D01*
X145611000Y-111068000D02*
X145611000Y-114992000D01*
X145651000Y-111164000D02*
X145651000Y-114896000D01*
X145691000Y-111267000D02*
X145691000Y-114793000D01*
X145731000Y-111376000D02*
X145731000Y-114684000D01*
X145771000Y-111494000D02*
X145771000Y-114566000D01*
X145811000Y-111623000D02*
X145811000Y-114437000D01*
X145851000Y-111765000D02*
X145851000Y-114295000D01*
X145891000Y-111926000D02*
X145891000Y-114134000D01*
X145931000Y-112117000D02*
X145931000Y-113943000D01*
X145971000Y-112358000D02*
X145971000Y-113702000D01*
X146011000Y-112751000D02*
X146011000Y-113309000D01*
X135730000Y-113030000D02*
X137230000Y-113030000D01*
X136480000Y-112280000D02*
X136480000Y-113780000D01*
X121970000Y-118220000D02*
X134570000Y-118220000D01*
X134570000Y-118220000D02*
X134570000Y-107870000D01*
X134570000Y-107870000D02*
X133620000Y-107870000D01*
X133620000Y-107870000D02*
X133870000Y-107370000D01*
X133870000Y-107370000D02*
X131970000Y-107370000D01*
X131970000Y-107370000D02*
X131920000Y-107370000D01*
X131920000Y-107370000D02*
X132170000Y-107870000D01*
X132170000Y-107870000D02*
X126770000Y-107870000D01*
X126770000Y-107870000D02*
X127070000Y-107370000D01*
X127070000Y-107370000D02*
X121970000Y-107370000D01*
X121970000Y-107370000D02*
X121970000Y-118220000D01*
X168860000Y-106570000D02*
X156260000Y-106570000D01*
X156260000Y-106570000D02*
X156260000Y-116920000D01*
X156260000Y-116920000D02*
X157210000Y-116920000D01*
X157210000Y-116920000D02*
X156960000Y-117420000D01*
X156960000Y-117420000D02*
X158860000Y-117420000D01*
X158860000Y-117420000D02*
X158910000Y-117420000D01*
X158910000Y-117420000D02*
X158660000Y-116920000D01*
X158660000Y-116920000D02*
X164060000Y-116920000D01*
X164060000Y-116920000D02*
X163760000Y-117420000D01*
X163760000Y-117420000D02*
X168860000Y-117420000D01*
X168860000Y-117420000D02*
X168860000Y-106570000D01*
X151540000Y-99650000D02*
X153260000Y-99650000D01*
X153260000Y-99650000D02*
X153260000Y-95930000D01*
X153260000Y-95930000D02*
X151540000Y-95930000D01*
X151540000Y-95930000D02*
X151540000Y-99650000D01*
X152400000Y-100720000D02*
X152400000Y-99650000D01*
X152400000Y-94860000D02*
X152400000Y-95930000D01*
X149450000Y-107360000D02*
X147730000Y-107360000D01*
X147730000Y-107360000D02*
X147730000Y-111080000D01*
X147730000Y-111080000D02*
X149450000Y-111080000D01*
X149450000Y-111080000D02*
X149450000Y-107360000D01*
X148590000Y-106290000D02*
X148590000Y-107360000D01*
X148590000Y-112150000D02*
X148590000Y-111080000D01*
X153260000Y-107360000D02*
X151540000Y-107360000D01*
X151540000Y-107360000D02*
X151540000Y-111080000D01*
X151540000Y-111080000D02*
X153260000Y-111080000D01*
X153260000Y-111080000D02*
X153260000Y-107360000D01*
X152400000Y-106290000D02*
X152400000Y-107360000D01*
X152400000Y-112150000D02*
X152400000Y-111080000D01*
D11*
X147182381Y-97956666D02*
X146706190Y-98290000D01*
X147182381Y-98528095D02*
X146182381Y-98528095D01*
X146182381Y-98147142D01*
X146230000Y-98051904D01*
X146277619Y-98004285D01*
X146372857Y-97956666D01*
X146515714Y-97956666D01*
X146610952Y-98004285D01*
X146658571Y-98051904D01*
X146706190Y-98147142D01*
X146706190Y-98528095D01*
X147182381Y-97004285D02*
X147182381Y-97575714D01*
X147182381Y-97290000D02*
X146182381Y-97290000D01*
X146325238Y-97385238D01*
X146420476Y-97480476D01*
X146468095Y-97575714D01*
X128143334Y-91837143D02*
X128095715Y-91884762D01*
X127952858Y-91932381D01*
X127857620Y-91932381D01*
X127714762Y-91884762D01*
X127619524Y-91789524D01*
X127571905Y-91694286D01*
X127524286Y-91503810D01*
X127524286Y-91360952D01*
X127571905Y-91170476D01*
X127619524Y-91075238D01*
X127714762Y-90980000D01*
X127857620Y-90932381D01*
X127952858Y-90932381D01*
X128095715Y-90980000D01*
X128143334Y-91027619D01*
X129095715Y-91932381D02*
X128524286Y-91932381D01*
X128810000Y-91932381D02*
X128810000Y-90932381D01*
X128714762Y-91075238D01*
X128619524Y-91170476D01*
X128524286Y-91218095D01*
X144684762Y-102397619D02*
X144589524Y-102350000D01*
X144494286Y-102254762D01*
X144351429Y-102111905D01*
X144256190Y-102064286D01*
X144160952Y-102064286D01*
X144208571Y-102302381D02*
X144113333Y-102254762D01*
X144018095Y-102159524D01*
X143970476Y-101969048D01*
X143970476Y-101635714D01*
X144018095Y-101445238D01*
X144113333Y-101350000D01*
X144208571Y-101302381D01*
X144399048Y-101302381D01*
X144494286Y-101350000D01*
X144589524Y-101445238D01*
X144637143Y-101635714D01*
X144637143Y-101969048D01*
X144589524Y-102159524D01*
X144494286Y-102254762D01*
X144399048Y-102302381D01*
X144208571Y-102302381D01*
X145589524Y-102302381D02*
X145018095Y-102302381D01*
X145303809Y-102302381D02*
X145303809Y-101302381D01*
X145208571Y-101445238D01*
X145113333Y-101540476D01*
X145018095Y-101588095D01*
X139573334Y-91837143D02*
X139525715Y-91884762D01*
X139382858Y-91932381D01*
X139287620Y-91932381D01*
X139144762Y-91884762D01*
X139049524Y-91789524D01*
X139001905Y-91694286D01*
X138954286Y-91503810D01*
X138954286Y-91360952D01*
X139001905Y-91170476D01*
X139049524Y-91075238D01*
X139144762Y-90980000D01*
X139287620Y-90932381D01*
X139382858Y-90932381D01*
X139525715Y-90980000D01*
X139573334Y-91027619D01*
X139954286Y-91027619D02*
X140001905Y-90980000D01*
X140097143Y-90932381D01*
X140335239Y-90932381D01*
X140430477Y-90980000D01*
X140478096Y-91027619D01*
X140525715Y-91122857D01*
X140525715Y-91218095D01*
X140478096Y-91360952D01*
X139906667Y-91932381D01*
X140525715Y-91932381D01*
X169002381Y-94933333D02*
X169716667Y-94933333D01*
X169859524Y-94980953D01*
X169954762Y-95076191D01*
X170002381Y-95219048D01*
X170002381Y-95314286D01*
X169002381Y-94552381D02*
X169002381Y-93933333D01*
X169383333Y-94266667D01*
X169383333Y-94123809D01*
X169430952Y-94028571D01*
X169478571Y-93980952D01*
X169573810Y-93933333D01*
X169811905Y-93933333D01*
X169907143Y-93980952D01*
X169954762Y-94028571D01*
X170002381Y-94123809D01*
X170002381Y-94409524D01*
X169954762Y-94504762D01*
X169907143Y-94552381D01*
X140763334Y-107077143D02*
X140715715Y-107124762D01*
X140572858Y-107172381D01*
X140477620Y-107172381D01*
X140334762Y-107124762D01*
X140239524Y-107029524D01*
X140191905Y-106934286D01*
X140144286Y-106743810D01*
X140144286Y-106600952D01*
X140191905Y-106410476D01*
X140239524Y-106315238D01*
X140334762Y-106220000D01*
X140477620Y-106172381D01*
X140572858Y-106172381D01*
X140715715Y-106220000D01*
X140763334Y-106267619D01*
X141096667Y-106172381D02*
X141715715Y-106172381D01*
X141382381Y-106553333D01*
X141525239Y-106553333D01*
X141620477Y-106600952D01*
X141668096Y-106648571D01*
X141715715Y-106743810D01*
X141715715Y-106981905D01*
X141668096Y-107077143D01*
X141620477Y-107124762D01*
X141525239Y-107172381D01*
X141239524Y-107172381D01*
X141144286Y-107124762D01*
X141096667Y-107077143D01*
X120732381Y-117823333D02*
X121446667Y-117823333D01*
X121589524Y-117870953D01*
X121684762Y-117966191D01*
X121732381Y-118109048D01*
X121732381Y-118204286D01*
X121732381Y-116823333D02*
X121732381Y-117394762D01*
X121732381Y-117109048D02*
X120732381Y-117109048D01*
X120875238Y-117204286D01*
X120970476Y-117299524D01*
X121018095Y-117394762D01*
X169002381Y-107633333D02*
X169716667Y-107633333D01*
X169859524Y-107680953D01*
X169954762Y-107776191D01*
X170002381Y-107919048D01*
X170002381Y-108014286D01*
X169097619Y-107204762D02*
X169050000Y-107157143D01*
X169002381Y-107061905D01*
X169002381Y-106823809D01*
X169050000Y-106728571D01*
X169097619Y-106680952D01*
X169192857Y-106633333D01*
X169288095Y-106633333D01*
X169430952Y-106680952D01*
X170002381Y-107252381D01*
X170002381Y-106633333D01*
X150992381Y-97956666D02*
X150516190Y-98290000D01*
X150992381Y-98528095D02*
X149992381Y-98528095D01*
X149992381Y-98147142D01*
X150040000Y-98051904D01*
X150087619Y-98004285D01*
X150182857Y-97956666D01*
X150325714Y-97956666D01*
X150420952Y-98004285D01*
X150468571Y-98051904D01*
X150516190Y-98147142D01*
X150516190Y-98528095D01*
X150087619Y-97575714D02*
X150040000Y-97528095D01*
X149992381Y-97432857D01*
X149992381Y-97194761D01*
X150040000Y-97099523D01*
X150087619Y-97051904D01*
X150182857Y-97004285D01*
X150278095Y-97004285D01*
X150420952Y-97051904D01*
X150992381Y-97623333D01*
X150992381Y-97004285D01*
X150902381Y-109386666D02*
X150426190Y-109720000D01*
X150902381Y-109958095D02*
X149902381Y-109958095D01*
X149902381Y-109577142D01*
X149950000Y-109481904D01*
X149997619Y-109434285D01*
X150092857Y-109386666D01*
X150235714Y-109386666D01*
X150330952Y-109434285D01*
X150378571Y-109481904D01*
X150426190Y-109577142D01*
X150426190Y-109958095D01*
X149902381Y-109053333D02*
X149902381Y-108434285D01*
X150283333Y-108767619D01*
X150283333Y-108624761D01*
X150330952Y-108529523D01*
X150378571Y-108481904D01*
X150473810Y-108434285D01*
X150711905Y-108434285D01*
X150807143Y-108481904D01*
X150854762Y-108529523D01*
X150902381Y-108624761D01*
X150902381Y-108910476D01*
X150854762Y-109005714D01*
X150807143Y-109053333D01*
X154712381Y-109386666D02*
X154236190Y-109720000D01*
X154712381Y-109958095D02*
X153712381Y-109958095D01*
X153712381Y-109577142D01*
X153760000Y-109481904D01*
X153807619Y-109434285D01*
X153902857Y-109386666D01*
X154045714Y-109386666D01*
X154140952Y-109434285D01*
X154188571Y-109481904D01*
X154236190Y-109577142D01*
X154236190Y-109958095D01*
X154045714Y-108529523D02*
X154712381Y-108529523D01*
X153664762Y-108767619D02*
X154379048Y-109005714D01*
X154379048Y-108386666D01*
%LPC*%
D13*
X148590000Y-101600000D03*
D14*
X148590000Y-93980000D03*
D15*
X125810000Y-97790000D03*
D16*
X130810000Y-97790000D03*
D17*
X144780000Y-104140000D03*
X146050000Y-105410000D03*
D18*
X143510000Y-105410000D03*
D15*
X137240000Y-97790000D03*
D16*
X142240000Y-97790000D03*
D19*
X162560000Y-96520000D03*
D20*
X162560000Y-101520000D03*
D15*
X138430000Y-113030000D03*
D16*
X143430000Y-113030000D03*
D19*
X128270000Y-115570000D03*
D20*
X128270000Y-110570000D03*
D19*
X162560000Y-109220000D03*
D20*
X162560000Y-114220000D03*
D13*
X152400000Y-101600000D03*
D14*
X152400000Y-93980000D03*
D13*
X148590000Y-105410000D03*
D14*
X148590000Y-113030000D03*
D13*
X152400000Y-105410000D03*
D14*
X152400000Y-113030000D03*
M02*
