%FSLAX45Y45*%
G04 Gerber Fmt 4.5, Leading zero omitted, Abs format (unit mm)*
G04 Created by KiCad (PCBNEW 4.0.7) date 05/06/18 08:42:47*
%MOMM*%
%LPD*%
G01*
G04 APERTURE LIST*
%ADD10C,0.127000*%
%ADD11C,0.150000*%
%ADD12C,0.200000*%
%ADD13C,0.300000*%
G04 APERTURE END LIST*
D10*
D11*
X11938000Y-11684000D02*
G75*
G03X12319000Y-12065000I381000J0D01*
G01*
X16764000Y-12065000D02*
G75*
G03X17145000Y-11684000I0J381000D01*
G01*
X17145000Y-9398000D02*
G75*
G03X16764000Y-9017000I-381000J0D01*
G01*
X12319000Y-9017000D02*
G75*
G03X11938000Y-9398000I0J-381000D01*
G01*
X11938000Y-11684000D02*
X11938000Y-9398000D01*
X16764000Y-12065000D02*
X12319000Y-12065000D01*
X17145000Y-9398000D02*
X17145000Y-11684000D01*
X12319000Y-9017000D02*
X16764000Y-9017000D01*
D12*
X14321000Y-10511000D02*
X14381000Y-10571000D01*
X14381000Y-10511000D02*
X14321000Y-10571000D01*
X14448000Y-10384000D02*
X14508000Y-10444000D01*
X14508000Y-10384000D02*
X14448000Y-10444000D01*
X14575000Y-10511000D02*
X14635000Y-10571000D01*
X14635000Y-10511000D02*
X14575000Y-10571000D01*
X14894000Y-9398000D02*
G75*
G03X14894000Y-9398000I-35000J0D01*
G01*
X14894000Y-10160000D02*
G75*
G03X14894000Y-10160000I-35000J0D01*
G01*
X14894000Y-10541000D02*
G75*
G03X14894000Y-10541000I-35000J0D01*
G01*
X14894000Y-11303000D02*
G75*
G03X14894000Y-11303000I-35000J0D01*
G01*
X15275000Y-9398000D02*
G75*
G03X15275000Y-9398000I-35000J0D01*
G01*
X15275000Y-10160000D02*
G75*
G03X15275000Y-10160000I-35000J0D01*
G01*
X15275000Y-10541000D02*
G75*
G03X15275000Y-10541000I-35000J0D01*
G01*
X15275000Y-11303000D02*
G75*
G03X15275000Y-11303000I-35000J0D01*
G01*
X12581000Y-9729000D02*
X12581000Y-9829000D01*
X12531000Y-9779000D02*
X12631000Y-9779000D01*
X13081000Y-9729000D02*
X13081000Y-9829000D01*
X13031000Y-9779000D02*
X13131000Y-9779000D01*
X13724000Y-9729000D02*
X13724000Y-9829000D01*
X13674000Y-9779000D02*
X13774000Y-9779000D01*
X13843000Y-11253000D02*
X13843000Y-11353000D01*
X13793000Y-11303000D02*
X13893000Y-11303000D01*
X14224000Y-9729000D02*
X14224000Y-9829000D01*
X14174000Y-9779000D02*
X14274000Y-9779000D01*
X14343000Y-11253000D02*
X14343000Y-11353000D01*
X14293000Y-11303000D02*
X14393000Y-11303000D01*
X12873669Y-11103670D02*
X12873669Y-11010331D01*
X12780330Y-11010331D01*
X12780330Y-11103670D01*
X12873669Y-11103670D01*
X12873669Y-11603669D02*
X12873669Y-11510330D01*
X12780330Y-11510330D01*
X12780330Y-11603669D01*
X12873669Y-11603669D01*
X16302669Y-9698670D02*
X16302669Y-9605331D01*
X16209330Y-9605331D01*
X16209330Y-9698670D01*
X16302669Y-9698670D01*
X16302669Y-10198670D02*
X16302669Y-10105331D01*
X16209330Y-10105331D01*
X16209330Y-10198670D01*
X16302669Y-10198670D01*
X16302669Y-10968670D02*
X16302669Y-10875331D01*
X16209330Y-10875331D01*
X16209330Y-10968670D01*
X16302669Y-10968670D01*
X16302669Y-11468669D02*
X16302669Y-11375330D01*
X16209330Y-11375330D01*
X16209330Y-11468669D01*
X16302669Y-11468669D01*
D13*
X12201928Y-12538214D02*
X12201928Y-12238214D01*
X12273357Y-12238214D01*
X12316214Y-12252500D01*
X12344786Y-12281071D01*
X12359071Y-12309643D01*
X12373357Y-12366786D01*
X12373357Y-12409643D01*
X12359071Y-12466786D01*
X12344786Y-12495357D01*
X12316214Y-12523929D01*
X12273357Y-12538214D01*
X12201928Y-12538214D01*
X12501928Y-12538214D02*
X12501928Y-12338214D01*
X12501928Y-12395357D02*
X12516214Y-12366786D01*
X12530500Y-12352500D01*
X12559071Y-12338214D01*
X12587643Y-12338214D01*
X12687643Y-12538214D02*
X12687643Y-12338214D01*
X12687643Y-12238214D02*
X12673357Y-12252500D01*
X12687643Y-12266786D01*
X12701928Y-12252500D01*
X12687643Y-12238214D01*
X12687643Y-12266786D01*
X12873357Y-12538214D02*
X12844786Y-12523929D01*
X12830500Y-12495357D01*
X12830500Y-12238214D01*
X13030500Y-12538214D02*
X13001928Y-12523929D01*
X12987643Y-12495357D01*
X12987643Y-12238214D01*
X13373357Y-12538214D02*
X13373357Y-12238214D01*
X13473357Y-12452500D01*
X13573357Y-12238214D01*
X13573357Y-12538214D01*
X13844786Y-12538214D02*
X13844786Y-12381071D01*
X13830500Y-12352500D01*
X13801928Y-12338214D01*
X13744786Y-12338214D01*
X13716214Y-12352500D01*
X13844786Y-12523929D02*
X13816214Y-12538214D01*
X13744786Y-12538214D01*
X13716214Y-12523929D01*
X13701928Y-12495357D01*
X13701928Y-12466786D01*
X13716214Y-12438214D01*
X13744786Y-12423929D01*
X13816214Y-12423929D01*
X13844786Y-12409643D01*
X13987643Y-12338214D02*
X13987643Y-12638214D01*
X13987643Y-12352500D02*
X14016214Y-12338214D01*
X14073357Y-12338214D01*
X14101928Y-12352500D01*
X14116214Y-12366786D01*
X14130500Y-12395357D01*
X14130500Y-12481071D01*
X14116214Y-12509643D01*
X14101928Y-12523929D01*
X14073357Y-12538214D01*
X14016214Y-12538214D01*
X13987643Y-12523929D01*
X14259071Y-12509643D02*
X14273357Y-12523929D01*
X14259071Y-12538214D01*
X14244786Y-12523929D01*
X14259071Y-12509643D01*
X14259071Y-12538214D01*
X14259071Y-12352500D02*
X14273357Y-12366786D01*
X14259071Y-12381071D01*
X14244786Y-12366786D01*
X14259071Y-12352500D01*
X14259071Y-12381071D01*
X11870500Y-13002500D02*
X11930500Y-13062500D01*
X11930500Y-13002500D02*
X11870500Y-13062500D01*
X12259071Y-12868214D02*
X12287643Y-12868214D01*
X12316214Y-12882500D01*
X12330500Y-12896786D01*
X12344786Y-12925357D01*
X12359071Y-12982500D01*
X12359071Y-13053929D01*
X12344786Y-13111071D01*
X12330500Y-13139643D01*
X12316214Y-13153929D01*
X12287643Y-13168214D01*
X12259071Y-13168214D01*
X12230500Y-13153929D01*
X12216214Y-13139643D01*
X12201928Y-13111071D01*
X12187643Y-13053929D01*
X12187643Y-12982500D01*
X12201928Y-12925357D01*
X12216214Y-12896786D01*
X12230500Y-12882500D01*
X12259071Y-12868214D01*
X12487643Y-13139643D02*
X12501928Y-13153929D01*
X12487643Y-13168214D01*
X12473357Y-13153929D01*
X12487643Y-13139643D01*
X12487643Y-13168214D01*
X12759071Y-12868214D02*
X12701928Y-12868214D01*
X12673357Y-12882500D01*
X12659071Y-12896786D01*
X12630500Y-12939643D01*
X12616214Y-12996786D01*
X12616214Y-13111071D01*
X12630500Y-13139643D01*
X12644786Y-13153929D01*
X12673357Y-13168214D01*
X12730500Y-13168214D01*
X12759071Y-13153929D01*
X12773357Y-13139643D01*
X12787643Y-13111071D01*
X12787643Y-13039643D01*
X12773357Y-13011071D01*
X12759071Y-12996786D01*
X12730500Y-12982500D01*
X12673357Y-12982500D01*
X12644786Y-12996786D01*
X12630500Y-13011071D01*
X12616214Y-13039643D01*
X12973357Y-12868214D02*
X13001928Y-12868214D01*
X13030500Y-12882500D01*
X13044786Y-12896786D01*
X13059071Y-12925357D01*
X13073357Y-12982500D01*
X13073357Y-13053929D01*
X13059071Y-13111071D01*
X13044786Y-13139643D01*
X13030500Y-13153929D01*
X13001928Y-13168214D01*
X12973357Y-13168214D01*
X12944786Y-13153929D01*
X12930500Y-13139643D01*
X12916214Y-13111071D01*
X12901928Y-13053929D01*
X12901928Y-12982500D01*
X12916214Y-12925357D01*
X12930500Y-12896786D01*
X12944786Y-12882500D01*
X12973357Y-12868214D01*
X13201928Y-13168214D02*
X13201928Y-12968214D01*
X13201928Y-12996786D02*
X13216214Y-12982500D01*
X13244786Y-12968214D01*
X13287643Y-12968214D01*
X13316214Y-12982500D01*
X13330500Y-13011071D01*
X13330500Y-13168214D01*
X13330500Y-13011071D02*
X13344786Y-12982500D01*
X13373357Y-12968214D01*
X13416214Y-12968214D01*
X13444786Y-12982500D01*
X13459071Y-13011071D01*
X13459071Y-13168214D01*
X13601928Y-13168214D02*
X13601928Y-12968214D01*
X13601928Y-12996786D02*
X13616214Y-12982500D01*
X13644786Y-12968214D01*
X13687643Y-12968214D01*
X13716214Y-12982500D01*
X13730500Y-13011071D01*
X13730500Y-13168214D01*
X13730500Y-13011071D02*
X13744786Y-12982500D01*
X13773357Y-12968214D01*
X13816214Y-12968214D01*
X13844786Y-12982500D01*
X13859071Y-13011071D01*
X13859071Y-13168214D01*
X14444786Y-12853929D02*
X14187643Y-13239643D01*
X14830500Y-12868214D02*
X14859071Y-12868214D01*
X14887643Y-12882500D01*
X14901928Y-12896786D01*
X14916214Y-12925357D01*
X14930500Y-12982500D01*
X14930500Y-13053929D01*
X14916214Y-13111071D01*
X14901928Y-13139643D01*
X14887643Y-13153929D01*
X14859071Y-13168214D01*
X14830500Y-13168214D01*
X14801928Y-13153929D01*
X14787643Y-13139643D01*
X14773357Y-13111071D01*
X14759071Y-13053929D01*
X14759071Y-12982500D01*
X14773357Y-12925357D01*
X14787643Y-12896786D01*
X14801928Y-12882500D01*
X14830500Y-12868214D01*
X15059071Y-13139643D02*
X15073357Y-13153929D01*
X15059071Y-13168214D01*
X15044786Y-13153929D01*
X15059071Y-13139643D01*
X15059071Y-13168214D01*
X15259071Y-12868214D02*
X15287643Y-12868214D01*
X15316214Y-12882500D01*
X15330500Y-12896786D01*
X15344785Y-12925357D01*
X15359071Y-12982500D01*
X15359071Y-13053929D01*
X15344785Y-13111071D01*
X15330500Y-13139643D01*
X15316214Y-13153929D01*
X15287643Y-13168214D01*
X15259071Y-13168214D01*
X15230500Y-13153929D01*
X15216214Y-13139643D01*
X15201928Y-13111071D01*
X15187643Y-13053929D01*
X15187643Y-12982500D01*
X15201928Y-12925357D01*
X15216214Y-12896786D01*
X15230500Y-12882500D01*
X15259071Y-12868214D01*
X15473357Y-12896786D02*
X15487643Y-12882500D01*
X15516214Y-12868214D01*
X15587643Y-12868214D01*
X15616214Y-12882500D01*
X15630500Y-12896786D01*
X15644785Y-12925357D01*
X15644785Y-12953929D01*
X15630500Y-12996786D01*
X15459071Y-13168214D01*
X15644785Y-13168214D01*
X15901928Y-12968214D02*
X15901928Y-13168214D01*
X15830500Y-12853929D02*
X15759071Y-13068214D01*
X15944785Y-13068214D01*
X16044786Y-12868214D02*
X16044786Y-12925357D01*
X16159071Y-12868214D02*
X16159071Y-12925357D01*
X16601928Y-13282500D02*
X16587643Y-13268214D01*
X16559071Y-13225357D01*
X16544785Y-13196786D01*
X16530500Y-13153929D01*
X16516214Y-13082500D01*
X16516214Y-13025357D01*
X16530500Y-12953929D01*
X16544785Y-12911071D01*
X16559071Y-12882500D01*
X16587643Y-12839643D01*
X16601928Y-12825357D01*
X16687643Y-12868214D02*
X16873357Y-12868214D01*
X16773357Y-12982500D01*
X16816214Y-12982500D01*
X16844786Y-12996786D01*
X16859071Y-13011071D01*
X16873357Y-13039643D01*
X16873357Y-13111071D01*
X16859071Y-13139643D01*
X16844786Y-13153929D01*
X16816214Y-13168214D01*
X16730500Y-13168214D01*
X16701928Y-13153929D01*
X16687643Y-13139643D01*
X17230500Y-13168214D02*
X17230500Y-12868214D01*
X17359071Y-13168214D02*
X17359071Y-13011071D01*
X17344786Y-12982500D01*
X17316214Y-12968214D01*
X17273357Y-12968214D01*
X17244786Y-12982500D01*
X17230500Y-12996786D01*
X17544786Y-13168214D02*
X17516214Y-13153929D01*
X17501928Y-13139643D01*
X17487643Y-13111071D01*
X17487643Y-13025357D01*
X17501928Y-12996786D01*
X17516214Y-12982500D01*
X17544786Y-12968214D01*
X17587643Y-12968214D01*
X17616214Y-12982500D01*
X17630500Y-12996786D01*
X17644786Y-13025357D01*
X17644786Y-13111071D01*
X17630500Y-13139643D01*
X17616214Y-13153929D01*
X17587643Y-13168214D01*
X17544786Y-13168214D01*
X17816214Y-13168214D02*
X17787643Y-13153929D01*
X17773357Y-13125357D01*
X17773357Y-12868214D01*
X18044786Y-13153929D02*
X18016214Y-13168214D01*
X17959071Y-13168214D01*
X17930500Y-13153929D01*
X17916214Y-13125357D01*
X17916214Y-13011071D01*
X17930500Y-12982500D01*
X17959071Y-12968214D01*
X18016214Y-12968214D01*
X18044786Y-12982500D01*
X18059071Y-13011071D01*
X18059071Y-13039643D01*
X17916214Y-13068214D01*
X18173357Y-13153929D02*
X18201929Y-13168214D01*
X18259071Y-13168214D01*
X18287643Y-13153929D01*
X18301929Y-13125357D01*
X18301929Y-13111071D01*
X18287643Y-13082500D01*
X18259071Y-13068214D01*
X18216214Y-13068214D01*
X18187643Y-13053929D01*
X18173357Y-13025357D01*
X18173357Y-13011071D01*
X18187643Y-12982500D01*
X18216214Y-12968214D01*
X18259071Y-12968214D01*
X18287643Y-12982500D01*
X18401928Y-13282500D02*
X18416214Y-13268214D01*
X18444786Y-13225357D01*
X18459071Y-13196786D01*
X18473357Y-13153929D01*
X18487643Y-13082500D01*
X18487643Y-13025357D01*
X18473357Y-12953929D01*
X18459071Y-12911071D01*
X18444786Y-12882500D01*
X18416214Y-12839643D01*
X18401928Y-12825357D01*
X11930500Y-13428500D02*
G75*
G03X11930500Y-13428500I-35000J0D01*
G01*
X12259071Y-13264214D02*
X12287643Y-13264214D01*
X12316214Y-13278500D01*
X12330500Y-13292786D01*
X12344786Y-13321357D01*
X12359071Y-13378500D01*
X12359071Y-13449929D01*
X12344786Y-13507071D01*
X12330500Y-13535643D01*
X12316214Y-13549929D01*
X12287643Y-13564214D01*
X12259071Y-13564214D01*
X12230500Y-13549929D01*
X12216214Y-13535643D01*
X12201928Y-13507071D01*
X12187643Y-13449929D01*
X12187643Y-13378500D01*
X12201928Y-13321357D01*
X12216214Y-13292786D01*
X12230500Y-13278500D01*
X12259071Y-13264214D01*
X12487643Y-13535643D02*
X12501928Y-13549929D01*
X12487643Y-13564214D01*
X12473357Y-13549929D01*
X12487643Y-13535643D01*
X12487643Y-13564214D01*
X12601928Y-13264214D02*
X12801928Y-13264214D01*
X12673357Y-13564214D01*
X12973357Y-13264214D02*
X13001928Y-13264214D01*
X13030500Y-13278500D01*
X13044786Y-13292786D01*
X13059071Y-13321357D01*
X13073357Y-13378500D01*
X13073357Y-13449929D01*
X13059071Y-13507071D01*
X13044786Y-13535643D01*
X13030500Y-13549929D01*
X13001928Y-13564214D01*
X12973357Y-13564214D01*
X12944786Y-13549929D01*
X12930500Y-13535643D01*
X12916214Y-13507071D01*
X12901928Y-13449929D01*
X12901928Y-13378500D01*
X12916214Y-13321357D01*
X12930500Y-13292786D01*
X12944786Y-13278500D01*
X12973357Y-13264214D01*
X13201928Y-13564214D02*
X13201928Y-13364214D01*
X13201928Y-13392786D02*
X13216214Y-13378500D01*
X13244786Y-13364214D01*
X13287643Y-13364214D01*
X13316214Y-13378500D01*
X13330500Y-13407071D01*
X13330500Y-13564214D01*
X13330500Y-13407071D02*
X13344786Y-13378500D01*
X13373357Y-13364214D01*
X13416214Y-13364214D01*
X13444786Y-13378500D01*
X13459071Y-13407071D01*
X13459071Y-13564214D01*
X13601928Y-13564214D02*
X13601928Y-13364214D01*
X13601928Y-13392786D02*
X13616214Y-13378500D01*
X13644786Y-13364214D01*
X13687643Y-13364214D01*
X13716214Y-13378500D01*
X13730500Y-13407071D01*
X13730500Y-13564214D01*
X13730500Y-13407071D02*
X13744786Y-13378500D01*
X13773357Y-13364214D01*
X13816214Y-13364214D01*
X13844786Y-13378500D01*
X13859071Y-13407071D01*
X13859071Y-13564214D01*
X14444786Y-13249929D02*
X14187643Y-13635643D01*
X14830500Y-13264214D02*
X14859071Y-13264214D01*
X14887643Y-13278500D01*
X14901928Y-13292786D01*
X14916214Y-13321357D01*
X14930500Y-13378500D01*
X14930500Y-13449929D01*
X14916214Y-13507071D01*
X14901928Y-13535643D01*
X14887643Y-13549929D01*
X14859071Y-13564214D01*
X14830500Y-13564214D01*
X14801928Y-13549929D01*
X14787643Y-13535643D01*
X14773357Y-13507071D01*
X14759071Y-13449929D01*
X14759071Y-13378500D01*
X14773357Y-13321357D01*
X14787643Y-13292786D01*
X14801928Y-13278500D01*
X14830500Y-13264214D01*
X15059071Y-13535643D02*
X15073357Y-13549929D01*
X15059071Y-13564214D01*
X15044786Y-13549929D01*
X15059071Y-13535643D01*
X15059071Y-13564214D01*
X15259071Y-13264214D02*
X15287643Y-13264214D01*
X15316214Y-13278500D01*
X15330500Y-13292786D01*
X15344785Y-13321357D01*
X15359071Y-13378500D01*
X15359071Y-13449929D01*
X15344785Y-13507071D01*
X15330500Y-13535643D01*
X15316214Y-13549929D01*
X15287643Y-13564214D01*
X15259071Y-13564214D01*
X15230500Y-13549929D01*
X15216214Y-13535643D01*
X15201928Y-13507071D01*
X15187643Y-13449929D01*
X15187643Y-13378500D01*
X15201928Y-13321357D01*
X15216214Y-13292786D01*
X15230500Y-13278500D01*
X15259071Y-13264214D01*
X15473357Y-13292786D02*
X15487643Y-13278500D01*
X15516214Y-13264214D01*
X15587643Y-13264214D01*
X15616214Y-13278500D01*
X15630500Y-13292786D01*
X15644785Y-13321357D01*
X15644785Y-13349929D01*
X15630500Y-13392786D01*
X15459071Y-13564214D01*
X15644785Y-13564214D01*
X15816214Y-13392786D02*
X15787643Y-13378500D01*
X15773357Y-13364214D01*
X15759071Y-13335643D01*
X15759071Y-13321357D01*
X15773357Y-13292786D01*
X15787643Y-13278500D01*
X15816214Y-13264214D01*
X15873357Y-13264214D01*
X15901928Y-13278500D01*
X15916214Y-13292786D01*
X15930500Y-13321357D01*
X15930500Y-13335643D01*
X15916214Y-13364214D01*
X15901928Y-13378500D01*
X15873357Y-13392786D01*
X15816214Y-13392786D01*
X15787643Y-13407071D01*
X15773357Y-13421357D01*
X15759071Y-13449929D01*
X15759071Y-13507071D01*
X15773357Y-13535643D01*
X15787643Y-13549929D01*
X15816214Y-13564214D01*
X15873357Y-13564214D01*
X15901928Y-13549929D01*
X15916214Y-13535643D01*
X15930500Y-13507071D01*
X15930500Y-13449929D01*
X15916214Y-13421357D01*
X15901928Y-13407071D01*
X15873357Y-13392786D01*
X16044786Y-13264214D02*
X16044786Y-13321357D01*
X16159071Y-13264214D02*
X16159071Y-13321357D01*
X16601928Y-13678500D02*
X16587643Y-13664214D01*
X16559071Y-13621357D01*
X16544785Y-13592786D01*
X16530500Y-13549929D01*
X16516214Y-13478500D01*
X16516214Y-13421357D01*
X16530500Y-13349929D01*
X16544785Y-13307071D01*
X16559071Y-13278500D01*
X16587643Y-13235643D01*
X16601928Y-13221357D01*
X16759071Y-13392786D02*
X16730500Y-13378500D01*
X16716214Y-13364214D01*
X16701928Y-13335643D01*
X16701928Y-13321357D01*
X16716214Y-13292786D01*
X16730500Y-13278500D01*
X16759071Y-13264214D01*
X16816214Y-13264214D01*
X16844786Y-13278500D01*
X16859071Y-13292786D01*
X16873357Y-13321357D01*
X16873357Y-13335643D01*
X16859071Y-13364214D01*
X16844786Y-13378500D01*
X16816214Y-13392786D01*
X16759071Y-13392786D01*
X16730500Y-13407071D01*
X16716214Y-13421357D01*
X16701928Y-13449929D01*
X16701928Y-13507071D01*
X16716214Y-13535643D01*
X16730500Y-13549929D01*
X16759071Y-13564214D01*
X16816214Y-13564214D01*
X16844786Y-13549929D01*
X16859071Y-13535643D01*
X16873357Y-13507071D01*
X16873357Y-13449929D01*
X16859071Y-13421357D01*
X16844786Y-13407071D01*
X16816214Y-13392786D01*
X17230500Y-13564214D02*
X17230500Y-13264214D01*
X17359071Y-13564214D02*
X17359071Y-13407071D01*
X17344786Y-13378500D01*
X17316214Y-13364214D01*
X17273357Y-13364214D01*
X17244786Y-13378500D01*
X17230500Y-13392786D01*
X17544786Y-13564214D02*
X17516214Y-13549929D01*
X17501928Y-13535643D01*
X17487643Y-13507071D01*
X17487643Y-13421357D01*
X17501928Y-13392786D01*
X17516214Y-13378500D01*
X17544786Y-13364214D01*
X17587643Y-13364214D01*
X17616214Y-13378500D01*
X17630500Y-13392786D01*
X17644786Y-13421357D01*
X17644786Y-13507071D01*
X17630500Y-13535643D01*
X17616214Y-13549929D01*
X17587643Y-13564214D01*
X17544786Y-13564214D01*
X17816214Y-13564214D02*
X17787643Y-13549929D01*
X17773357Y-13521357D01*
X17773357Y-13264214D01*
X18044786Y-13549929D02*
X18016214Y-13564214D01*
X17959071Y-13564214D01*
X17930500Y-13549929D01*
X17916214Y-13521357D01*
X17916214Y-13407071D01*
X17930500Y-13378500D01*
X17959071Y-13364214D01*
X18016214Y-13364214D01*
X18044786Y-13378500D01*
X18059071Y-13407071D01*
X18059071Y-13435643D01*
X17916214Y-13464214D01*
X18173357Y-13549929D02*
X18201929Y-13564214D01*
X18259071Y-13564214D01*
X18287643Y-13549929D01*
X18301929Y-13521357D01*
X18301929Y-13507071D01*
X18287643Y-13478500D01*
X18259071Y-13464214D01*
X18216214Y-13464214D01*
X18187643Y-13449929D01*
X18173357Y-13421357D01*
X18173357Y-13407071D01*
X18187643Y-13378500D01*
X18216214Y-13364214D01*
X18259071Y-13364214D01*
X18287643Y-13378500D01*
X18401928Y-13678500D02*
X18416214Y-13664214D01*
X18444786Y-13621357D01*
X18459071Y-13592786D01*
X18473357Y-13549929D01*
X18487643Y-13478500D01*
X18487643Y-13421357D01*
X18473357Y-13349929D01*
X18459071Y-13307071D01*
X18444786Y-13278500D01*
X18416214Y-13235643D01*
X18401928Y-13221357D01*
X11880500Y-13774500D02*
X11880500Y-13874500D01*
X11830500Y-13824500D02*
X11930500Y-13824500D01*
X12359071Y-13960214D02*
X12187643Y-13960214D01*
X12273357Y-13960214D02*
X12273357Y-13660214D01*
X12244786Y-13703071D01*
X12216214Y-13731643D01*
X12187643Y-13745929D01*
X12487643Y-13931643D02*
X12501928Y-13945929D01*
X12487643Y-13960214D01*
X12473357Y-13945929D01*
X12487643Y-13931643D01*
X12487643Y-13960214D01*
X12687643Y-13660214D02*
X12716214Y-13660214D01*
X12744786Y-13674500D01*
X12759071Y-13688786D01*
X12773357Y-13717357D01*
X12787643Y-13774500D01*
X12787643Y-13845929D01*
X12773357Y-13903071D01*
X12759071Y-13931643D01*
X12744786Y-13945929D01*
X12716214Y-13960214D01*
X12687643Y-13960214D01*
X12659071Y-13945929D01*
X12644786Y-13931643D01*
X12630500Y-13903071D01*
X12616214Y-13845929D01*
X12616214Y-13774500D01*
X12630500Y-13717357D01*
X12644786Y-13688786D01*
X12659071Y-13674500D01*
X12687643Y-13660214D01*
X12973357Y-13660214D02*
X13001928Y-13660214D01*
X13030500Y-13674500D01*
X13044786Y-13688786D01*
X13059071Y-13717357D01*
X13073357Y-13774500D01*
X13073357Y-13845929D01*
X13059071Y-13903071D01*
X13044786Y-13931643D01*
X13030500Y-13945929D01*
X13001928Y-13960214D01*
X12973357Y-13960214D01*
X12944786Y-13945929D01*
X12930500Y-13931643D01*
X12916214Y-13903071D01*
X12901928Y-13845929D01*
X12901928Y-13774500D01*
X12916214Y-13717357D01*
X12930500Y-13688786D01*
X12944786Y-13674500D01*
X12973357Y-13660214D01*
X13201928Y-13960214D02*
X13201928Y-13760214D01*
X13201928Y-13788786D02*
X13216214Y-13774500D01*
X13244786Y-13760214D01*
X13287643Y-13760214D01*
X13316214Y-13774500D01*
X13330500Y-13803071D01*
X13330500Y-13960214D01*
X13330500Y-13803071D02*
X13344786Y-13774500D01*
X13373357Y-13760214D01*
X13416214Y-13760214D01*
X13444786Y-13774500D01*
X13459071Y-13803071D01*
X13459071Y-13960214D01*
X13601928Y-13960214D02*
X13601928Y-13760214D01*
X13601928Y-13788786D02*
X13616214Y-13774500D01*
X13644786Y-13760214D01*
X13687643Y-13760214D01*
X13716214Y-13774500D01*
X13730500Y-13803071D01*
X13730500Y-13960214D01*
X13730500Y-13803071D02*
X13744786Y-13774500D01*
X13773357Y-13760214D01*
X13816214Y-13760214D01*
X13844786Y-13774500D01*
X13859071Y-13803071D01*
X13859071Y-13960214D01*
X14444786Y-13645929D02*
X14187643Y-14031643D01*
X14830500Y-13660214D02*
X14859071Y-13660214D01*
X14887643Y-13674500D01*
X14901928Y-13688786D01*
X14916214Y-13717357D01*
X14930500Y-13774500D01*
X14930500Y-13845929D01*
X14916214Y-13903071D01*
X14901928Y-13931643D01*
X14887643Y-13945929D01*
X14859071Y-13960214D01*
X14830500Y-13960214D01*
X14801928Y-13945929D01*
X14787643Y-13931643D01*
X14773357Y-13903071D01*
X14759071Y-13845929D01*
X14759071Y-13774500D01*
X14773357Y-13717357D01*
X14787643Y-13688786D01*
X14801928Y-13674500D01*
X14830500Y-13660214D01*
X15059071Y-13931643D02*
X15073357Y-13945929D01*
X15059071Y-13960214D01*
X15044786Y-13945929D01*
X15059071Y-13931643D01*
X15059071Y-13960214D01*
X15259071Y-13660214D02*
X15287643Y-13660214D01*
X15316214Y-13674500D01*
X15330500Y-13688786D01*
X15344785Y-13717357D01*
X15359071Y-13774500D01*
X15359071Y-13845929D01*
X15344785Y-13903071D01*
X15330500Y-13931643D01*
X15316214Y-13945929D01*
X15287643Y-13960214D01*
X15259071Y-13960214D01*
X15230500Y-13945929D01*
X15216214Y-13931643D01*
X15201928Y-13903071D01*
X15187643Y-13845929D01*
X15187643Y-13774500D01*
X15201928Y-13717357D01*
X15216214Y-13688786D01*
X15230500Y-13674500D01*
X15259071Y-13660214D01*
X15459071Y-13660214D02*
X15644785Y-13660214D01*
X15544785Y-13774500D01*
X15587643Y-13774500D01*
X15616214Y-13788786D01*
X15630500Y-13803071D01*
X15644785Y-13831643D01*
X15644785Y-13903071D01*
X15630500Y-13931643D01*
X15616214Y-13945929D01*
X15587643Y-13960214D01*
X15501928Y-13960214D01*
X15473357Y-13945929D01*
X15459071Y-13931643D01*
X15787643Y-13960214D02*
X15844785Y-13960214D01*
X15873357Y-13945929D01*
X15887643Y-13931643D01*
X15916214Y-13888786D01*
X15930500Y-13831643D01*
X15930500Y-13717357D01*
X15916214Y-13688786D01*
X15901928Y-13674500D01*
X15873357Y-13660214D01*
X15816214Y-13660214D01*
X15787643Y-13674500D01*
X15773357Y-13688786D01*
X15759071Y-13717357D01*
X15759071Y-13788786D01*
X15773357Y-13817357D01*
X15787643Y-13831643D01*
X15816214Y-13845929D01*
X15873357Y-13845929D01*
X15901928Y-13831643D01*
X15916214Y-13817357D01*
X15930500Y-13788786D01*
X16044786Y-13660214D02*
X16044786Y-13717357D01*
X16159071Y-13660214D02*
X16159071Y-13717357D01*
X16601928Y-14074500D02*
X16587643Y-14060214D01*
X16559071Y-14017357D01*
X16544785Y-13988786D01*
X16530500Y-13945929D01*
X16516214Y-13874500D01*
X16516214Y-13817357D01*
X16530500Y-13745929D01*
X16544785Y-13703071D01*
X16559071Y-13674500D01*
X16587643Y-13631643D01*
X16601928Y-13617357D01*
X16844786Y-13660214D02*
X16787643Y-13660214D01*
X16759071Y-13674500D01*
X16744785Y-13688786D01*
X16716214Y-13731643D01*
X16701928Y-13788786D01*
X16701928Y-13903071D01*
X16716214Y-13931643D01*
X16730500Y-13945929D01*
X16759071Y-13960214D01*
X16816214Y-13960214D01*
X16844786Y-13945929D01*
X16859071Y-13931643D01*
X16873357Y-13903071D01*
X16873357Y-13831643D01*
X16859071Y-13803071D01*
X16844786Y-13788786D01*
X16816214Y-13774500D01*
X16759071Y-13774500D01*
X16730500Y-13788786D01*
X16716214Y-13803071D01*
X16701928Y-13831643D01*
X17230500Y-13960214D02*
X17230500Y-13660214D01*
X17359071Y-13960214D02*
X17359071Y-13803071D01*
X17344786Y-13774500D01*
X17316214Y-13760214D01*
X17273357Y-13760214D01*
X17244786Y-13774500D01*
X17230500Y-13788786D01*
X17544786Y-13960214D02*
X17516214Y-13945929D01*
X17501928Y-13931643D01*
X17487643Y-13903071D01*
X17487643Y-13817357D01*
X17501928Y-13788786D01*
X17516214Y-13774500D01*
X17544786Y-13760214D01*
X17587643Y-13760214D01*
X17616214Y-13774500D01*
X17630500Y-13788786D01*
X17644786Y-13817357D01*
X17644786Y-13903071D01*
X17630500Y-13931643D01*
X17616214Y-13945929D01*
X17587643Y-13960214D01*
X17544786Y-13960214D01*
X17816214Y-13960214D02*
X17787643Y-13945929D01*
X17773357Y-13917357D01*
X17773357Y-13660214D01*
X18044786Y-13945929D02*
X18016214Y-13960214D01*
X17959071Y-13960214D01*
X17930500Y-13945929D01*
X17916214Y-13917357D01*
X17916214Y-13803071D01*
X17930500Y-13774500D01*
X17959071Y-13760214D01*
X18016214Y-13760214D01*
X18044786Y-13774500D01*
X18059071Y-13803071D01*
X18059071Y-13831643D01*
X17916214Y-13860214D01*
X18173357Y-13945929D02*
X18201929Y-13960214D01*
X18259071Y-13960214D01*
X18287643Y-13945929D01*
X18301929Y-13917357D01*
X18301929Y-13903071D01*
X18287643Y-13874500D01*
X18259071Y-13860214D01*
X18216214Y-13860214D01*
X18187643Y-13845929D01*
X18173357Y-13817357D01*
X18173357Y-13803071D01*
X18187643Y-13774500D01*
X18216214Y-13760214D01*
X18259071Y-13760214D01*
X18287643Y-13774500D01*
X18401928Y-14074500D02*
X18416214Y-14060214D01*
X18444786Y-14017357D01*
X18459071Y-13988786D01*
X18473357Y-13945929D01*
X18487643Y-13874500D01*
X18487643Y-13817357D01*
X18473357Y-13745929D01*
X18459071Y-13703071D01*
X18444786Y-13674500D01*
X18416214Y-13631643D01*
X18401928Y-13617357D01*
X11911169Y-14267170D02*
X11911169Y-14173831D01*
X11817830Y-14173831D01*
X11817830Y-14267170D01*
X11911169Y-14267170D01*
X12359071Y-14356214D02*
X12187643Y-14356214D01*
X12273357Y-14356214D02*
X12273357Y-14056214D01*
X12244786Y-14099071D01*
X12216214Y-14127643D01*
X12187643Y-14141929D01*
X12487643Y-14327643D02*
X12501928Y-14341929D01*
X12487643Y-14356214D01*
X12473357Y-14341929D01*
X12487643Y-14327643D01*
X12487643Y-14356214D01*
X12601928Y-14056214D02*
X12787643Y-14056214D01*
X12687643Y-14170500D01*
X12730500Y-14170500D01*
X12759071Y-14184786D01*
X12773357Y-14199071D01*
X12787643Y-14227643D01*
X12787643Y-14299071D01*
X12773357Y-14327643D01*
X12759071Y-14341929D01*
X12730500Y-14356214D01*
X12644786Y-14356214D01*
X12616214Y-14341929D01*
X12601928Y-14327643D01*
X12901928Y-14084786D02*
X12916214Y-14070500D01*
X12944786Y-14056214D01*
X13016214Y-14056214D01*
X13044786Y-14070500D01*
X13059071Y-14084786D01*
X13073357Y-14113357D01*
X13073357Y-14141929D01*
X13059071Y-14184786D01*
X12887643Y-14356214D01*
X13073357Y-14356214D01*
X13201928Y-14356214D02*
X13201928Y-14156214D01*
X13201928Y-14184786D02*
X13216214Y-14170500D01*
X13244786Y-14156214D01*
X13287643Y-14156214D01*
X13316214Y-14170500D01*
X13330500Y-14199071D01*
X13330500Y-14356214D01*
X13330500Y-14199071D02*
X13344786Y-14170500D01*
X13373357Y-14156214D01*
X13416214Y-14156214D01*
X13444786Y-14170500D01*
X13459071Y-14199071D01*
X13459071Y-14356214D01*
X13601928Y-14356214D02*
X13601928Y-14156214D01*
X13601928Y-14184786D02*
X13616214Y-14170500D01*
X13644786Y-14156214D01*
X13687643Y-14156214D01*
X13716214Y-14170500D01*
X13730500Y-14199071D01*
X13730500Y-14356214D01*
X13730500Y-14199071D02*
X13744786Y-14170500D01*
X13773357Y-14156214D01*
X13816214Y-14156214D01*
X13844786Y-14170500D01*
X13859071Y-14199071D01*
X13859071Y-14356214D01*
X14444786Y-14041929D02*
X14187643Y-14427643D01*
X14830500Y-14056214D02*
X14859071Y-14056214D01*
X14887643Y-14070500D01*
X14901928Y-14084786D01*
X14916214Y-14113357D01*
X14930500Y-14170500D01*
X14930500Y-14241929D01*
X14916214Y-14299071D01*
X14901928Y-14327643D01*
X14887643Y-14341929D01*
X14859071Y-14356214D01*
X14830500Y-14356214D01*
X14801928Y-14341929D01*
X14787643Y-14327643D01*
X14773357Y-14299071D01*
X14759071Y-14241929D01*
X14759071Y-14170500D01*
X14773357Y-14113357D01*
X14787643Y-14084786D01*
X14801928Y-14070500D01*
X14830500Y-14056214D01*
X15059071Y-14327643D02*
X15073357Y-14341929D01*
X15059071Y-14356214D01*
X15044786Y-14341929D01*
X15059071Y-14327643D01*
X15059071Y-14356214D01*
X15259071Y-14056214D02*
X15287643Y-14056214D01*
X15316214Y-14070500D01*
X15330500Y-14084786D01*
X15344785Y-14113357D01*
X15359071Y-14170500D01*
X15359071Y-14241929D01*
X15344785Y-14299071D01*
X15330500Y-14327643D01*
X15316214Y-14341929D01*
X15287643Y-14356214D01*
X15259071Y-14356214D01*
X15230500Y-14341929D01*
X15216214Y-14327643D01*
X15201928Y-14299071D01*
X15187643Y-14241929D01*
X15187643Y-14170500D01*
X15201928Y-14113357D01*
X15216214Y-14084786D01*
X15230500Y-14070500D01*
X15259071Y-14056214D01*
X15630500Y-14056214D02*
X15487643Y-14056214D01*
X15473357Y-14199071D01*
X15487643Y-14184786D01*
X15516214Y-14170500D01*
X15587643Y-14170500D01*
X15616214Y-14184786D01*
X15630500Y-14199071D01*
X15644785Y-14227643D01*
X15644785Y-14299071D01*
X15630500Y-14327643D01*
X15616214Y-14341929D01*
X15587643Y-14356214D01*
X15516214Y-14356214D01*
X15487643Y-14341929D01*
X15473357Y-14327643D01*
X15759071Y-14084786D02*
X15773357Y-14070500D01*
X15801928Y-14056214D01*
X15873357Y-14056214D01*
X15901928Y-14070500D01*
X15916214Y-14084786D01*
X15930500Y-14113357D01*
X15930500Y-14141929D01*
X15916214Y-14184786D01*
X15744785Y-14356214D01*
X15930500Y-14356214D01*
X16044786Y-14056214D02*
X16044786Y-14113357D01*
X16159071Y-14056214D02*
X16159071Y-14113357D01*
X16601928Y-14470500D02*
X16587643Y-14456214D01*
X16559071Y-14413357D01*
X16544785Y-14384786D01*
X16530500Y-14341929D01*
X16516214Y-14270500D01*
X16516214Y-14213357D01*
X16530500Y-14141929D01*
X16544785Y-14099071D01*
X16559071Y-14070500D01*
X16587643Y-14027643D01*
X16601928Y-14013357D01*
X16844786Y-14056214D02*
X16787643Y-14056214D01*
X16759071Y-14070500D01*
X16744785Y-14084786D01*
X16716214Y-14127643D01*
X16701928Y-14184786D01*
X16701928Y-14299071D01*
X16716214Y-14327643D01*
X16730500Y-14341929D01*
X16759071Y-14356214D01*
X16816214Y-14356214D01*
X16844786Y-14341929D01*
X16859071Y-14327643D01*
X16873357Y-14299071D01*
X16873357Y-14227643D01*
X16859071Y-14199071D01*
X16844786Y-14184786D01*
X16816214Y-14170500D01*
X16759071Y-14170500D01*
X16730500Y-14184786D01*
X16716214Y-14199071D01*
X16701928Y-14227643D01*
X17230500Y-14356214D02*
X17230500Y-14056214D01*
X17359071Y-14356214D02*
X17359071Y-14199071D01*
X17344786Y-14170500D01*
X17316214Y-14156214D01*
X17273357Y-14156214D01*
X17244786Y-14170500D01*
X17230500Y-14184786D01*
X17544786Y-14356214D02*
X17516214Y-14341929D01*
X17501928Y-14327643D01*
X17487643Y-14299071D01*
X17487643Y-14213357D01*
X17501928Y-14184786D01*
X17516214Y-14170500D01*
X17544786Y-14156214D01*
X17587643Y-14156214D01*
X17616214Y-14170500D01*
X17630500Y-14184786D01*
X17644786Y-14213357D01*
X17644786Y-14299071D01*
X17630500Y-14327643D01*
X17616214Y-14341929D01*
X17587643Y-14356214D01*
X17544786Y-14356214D01*
X17816214Y-14356214D02*
X17787643Y-14341929D01*
X17773357Y-14313357D01*
X17773357Y-14056214D01*
X18044786Y-14341929D02*
X18016214Y-14356214D01*
X17959071Y-14356214D01*
X17930500Y-14341929D01*
X17916214Y-14313357D01*
X17916214Y-14199071D01*
X17930500Y-14170500D01*
X17959071Y-14156214D01*
X18016214Y-14156214D01*
X18044786Y-14170500D01*
X18059071Y-14199071D01*
X18059071Y-14227643D01*
X17916214Y-14256214D01*
X18173357Y-14341929D02*
X18201929Y-14356214D01*
X18259071Y-14356214D01*
X18287643Y-14341929D01*
X18301929Y-14313357D01*
X18301929Y-14299071D01*
X18287643Y-14270500D01*
X18259071Y-14256214D01*
X18216214Y-14256214D01*
X18187643Y-14241929D01*
X18173357Y-14213357D01*
X18173357Y-14199071D01*
X18187643Y-14170500D01*
X18216214Y-14156214D01*
X18259071Y-14156214D01*
X18287643Y-14170500D01*
X18401928Y-14470500D02*
X18416214Y-14456214D01*
X18444786Y-14413357D01*
X18459071Y-14384786D01*
X18473357Y-14341929D01*
X18487643Y-14270500D01*
X18487643Y-14213357D01*
X18473357Y-14141929D01*
X18459071Y-14099071D01*
X18444786Y-14070500D01*
X18416214Y-14027643D01*
X18401928Y-14013357D01*
M02*
