G04 #@! TF.FileFunction,Copper,L2,Bot,Plane*
%FSLAX46Y46*%
G04 Gerber Fmt 4.6, Leading zero omitted, Abs format (unit mm)*
G04 Created by KiCad (PCBNEW 4.0.7) date 05/06/18 08:41:46*
%MOMM*%
%LPD*%
G01*
G04 APERTURE LIST*
%ADD10C,0.100000*%
%ADD11C,1.400000*%
%ADD12O,1.400000X1.400000*%
%ADD13R,2.000000X2.000000*%
%ADD14C,2.000000*%
%ADD15C,1.000000*%
%ADD16R,1.000000X1.000000*%
%ADD17R,3.960000X1.980000*%
%ADD18O,3.960000X1.980000*%
%ADD19C,0.254000*%
G04 APERTURE END LIST*
D10*
D11*
X148590000Y-101600000D03*
D12*
X148590000Y-93980000D03*
D13*
X125810000Y-97790000D03*
D14*
X130810000Y-97790000D03*
D15*
X144780000Y-104140000D03*
X146050000Y-105410000D03*
D16*
X143510000Y-105410000D03*
D13*
X137240000Y-97790000D03*
D14*
X142240000Y-97790000D03*
D17*
X162560000Y-96520000D03*
D18*
X162560000Y-101520000D03*
D13*
X138430000Y-113030000D03*
D14*
X143430000Y-113030000D03*
D17*
X128270000Y-115570000D03*
D18*
X128270000Y-110570000D03*
D17*
X162560000Y-109220000D03*
D18*
X162560000Y-114220000D03*
D11*
X152400000Y-101600000D03*
D12*
X152400000Y-93980000D03*
D11*
X148590000Y-105410000D03*
D12*
X148590000Y-113030000D03*
D11*
X152400000Y-105410000D03*
D12*
X152400000Y-113030000D03*
D19*
G36*
X168783000Y-92762606D02*
X168783000Y-118057394D01*
X167587394Y-119253000D01*
X123242606Y-119253000D01*
X122047000Y-118057394D01*
X122047000Y-114580000D01*
X125642560Y-114580000D01*
X125642560Y-116560000D01*
X125686838Y-116795317D01*
X125825910Y-117011441D01*
X126038110Y-117156431D01*
X126290000Y-117207440D01*
X130250000Y-117207440D01*
X130485317Y-117163162D01*
X130701441Y-117024090D01*
X130846431Y-116811890D01*
X130897440Y-116560000D01*
X130897440Y-114580000D01*
X130853162Y-114344683D01*
X130714090Y-114128559D01*
X130501890Y-113983569D01*
X130250000Y-113932560D01*
X126290000Y-113932560D01*
X126054683Y-113976838D01*
X125838559Y-114115910D01*
X125693569Y-114328110D01*
X125642560Y-114580000D01*
X122047000Y-114580000D01*
X122047000Y-110570000D01*
X125603769Y-110570000D01*
X125727465Y-111191861D01*
X126079720Y-111719049D01*
X126606908Y-112071304D01*
X127228769Y-112195000D01*
X129311231Y-112195000D01*
X129933092Y-112071304D01*
X129994907Y-112030000D01*
X136782560Y-112030000D01*
X136782560Y-114030000D01*
X136826838Y-114265317D01*
X136965910Y-114481441D01*
X137178110Y-114626431D01*
X137430000Y-114677440D01*
X139430000Y-114677440D01*
X139665317Y-114633162D01*
X139881441Y-114494090D01*
X140026431Y-114281890D01*
X140077440Y-114030000D01*
X140077440Y-113353795D01*
X141794716Y-113353795D01*
X142043106Y-113954943D01*
X142502637Y-114415278D01*
X143103352Y-114664716D01*
X143753795Y-114665284D01*
X144354943Y-114416894D01*
X144815278Y-113957363D01*
X145064716Y-113356648D01*
X145065024Y-113003846D01*
X147255000Y-113003846D01*
X147255000Y-113056154D01*
X147356621Y-113567036D01*
X147646012Y-114000142D01*
X148079118Y-114289533D01*
X148590000Y-114391154D01*
X149100882Y-114289533D01*
X149533988Y-114000142D01*
X149823379Y-113567036D01*
X149925000Y-113056154D01*
X149925000Y-113003846D01*
X151065000Y-113003846D01*
X151065000Y-113056154D01*
X151166621Y-113567036D01*
X151456012Y-114000142D01*
X151889118Y-114289533D01*
X152400000Y-114391154D01*
X152910882Y-114289533D01*
X153014945Y-114220000D01*
X159893769Y-114220000D01*
X160017465Y-114841861D01*
X160369720Y-115369049D01*
X160896908Y-115721304D01*
X161518769Y-115845000D01*
X163601231Y-115845000D01*
X164223092Y-115721304D01*
X164750280Y-115369049D01*
X165102535Y-114841861D01*
X165226231Y-114220000D01*
X165102535Y-113598139D01*
X164750280Y-113070951D01*
X164223092Y-112718696D01*
X163601231Y-112595000D01*
X161518769Y-112595000D01*
X160896908Y-112718696D01*
X160369720Y-113070951D01*
X160017465Y-113598139D01*
X159893769Y-114220000D01*
X153014945Y-114220000D01*
X153343988Y-114000142D01*
X153633379Y-113567036D01*
X153735000Y-113056154D01*
X153735000Y-113003846D01*
X153633379Y-112492964D01*
X153343988Y-112059858D01*
X152910882Y-111770467D01*
X152400000Y-111668846D01*
X151889118Y-111770467D01*
X151456012Y-112059858D01*
X151166621Y-112492964D01*
X151065000Y-113003846D01*
X149925000Y-113003846D01*
X149823379Y-112492964D01*
X149533988Y-112059858D01*
X149100882Y-111770467D01*
X148590000Y-111668846D01*
X148079118Y-111770467D01*
X147646012Y-112059858D01*
X147356621Y-112492964D01*
X147255000Y-113003846D01*
X145065024Y-113003846D01*
X145065284Y-112706205D01*
X144816894Y-112105057D01*
X144357363Y-111644722D01*
X143756648Y-111395284D01*
X143106205Y-111394716D01*
X142505057Y-111643106D01*
X142044722Y-112102637D01*
X141795284Y-112703352D01*
X141794716Y-113353795D01*
X140077440Y-113353795D01*
X140077440Y-112030000D01*
X140033162Y-111794683D01*
X139894090Y-111578559D01*
X139681890Y-111433569D01*
X139430000Y-111382560D01*
X137430000Y-111382560D01*
X137194683Y-111426838D01*
X136978559Y-111565910D01*
X136833569Y-111778110D01*
X136782560Y-112030000D01*
X129994907Y-112030000D01*
X130460280Y-111719049D01*
X130812535Y-111191861D01*
X130936231Y-110570000D01*
X130812535Y-109948139D01*
X130460280Y-109420951D01*
X129933092Y-109068696D01*
X129311231Y-108945000D01*
X127228769Y-108945000D01*
X126606908Y-109068696D01*
X126079720Y-109420951D01*
X125727465Y-109948139D01*
X125603769Y-110570000D01*
X122047000Y-110570000D01*
X122047000Y-108230000D01*
X159932560Y-108230000D01*
X159932560Y-110210000D01*
X159976838Y-110445317D01*
X160115910Y-110661441D01*
X160328110Y-110806431D01*
X160580000Y-110857440D01*
X164540000Y-110857440D01*
X164775317Y-110813162D01*
X164991441Y-110674090D01*
X165136431Y-110461890D01*
X165187440Y-110210000D01*
X165187440Y-108230000D01*
X165143162Y-107994683D01*
X165004090Y-107778559D01*
X164791890Y-107633569D01*
X164540000Y-107582560D01*
X160580000Y-107582560D01*
X160344683Y-107626838D01*
X160128559Y-107765910D01*
X159983569Y-107978110D01*
X159932560Y-108230000D01*
X122047000Y-108230000D01*
X122047000Y-104910000D01*
X142362560Y-104910000D01*
X142362560Y-105910000D01*
X142406838Y-106145317D01*
X142545910Y-106361441D01*
X142758110Y-106506431D01*
X143010000Y-106557440D01*
X144010000Y-106557440D01*
X144245317Y-106513162D01*
X144461441Y-106374090D01*
X144606431Y-106161890D01*
X144657440Y-105910000D01*
X144657440Y-105286521D01*
X144915123Y-105268273D01*
X144914803Y-105634775D01*
X145087233Y-106052086D01*
X145406235Y-106371645D01*
X145823244Y-106544803D01*
X146274775Y-106545197D01*
X146692086Y-106372767D01*
X147011645Y-106053765D01*
X147169178Y-105674383D01*
X147254769Y-105674383D01*
X147457582Y-106165229D01*
X147832796Y-106541098D01*
X148323287Y-106744768D01*
X148854383Y-106745231D01*
X149345229Y-106542418D01*
X149721098Y-106167204D01*
X149924768Y-105676713D01*
X149924770Y-105674383D01*
X151064769Y-105674383D01*
X151267582Y-106165229D01*
X151642796Y-106541098D01*
X152133287Y-106744768D01*
X152664383Y-106745231D01*
X153155229Y-106542418D01*
X153531098Y-106167204D01*
X153734768Y-105676713D01*
X153735231Y-105145617D01*
X153532418Y-104654771D01*
X153157204Y-104278902D01*
X152666713Y-104075232D01*
X152135617Y-104074769D01*
X151644771Y-104277582D01*
X151268902Y-104652796D01*
X151065232Y-105143287D01*
X151064769Y-105674383D01*
X149924770Y-105674383D01*
X149925231Y-105145617D01*
X149722418Y-104654771D01*
X149347204Y-104278902D01*
X148856713Y-104075232D01*
X148325617Y-104074769D01*
X147834771Y-104277582D01*
X147458902Y-104652796D01*
X147255232Y-105143287D01*
X147254769Y-105674383D01*
X147169178Y-105674383D01*
X147184803Y-105636756D01*
X147185197Y-105185225D01*
X147012767Y-104767914D01*
X146693765Y-104448355D01*
X146276756Y-104275197D01*
X145927394Y-104274892D01*
X145896217Y-103834625D01*
X145785217Y-103566648D01*
X145570104Y-103529501D01*
X144959605Y-104140000D01*
X144973748Y-104154143D01*
X144794143Y-104333748D01*
X144780000Y-104319605D01*
X144765858Y-104333748D01*
X144586253Y-104154143D01*
X144600395Y-104140000D01*
X143989896Y-103529501D01*
X143774783Y-103566648D01*
X143631888Y-103994972D01*
X143650837Y-104262560D01*
X143010000Y-104262560D01*
X142774683Y-104306838D01*
X142558559Y-104445910D01*
X142413569Y-104658110D01*
X142362560Y-104910000D01*
X122047000Y-104910000D01*
X122047000Y-103349896D01*
X144169501Y-103349896D01*
X144780000Y-103960395D01*
X145390499Y-103349896D01*
X145353352Y-103134783D01*
X144925028Y-102991888D01*
X144474625Y-103023783D01*
X144206648Y-103134783D01*
X144169501Y-103349896D01*
X122047000Y-103349896D01*
X122047000Y-101864383D01*
X147254769Y-101864383D01*
X147457582Y-102355229D01*
X147832796Y-102731098D01*
X148323287Y-102934768D01*
X148854383Y-102935231D01*
X149345229Y-102732418D01*
X149542716Y-102535275D01*
X151644331Y-102535275D01*
X151706169Y-102771042D01*
X152207122Y-102947419D01*
X152737440Y-102918664D01*
X153093831Y-102771042D01*
X153155669Y-102535275D01*
X152400000Y-101779605D01*
X151644331Y-102535275D01*
X149542716Y-102535275D01*
X149721098Y-102357204D01*
X149924768Y-101866713D01*
X149925168Y-101407122D01*
X151052581Y-101407122D01*
X151081336Y-101937440D01*
X151228958Y-102293831D01*
X151464725Y-102355669D01*
X152220395Y-101600000D01*
X152579605Y-101600000D01*
X153335275Y-102355669D01*
X153571042Y-102293831D01*
X153747419Y-101792878D01*
X153732623Y-101520000D01*
X159893769Y-101520000D01*
X160017465Y-102141861D01*
X160369720Y-102669049D01*
X160896908Y-103021304D01*
X161518769Y-103145000D01*
X163601231Y-103145000D01*
X164223092Y-103021304D01*
X164750280Y-102669049D01*
X165102535Y-102141861D01*
X165226231Y-101520000D01*
X165102535Y-100898139D01*
X164750280Y-100370951D01*
X164223092Y-100018696D01*
X163601231Y-99895000D01*
X161518769Y-99895000D01*
X160896908Y-100018696D01*
X160369720Y-100370951D01*
X160017465Y-100898139D01*
X159893769Y-101520000D01*
X153732623Y-101520000D01*
X153718664Y-101262560D01*
X153571042Y-100906169D01*
X153335275Y-100844331D01*
X152579605Y-101600000D01*
X152220395Y-101600000D01*
X151464725Y-100844331D01*
X151228958Y-100906169D01*
X151052581Y-101407122D01*
X149925168Y-101407122D01*
X149925231Y-101335617D01*
X149722418Y-100844771D01*
X149542686Y-100664725D01*
X151644331Y-100664725D01*
X152400000Y-101420395D01*
X153155669Y-100664725D01*
X153093831Y-100428958D01*
X152592878Y-100252581D01*
X152062560Y-100281336D01*
X151706169Y-100428958D01*
X151644331Y-100664725D01*
X149542686Y-100664725D01*
X149347204Y-100468902D01*
X148856713Y-100265232D01*
X148325617Y-100264769D01*
X147834771Y-100467582D01*
X147458902Y-100842796D01*
X147255232Y-101333287D01*
X147254769Y-101864383D01*
X122047000Y-101864383D01*
X122047000Y-98075750D01*
X124175000Y-98075750D01*
X124175000Y-98916310D01*
X124271673Y-99149699D01*
X124450302Y-99328327D01*
X124683691Y-99425000D01*
X125524250Y-99425000D01*
X125683000Y-99266250D01*
X125683000Y-97917000D01*
X125937000Y-97917000D01*
X125937000Y-99266250D01*
X126095750Y-99425000D01*
X126936309Y-99425000D01*
X127169698Y-99328327D01*
X127348327Y-99149699D01*
X127445000Y-98916310D01*
X127445000Y-98113795D01*
X129174716Y-98113795D01*
X129423106Y-98714943D01*
X129882637Y-99175278D01*
X130483352Y-99424716D01*
X131133795Y-99425284D01*
X131734943Y-99176894D01*
X132195278Y-98717363D01*
X132444716Y-98116648D01*
X132445284Y-97466205D01*
X132196894Y-96865057D01*
X132121969Y-96790000D01*
X135592560Y-96790000D01*
X135592560Y-98790000D01*
X135636838Y-99025317D01*
X135775910Y-99241441D01*
X135988110Y-99386431D01*
X136240000Y-99437440D01*
X138240000Y-99437440D01*
X138475317Y-99393162D01*
X138691441Y-99254090D01*
X138836431Y-99041890D01*
X138887440Y-98790000D01*
X138887440Y-98113795D01*
X140604716Y-98113795D01*
X140853106Y-98714943D01*
X141312637Y-99175278D01*
X141913352Y-99424716D01*
X142563795Y-99425284D01*
X143164943Y-99176894D01*
X143625278Y-98717363D01*
X143874716Y-98116648D01*
X143875284Y-97466205D01*
X143626894Y-96865057D01*
X143167363Y-96404722D01*
X142566648Y-96155284D01*
X141916205Y-96154716D01*
X141315057Y-96403106D01*
X140854722Y-96862637D01*
X140605284Y-97463352D01*
X140604716Y-98113795D01*
X138887440Y-98113795D01*
X138887440Y-96790000D01*
X138843162Y-96554683D01*
X138704090Y-96338559D01*
X138491890Y-96193569D01*
X138240000Y-96142560D01*
X136240000Y-96142560D01*
X136004683Y-96186838D01*
X135788559Y-96325910D01*
X135643569Y-96538110D01*
X135592560Y-96790000D01*
X132121969Y-96790000D01*
X131737363Y-96404722D01*
X131136648Y-96155284D01*
X130486205Y-96154716D01*
X129885057Y-96403106D01*
X129424722Y-96862637D01*
X129175284Y-97463352D01*
X129174716Y-98113795D01*
X127445000Y-98113795D01*
X127445000Y-98075750D01*
X127286250Y-97917000D01*
X125937000Y-97917000D01*
X125683000Y-97917000D01*
X124333750Y-97917000D01*
X124175000Y-98075750D01*
X122047000Y-98075750D01*
X122047000Y-96663690D01*
X124175000Y-96663690D01*
X124175000Y-97504250D01*
X124333750Y-97663000D01*
X125683000Y-97663000D01*
X125683000Y-96313750D01*
X125937000Y-96313750D01*
X125937000Y-97663000D01*
X127286250Y-97663000D01*
X127445000Y-97504250D01*
X127445000Y-96663690D01*
X127348327Y-96430301D01*
X127169698Y-96251673D01*
X126936309Y-96155000D01*
X126095750Y-96155000D01*
X125937000Y-96313750D01*
X125683000Y-96313750D01*
X125524250Y-96155000D01*
X124683691Y-96155000D01*
X124450302Y-96251673D01*
X124271673Y-96430301D01*
X124175000Y-96663690D01*
X122047000Y-96663690D01*
X122047000Y-95530000D01*
X159932560Y-95530000D01*
X159932560Y-97510000D01*
X159976838Y-97745317D01*
X160115910Y-97961441D01*
X160328110Y-98106431D01*
X160580000Y-98157440D01*
X164540000Y-98157440D01*
X164775317Y-98113162D01*
X164991441Y-97974090D01*
X165136431Y-97761890D01*
X165187440Y-97510000D01*
X165187440Y-95530000D01*
X165143162Y-95294683D01*
X165004090Y-95078559D01*
X164791890Y-94933569D01*
X164540000Y-94882560D01*
X160580000Y-94882560D01*
X160344683Y-94926838D01*
X160128559Y-95065910D01*
X159983569Y-95278110D01*
X159932560Y-95530000D01*
X122047000Y-95530000D01*
X122047000Y-94313331D01*
X147297273Y-94313331D01*
X147523236Y-94782663D01*
X147911604Y-95129797D01*
X148256671Y-95272716D01*
X148463000Y-95149374D01*
X148463000Y-94107000D01*
X148717000Y-94107000D01*
X148717000Y-95149374D01*
X148923329Y-95272716D01*
X149268396Y-95129797D01*
X149656764Y-94782663D01*
X149882727Y-94313331D01*
X149760206Y-94107000D01*
X148717000Y-94107000D01*
X148463000Y-94107000D01*
X147419794Y-94107000D01*
X147297273Y-94313331D01*
X122047000Y-94313331D01*
X122047000Y-93953846D01*
X151065000Y-93953846D01*
X151065000Y-94006154D01*
X151166621Y-94517036D01*
X151456012Y-94950142D01*
X151889118Y-95239533D01*
X152400000Y-95341154D01*
X152910882Y-95239533D01*
X153343988Y-94950142D01*
X153633379Y-94517036D01*
X153735000Y-94006154D01*
X153735000Y-93953846D01*
X153633379Y-93442964D01*
X153343988Y-93009858D01*
X152910882Y-92720467D01*
X152400000Y-92618846D01*
X151889118Y-92720467D01*
X151456012Y-93009858D01*
X151166621Y-93442964D01*
X151065000Y-93953846D01*
X122047000Y-93953846D01*
X122047000Y-93646669D01*
X147297273Y-93646669D01*
X147419794Y-93853000D01*
X148463000Y-93853000D01*
X148463000Y-92810626D01*
X148717000Y-92810626D01*
X148717000Y-93853000D01*
X149760206Y-93853000D01*
X149882727Y-93646669D01*
X149656764Y-93177337D01*
X149268396Y-92830203D01*
X148923329Y-92687284D01*
X148717000Y-92810626D01*
X148463000Y-92810626D01*
X148256671Y-92687284D01*
X147911604Y-92830203D01*
X147523236Y-93177337D01*
X147297273Y-93646669D01*
X122047000Y-93646669D01*
X122047000Y-92762606D01*
X123242606Y-91567000D01*
X167587394Y-91567000D01*
X168783000Y-92762606D01*
X168783000Y-92762606D01*
G37*
X168783000Y-92762606D02*
X168783000Y-118057394D01*
X167587394Y-119253000D01*
X123242606Y-119253000D01*
X122047000Y-118057394D01*
X122047000Y-114580000D01*
X125642560Y-114580000D01*
X125642560Y-116560000D01*
X125686838Y-116795317D01*
X125825910Y-117011441D01*
X126038110Y-117156431D01*
X126290000Y-117207440D01*
X130250000Y-117207440D01*
X130485317Y-117163162D01*
X130701441Y-117024090D01*
X130846431Y-116811890D01*
X130897440Y-116560000D01*
X130897440Y-114580000D01*
X130853162Y-114344683D01*
X130714090Y-114128559D01*
X130501890Y-113983569D01*
X130250000Y-113932560D01*
X126290000Y-113932560D01*
X126054683Y-113976838D01*
X125838559Y-114115910D01*
X125693569Y-114328110D01*
X125642560Y-114580000D01*
X122047000Y-114580000D01*
X122047000Y-110570000D01*
X125603769Y-110570000D01*
X125727465Y-111191861D01*
X126079720Y-111719049D01*
X126606908Y-112071304D01*
X127228769Y-112195000D01*
X129311231Y-112195000D01*
X129933092Y-112071304D01*
X129994907Y-112030000D01*
X136782560Y-112030000D01*
X136782560Y-114030000D01*
X136826838Y-114265317D01*
X136965910Y-114481441D01*
X137178110Y-114626431D01*
X137430000Y-114677440D01*
X139430000Y-114677440D01*
X139665317Y-114633162D01*
X139881441Y-114494090D01*
X140026431Y-114281890D01*
X140077440Y-114030000D01*
X140077440Y-113353795D01*
X141794716Y-113353795D01*
X142043106Y-113954943D01*
X142502637Y-114415278D01*
X143103352Y-114664716D01*
X143753795Y-114665284D01*
X144354943Y-114416894D01*
X144815278Y-113957363D01*
X145064716Y-113356648D01*
X145065024Y-113003846D01*
X147255000Y-113003846D01*
X147255000Y-113056154D01*
X147356621Y-113567036D01*
X147646012Y-114000142D01*
X148079118Y-114289533D01*
X148590000Y-114391154D01*
X149100882Y-114289533D01*
X149533988Y-114000142D01*
X149823379Y-113567036D01*
X149925000Y-113056154D01*
X149925000Y-113003846D01*
X151065000Y-113003846D01*
X151065000Y-113056154D01*
X151166621Y-113567036D01*
X151456012Y-114000142D01*
X151889118Y-114289533D01*
X152400000Y-114391154D01*
X152910882Y-114289533D01*
X153014945Y-114220000D01*
X159893769Y-114220000D01*
X160017465Y-114841861D01*
X160369720Y-115369049D01*
X160896908Y-115721304D01*
X161518769Y-115845000D01*
X163601231Y-115845000D01*
X164223092Y-115721304D01*
X164750280Y-115369049D01*
X165102535Y-114841861D01*
X165226231Y-114220000D01*
X165102535Y-113598139D01*
X164750280Y-113070951D01*
X164223092Y-112718696D01*
X163601231Y-112595000D01*
X161518769Y-112595000D01*
X160896908Y-112718696D01*
X160369720Y-113070951D01*
X160017465Y-113598139D01*
X159893769Y-114220000D01*
X153014945Y-114220000D01*
X153343988Y-114000142D01*
X153633379Y-113567036D01*
X153735000Y-113056154D01*
X153735000Y-113003846D01*
X153633379Y-112492964D01*
X153343988Y-112059858D01*
X152910882Y-111770467D01*
X152400000Y-111668846D01*
X151889118Y-111770467D01*
X151456012Y-112059858D01*
X151166621Y-112492964D01*
X151065000Y-113003846D01*
X149925000Y-113003846D01*
X149823379Y-112492964D01*
X149533988Y-112059858D01*
X149100882Y-111770467D01*
X148590000Y-111668846D01*
X148079118Y-111770467D01*
X147646012Y-112059858D01*
X147356621Y-112492964D01*
X147255000Y-113003846D01*
X145065024Y-113003846D01*
X145065284Y-112706205D01*
X144816894Y-112105057D01*
X144357363Y-111644722D01*
X143756648Y-111395284D01*
X143106205Y-111394716D01*
X142505057Y-111643106D01*
X142044722Y-112102637D01*
X141795284Y-112703352D01*
X141794716Y-113353795D01*
X140077440Y-113353795D01*
X140077440Y-112030000D01*
X140033162Y-111794683D01*
X139894090Y-111578559D01*
X139681890Y-111433569D01*
X139430000Y-111382560D01*
X137430000Y-111382560D01*
X137194683Y-111426838D01*
X136978559Y-111565910D01*
X136833569Y-111778110D01*
X136782560Y-112030000D01*
X129994907Y-112030000D01*
X130460280Y-111719049D01*
X130812535Y-111191861D01*
X130936231Y-110570000D01*
X130812535Y-109948139D01*
X130460280Y-109420951D01*
X129933092Y-109068696D01*
X129311231Y-108945000D01*
X127228769Y-108945000D01*
X126606908Y-109068696D01*
X126079720Y-109420951D01*
X125727465Y-109948139D01*
X125603769Y-110570000D01*
X122047000Y-110570000D01*
X122047000Y-108230000D01*
X159932560Y-108230000D01*
X159932560Y-110210000D01*
X159976838Y-110445317D01*
X160115910Y-110661441D01*
X160328110Y-110806431D01*
X160580000Y-110857440D01*
X164540000Y-110857440D01*
X164775317Y-110813162D01*
X164991441Y-110674090D01*
X165136431Y-110461890D01*
X165187440Y-110210000D01*
X165187440Y-108230000D01*
X165143162Y-107994683D01*
X165004090Y-107778559D01*
X164791890Y-107633569D01*
X164540000Y-107582560D01*
X160580000Y-107582560D01*
X160344683Y-107626838D01*
X160128559Y-107765910D01*
X159983569Y-107978110D01*
X159932560Y-108230000D01*
X122047000Y-108230000D01*
X122047000Y-104910000D01*
X142362560Y-104910000D01*
X142362560Y-105910000D01*
X142406838Y-106145317D01*
X142545910Y-106361441D01*
X142758110Y-106506431D01*
X143010000Y-106557440D01*
X144010000Y-106557440D01*
X144245317Y-106513162D01*
X144461441Y-106374090D01*
X144606431Y-106161890D01*
X144657440Y-105910000D01*
X144657440Y-105286521D01*
X144915123Y-105268273D01*
X144914803Y-105634775D01*
X145087233Y-106052086D01*
X145406235Y-106371645D01*
X145823244Y-106544803D01*
X146274775Y-106545197D01*
X146692086Y-106372767D01*
X147011645Y-106053765D01*
X147169178Y-105674383D01*
X147254769Y-105674383D01*
X147457582Y-106165229D01*
X147832796Y-106541098D01*
X148323287Y-106744768D01*
X148854383Y-106745231D01*
X149345229Y-106542418D01*
X149721098Y-106167204D01*
X149924768Y-105676713D01*
X149924770Y-105674383D01*
X151064769Y-105674383D01*
X151267582Y-106165229D01*
X151642796Y-106541098D01*
X152133287Y-106744768D01*
X152664383Y-106745231D01*
X153155229Y-106542418D01*
X153531098Y-106167204D01*
X153734768Y-105676713D01*
X153735231Y-105145617D01*
X153532418Y-104654771D01*
X153157204Y-104278902D01*
X152666713Y-104075232D01*
X152135617Y-104074769D01*
X151644771Y-104277582D01*
X151268902Y-104652796D01*
X151065232Y-105143287D01*
X151064769Y-105674383D01*
X149924770Y-105674383D01*
X149925231Y-105145617D01*
X149722418Y-104654771D01*
X149347204Y-104278902D01*
X148856713Y-104075232D01*
X148325617Y-104074769D01*
X147834771Y-104277582D01*
X147458902Y-104652796D01*
X147255232Y-105143287D01*
X147254769Y-105674383D01*
X147169178Y-105674383D01*
X147184803Y-105636756D01*
X147185197Y-105185225D01*
X147012767Y-104767914D01*
X146693765Y-104448355D01*
X146276756Y-104275197D01*
X145927394Y-104274892D01*
X145896217Y-103834625D01*
X145785217Y-103566648D01*
X145570104Y-103529501D01*
X144959605Y-104140000D01*
X144973748Y-104154143D01*
X144794143Y-104333748D01*
X144780000Y-104319605D01*
X144765858Y-104333748D01*
X144586253Y-104154143D01*
X144600395Y-104140000D01*
X143989896Y-103529501D01*
X143774783Y-103566648D01*
X143631888Y-103994972D01*
X143650837Y-104262560D01*
X143010000Y-104262560D01*
X142774683Y-104306838D01*
X142558559Y-104445910D01*
X142413569Y-104658110D01*
X142362560Y-104910000D01*
X122047000Y-104910000D01*
X122047000Y-103349896D01*
X144169501Y-103349896D01*
X144780000Y-103960395D01*
X145390499Y-103349896D01*
X145353352Y-103134783D01*
X144925028Y-102991888D01*
X144474625Y-103023783D01*
X144206648Y-103134783D01*
X144169501Y-103349896D01*
X122047000Y-103349896D01*
X122047000Y-101864383D01*
X147254769Y-101864383D01*
X147457582Y-102355229D01*
X147832796Y-102731098D01*
X148323287Y-102934768D01*
X148854383Y-102935231D01*
X149345229Y-102732418D01*
X149542716Y-102535275D01*
X151644331Y-102535275D01*
X151706169Y-102771042D01*
X152207122Y-102947419D01*
X152737440Y-102918664D01*
X153093831Y-102771042D01*
X153155669Y-102535275D01*
X152400000Y-101779605D01*
X151644331Y-102535275D01*
X149542716Y-102535275D01*
X149721098Y-102357204D01*
X149924768Y-101866713D01*
X149925168Y-101407122D01*
X151052581Y-101407122D01*
X151081336Y-101937440D01*
X151228958Y-102293831D01*
X151464725Y-102355669D01*
X152220395Y-101600000D01*
X152579605Y-101600000D01*
X153335275Y-102355669D01*
X153571042Y-102293831D01*
X153747419Y-101792878D01*
X153732623Y-101520000D01*
X159893769Y-101520000D01*
X160017465Y-102141861D01*
X160369720Y-102669049D01*
X160896908Y-103021304D01*
X161518769Y-103145000D01*
X163601231Y-103145000D01*
X164223092Y-103021304D01*
X164750280Y-102669049D01*
X165102535Y-102141861D01*
X165226231Y-101520000D01*
X165102535Y-100898139D01*
X164750280Y-100370951D01*
X164223092Y-100018696D01*
X163601231Y-99895000D01*
X161518769Y-99895000D01*
X160896908Y-100018696D01*
X160369720Y-100370951D01*
X160017465Y-100898139D01*
X159893769Y-101520000D01*
X153732623Y-101520000D01*
X153718664Y-101262560D01*
X153571042Y-100906169D01*
X153335275Y-100844331D01*
X152579605Y-101600000D01*
X152220395Y-101600000D01*
X151464725Y-100844331D01*
X151228958Y-100906169D01*
X151052581Y-101407122D01*
X149925168Y-101407122D01*
X149925231Y-101335617D01*
X149722418Y-100844771D01*
X149542686Y-100664725D01*
X151644331Y-100664725D01*
X152400000Y-101420395D01*
X153155669Y-100664725D01*
X153093831Y-100428958D01*
X152592878Y-100252581D01*
X152062560Y-100281336D01*
X151706169Y-100428958D01*
X151644331Y-100664725D01*
X149542686Y-100664725D01*
X149347204Y-100468902D01*
X148856713Y-100265232D01*
X148325617Y-100264769D01*
X147834771Y-100467582D01*
X147458902Y-100842796D01*
X147255232Y-101333287D01*
X147254769Y-101864383D01*
X122047000Y-101864383D01*
X122047000Y-98075750D01*
X124175000Y-98075750D01*
X124175000Y-98916310D01*
X124271673Y-99149699D01*
X124450302Y-99328327D01*
X124683691Y-99425000D01*
X125524250Y-99425000D01*
X125683000Y-99266250D01*
X125683000Y-97917000D01*
X125937000Y-97917000D01*
X125937000Y-99266250D01*
X126095750Y-99425000D01*
X126936309Y-99425000D01*
X127169698Y-99328327D01*
X127348327Y-99149699D01*
X127445000Y-98916310D01*
X127445000Y-98113795D01*
X129174716Y-98113795D01*
X129423106Y-98714943D01*
X129882637Y-99175278D01*
X130483352Y-99424716D01*
X131133795Y-99425284D01*
X131734943Y-99176894D01*
X132195278Y-98717363D01*
X132444716Y-98116648D01*
X132445284Y-97466205D01*
X132196894Y-96865057D01*
X132121969Y-96790000D01*
X135592560Y-96790000D01*
X135592560Y-98790000D01*
X135636838Y-99025317D01*
X135775910Y-99241441D01*
X135988110Y-99386431D01*
X136240000Y-99437440D01*
X138240000Y-99437440D01*
X138475317Y-99393162D01*
X138691441Y-99254090D01*
X138836431Y-99041890D01*
X138887440Y-98790000D01*
X138887440Y-98113795D01*
X140604716Y-98113795D01*
X140853106Y-98714943D01*
X141312637Y-99175278D01*
X141913352Y-99424716D01*
X142563795Y-99425284D01*
X143164943Y-99176894D01*
X143625278Y-98717363D01*
X143874716Y-98116648D01*
X143875284Y-97466205D01*
X143626894Y-96865057D01*
X143167363Y-96404722D01*
X142566648Y-96155284D01*
X141916205Y-96154716D01*
X141315057Y-96403106D01*
X140854722Y-96862637D01*
X140605284Y-97463352D01*
X140604716Y-98113795D01*
X138887440Y-98113795D01*
X138887440Y-96790000D01*
X138843162Y-96554683D01*
X138704090Y-96338559D01*
X138491890Y-96193569D01*
X138240000Y-96142560D01*
X136240000Y-96142560D01*
X136004683Y-96186838D01*
X135788559Y-96325910D01*
X135643569Y-96538110D01*
X135592560Y-96790000D01*
X132121969Y-96790000D01*
X131737363Y-96404722D01*
X131136648Y-96155284D01*
X130486205Y-96154716D01*
X129885057Y-96403106D01*
X129424722Y-96862637D01*
X129175284Y-97463352D01*
X129174716Y-98113795D01*
X127445000Y-98113795D01*
X127445000Y-98075750D01*
X127286250Y-97917000D01*
X125937000Y-97917000D01*
X125683000Y-97917000D01*
X124333750Y-97917000D01*
X124175000Y-98075750D01*
X122047000Y-98075750D01*
X122047000Y-96663690D01*
X124175000Y-96663690D01*
X124175000Y-97504250D01*
X124333750Y-97663000D01*
X125683000Y-97663000D01*
X125683000Y-96313750D01*
X125937000Y-96313750D01*
X125937000Y-97663000D01*
X127286250Y-97663000D01*
X127445000Y-97504250D01*
X127445000Y-96663690D01*
X127348327Y-96430301D01*
X127169698Y-96251673D01*
X126936309Y-96155000D01*
X126095750Y-96155000D01*
X125937000Y-96313750D01*
X125683000Y-96313750D01*
X125524250Y-96155000D01*
X124683691Y-96155000D01*
X124450302Y-96251673D01*
X124271673Y-96430301D01*
X124175000Y-96663690D01*
X122047000Y-96663690D01*
X122047000Y-95530000D01*
X159932560Y-95530000D01*
X159932560Y-97510000D01*
X159976838Y-97745317D01*
X160115910Y-97961441D01*
X160328110Y-98106431D01*
X160580000Y-98157440D01*
X164540000Y-98157440D01*
X164775317Y-98113162D01*
X164991441Y-97974090D01*
X165136431Y-97761890D01*
X165187440Y-97510000D01*
X165187440Y-95530000D01*
X165143162Y-95294683D01*
X165004090Y-95078559D01*
X164791890Y-94933569D01*
X164540000Y-94882560D01*
X160580000Y-94882560D01*
X160344683Y-94926838D01*
X160128559Y-95065910D01*
X159983569Y-95278110D01*
X159932560Y-95530000D01*
X122047000Y-95530000D01*
X122047000Y-94313331D01*
X147297273Y-94313331D01*
X147523236Y-94782663D01*
X147911604Y-95129797D01*
X148256671Y-95272716D01*
X148463000Y-95149374D01*
X148463000Y-94107000D01*
X148717000Y-94107000D01*
X148717000Y-95149374D01*
X148923329Y-95272716D01*
X149268396Y-95129797D01*
X149656764Y-94782663D01*
X149882727Y-94313331D01*
X149760206Y-94107000D01*
X148717000Y-94107000D01*
X148463000Y-94107000D01*
X147419794Y-94107000D01*
X147297273Y-94313331D01*
X122047000Y-94313331D01*
X122047000Y-93953846D01*
X151065000Y-93953846D01*
X151065000Y-94006154D01*
X151166621Y-94517036D01*
X151456012Y-94950142D01*
X151889118Y-95239533D01*
X152400000Y-95341154D01*
X152910882Y-95239533D01*
X153343988Y-94950142D01*
X153633379Y-94517036D01*
X153735000Y-94006154D01*
X153735000Y-93953846D01*
X153633379Y-93442964D01*
X153343988Y-93009858D01*
X152910882Y-92720467D01*
X152400000Y-92618846D01*
X151889118Y-92720467D01*
X151456012Y-93009858D01*
X151166621Y-93442964D01*
X151065000Y-93953846D01*
X122047000Y-93953846D01*
X122047000Y-93646669D01*
X147297273Y-93646669D01*
X147419794Y-93853000D01*
X148463000Y-93853000D01*
X148463000Y-92810626D01*
X148717000Y-92810626D01*
X148717000Y-93853000D01*
X149760206Y-93853000D01*
X149882727Y-93646669D01*
X149656764Y-93177337D01*
X149268396Y-92830203D01*
X148923329Y-92687284D01*
X148717000Y-92810626D01*
X148463000Y-92810626D01*
X148256671Y-92687284D01*
X147911604Y-92830203D01*
X147523236Y-93177337D01*
X147297273Y-93646669D01*
X122047000Y-93646669D01*
X122047000Y-92762606D01*
X123242606Y-91567000D01*
X167587394Y-91567000D01*
X168783000Y-92762606D01*
M02*
